<?xml version="1.0" encoding="UTF-8"?>
<svg  version="1.1" xmlns="http://www.w3.org/2000/svg" width="512" height="512">
<path  d="M0 0 C1.38217209 -0.01292336 1.38217209 -0.01292336 2.79226685 -0.02610779 C5.81769453 -0.04868373 8.84218946 -0.04204343 11.86767578 -0.03295898 C13.98463209 -0.0381988 16.10158606 -0.0444766 18.21853638 -0.05174255 C22.64840709 -0.06213177 27.07795629 -0.0576072 31.5078125 -0.04296875 C37.16579672 -0.02579625 42.82276392 -0.04926572 48.48063469 -0.08445835 C52.85090784 -0.10649222 57.22093997 -0.10497612 61.59125137 -0.09669304 C63.67631266 -0.09587656 65.76139217 -0.10268157 67.84640121 -0.11746407 C89.44827647 -0.24713733 89.44827647 -0.24713733 96.43798828 5.53344727 C101.40736385 10.86318827 102.58740733 15.67761048 102.56941605 22.75747395 C102.57146868 23.50202232 102.57352131 24.2465707 102.57563615 25.01368114 C102.58132641 27.52844966 102.57984641 30.04316377 102.57843018 32.55793762 C102.58101265 34.37116344 102.58402548 36.18438868 102.58743358 37.99761313 C102.59552063 42.99594672 102.59729409 47.99426597 102.59803104 52.99260533 C102.59987863 58.37717967 102.60742444 63.76174651 102.61416626 69.14631653 C102.62776193 80.92715675 102.63377614 92.70799358 102.63817692 104.48884034 C102.6409371 111.84073792 102.64517402 119.19263418 102.64968109 126.54453087 C102.66187507 146.88821868 102.67217432 167.23190543 102.67555618 187.57559681 C102.67588553 189.52954813 102.67588553 189.52954813 102.67622153 191.52297322 C102.67643981 192.82877328 102.67665809 194.13457334 102.67688298 195.4799431 C102.67732645 198.12611441 102.67777302 200.77228572 102.67822266 203.41845703 C102.6785548 205.38735723 102.6785548 205.38735723 102.67889366 207.39603319 C102.68284313 228.67314345 102.70030115 249.9502195 102.72358218 271.22731654 C102.74727566 293.0570214 102.75975711 314.88670909 102.7609241 336.71642703 C102.76184196 348.97915585 102.76762212 361.24184009 102.78574371 373.50455666 C102.80111764 383.94494975 102.80628118 394.38528448 102.79800561 404.82568673 C102.79408957 410.15497111 102.79507512 415.48413787 102.80906296 420.8134079 C102.8217447 425.68953558 102.82065499 430.56545655 102.80847225 435.44158372 C102.80650528 437.20807828 102.80963947 438.9745872 102.81831661 440.74106155 C102.82934888 443.1382595 102.82196405 445.53472016 102.80992508 447.93189716 C102.81752027 448.62118953 102.82511547 449.3104819 102.83294082 450.02066192 C102.76924494 455.87697787 100.95606678 459.71175306 97.25048828 464.15844727 C90.85148198 469.56205258 85.14914867 471.13017375 76.87597656 471.06689453 C75.9545285 471.0755101 75.03308044 471.08412567 74.08370972 471.09300232 C71.05828203 471.11557826 68.0337871 471.10893796 65.00830078 471.09985352 C62.89134447 471.10509334 60.77439051 471.11137113 58.65744019 471.11863708 C54.22756948 471.1290263 49.79802028 471.12450173 45.36816406 471.10986328 C39.71017984 471.09269078 34.05321264 471.11616025 28.39534187 471.15135288 C24.02506873 471.17338675 19.65503659 471.17187065 15.28472519 471.16358757 C13.19966391 471.16277109 11.11458439 471.16957611 9.02957535 471.1843586 C-12.57229991 471.31403186 -12.57229991 471.31403186 -19.56201172 465.53344727 C-24.53138728 460.20370626 -25.71143076 455.38928405 -25.69343948 448.30942059 C-25.69549212 447.56487221 -25.69754475 446.82032384 -25.69965959 446.05321339 C-25.70534985 443.53844487 -25.70386985 441.02373076 -25.70245361 438.50895691 C-25.70503608 436.69573109 -25.70804891 434.88250585 -25.71145701 433.0692814 C-25.71954407 428.07094781 -25.72131753 423.07262856 -25.72205448 418.0742892 C-25.72390206 412.68971486 -25.73144787 407.30514802 -25.7381897 401.920578 C-25.75178536 390.13973778 -25.75779958 378.35890095 -25.76220036 366.57805419 C-25.76496054 359.22615661 -25.76919746 351.87426035 -25.77370453 344.52236366 C-25.78589851 324.17867585 -25.79619776 303.83498911 -25.79957962 283.49129772 C-25.79979919 282.18866351 -25.80001875 280.88602929 -25.80024497 279.54392131 C-25.80046325 278.23812125 -25.80068153 276.93232119 -25.80090642 275.58695143 C-25.80134989 272.94078012 -25.80179645 270.29460881 -25.80224609 267.6484375 C-25.80246752 266.33583737 -25.80268895 265.02323724 -25.80291709 263.67086134 C-25.80686657 242.39375108 -25.82432458 221.11667503 -25.84760562 199.839578 C-25.8712991 178.00987313 -25.88378055 156.18018544 -25.88494754 134.3504675 C-25.8858654 122.08773868 -25.89164556 109.82505444 -25.90976715 97.56233788 C-25.92514108 87.12194478 -25.93030462 76.68161005 -25.92202905 66.2412078 C-25.91811301 60.91192342 -25.91909856 55.58275666 -25.9330864 50.25348663 C-25.94576813 45.37735895 -25.94467843 40.50143798 -25.93249568 35.62531082 C-25.93052872 33.85881625 -25.93366291 32.09230733 -25.94234005 30.32583299 C-25.95337231 27.92863503 -25.94598749 25.53217437 -25.93394852 23.13499737 C-25.94154371 22.445705 -25.9491389 21.75641263 -25.95696425 21.04623261 C-25.89326838 15.18991666 -24.08009022 11.35514147 -20.37451172 6.90844727 C-13.97550542 1.50484195 -8.2731721 -0.06327922 0 0 Z " fill="#1DC071" transform="translate(217.56201171875,20.466552734375)"/>
<path  d="M0 0 C0.82982895 -0.00708481 1.6596579 -0.01416962 2.51463318 -0.02146912 C3.41654892 -0.0189917 4.31846466 -0.01651428 5.24771118 -0.01396179 C6.20426102 -0.01907272 7.16081085 -0.02418365 8.14634705 -0.02944946 C11.30991871 -0.04335472 14.47327273 -0.04238785 17.63687134 -0.04008484 C19.83638592 -0.0439715 22.03589974 -0.04830611 24.2354126 -0.05307007 C28.8471215 -0.06053448 33.45875385 -0.06023956 38.07046509 -0.05497742 C43.97756622 -0.04918524 49.88435356 -0.06610681 55.79140282 -0.08932209 C60.33475575 -0.10406169 64.87803318 -0.10493076 69.42140579 -0.10181236 C71.59908291 -0.10232555 73.77676425 -0.10756277 75.95441818 -0.11762428 C79.00160792 -0.12997427 82.04818731 -0.12320513 85.09536743 -0.11161804 C86.44216835 -0.12308365 86.44216835 -0.12308365 87.81617737 -0.13478088 C94.2600173 -0.08068058 98.37705208 1.24079494 103.42593384 5.44819641 C110.01634095 13.25262588 110.37904782 19.83164197 110.30886841 29.73493958 C110.31348206 31.10145814 110.3198381 32.46797175 110.32777739 33.83447504 C110.34443034 37.57501241 110.33624298 41.31514003 110.32383251 45.05567861 C110.3147677 49.09529305 110.32875883 53.13483793 110.3397522 57.17443848 C110.35752677 65.08226125 110.35370219 72.98993205 110.34210163 80.89776075 C110.3330634 87.32533665 110.331845 93.75287 110.3361969 100.18045044 C110.33680983 101.09570131 110.33742276 102.01095218 110.33805427 102.95393792 C110.33933319 104.81332681 110.34063004 106.67271569 110.34194463 108.53210455 C110.35334732 125.96237737 110.34024161 143.392566 110.31874317 160.82282501 C110.30087247 175.77465113 110.30397666 190.72635301 110.32241821 205.67817688 C110.34383042 223.04661971 110.35224871 240.41498878 110.33996916 257.78344297 C110.33869498 259.63594277 110.3374375 261.48844257 110.3361969 263.34094238 C110.33527125 264.70809473 110.33527125 264.70809473 110.33432689 266.10286632 C110.33087505 272.52177144 110.33669878 278.94062972 110.34611511 285.35952759 C110.35734036 293.18340863 110.354284 301.00712918 110.33299214 308.83099186 C110.32248877 312.82190351 110.31834759 316.81254767 110.33158875 320.80345726 C110.34353349 324.45894579 110.33691639 328.11391964 110.31567854 331.76936167 C110.30911441 333.71358897 110.32213002 335.65785216 110.33590746 337.60204172 C110.26481829 345.53491345 109.38876031 351.10299146 104.05484009 357.28413391 C103.49667603 357.73014954 102.93851196 358.17616516 102.36343384 358.63569641 C101.53005493 359.32792297 101.53005493 359.32792297 100.67984009 360.03413391 C95.37832223 363.49500004 90.59708702 363.55757434 84.45596313 363.55122375 C83.521987 363.55794098 82.58801086 363.5646582 81.62573242 363.57157898 C78.54215148 363.59055613 75.45878827 363.59448314 72.37515259 363.59663391 C70.22669892 363.60306236 68.07824614 363.60979076 65.92979431 363.61680603 C61.4266151 363.62877833 56.9235126 363.63248693 52.4203186 363.63130188 C46.66021301 363.63109877 40.90060124 363.65839295 35.1406126 363.6928463 C30.7026902 363.71512432 26.26488643 363.71913913 21.82691383 363.71808243 C19.70390942 363.72043732 17.58090169 363.72925453 15.4579525 363.74474716 C12.48298314 363.76442359 9.50907594 363.75856214 6.53408813 363.74653625 C5.66368393 363.75777527 4.79327972 363.76901428 3.89649963 363.78059387 C-3.47335999 363.70519171 -8.71796186 361.68666506 -14.01156616 356.51069641 C-19.43643972 348.45088426 -19.63243117 341.38445751 -19.58674622 331.90707397 C-19.59092343 330.55364476 -19.59640307 329.20021905 -19.60306603 327.84679979 C-19.61748858 324.14246359 -19.61328599 320.43835048 -19.60589921 316.73400223 C-19.60116194 312.73323055 -19.61368231 308.73250674 -19.62391663 304.73175049 C-19.64109876 296.89981971 -19.64194589 289.06796918 -19.63670372 281.23602445 C-19.63265985 274.86948367 -19.63410816 268.50296658 -19.63945198 262.13642693 C-19.6402004 261.22979086 -19.64094882 260.3231548 -19.64171993 259.38904492 C-19.64325143 257.54713277 -19.64478977 255.70522062 -19.64633489 253.86330848 C-19.66005771 236.59659687 -19.65462368 219.32993059 -19.64314968 202.06322002 C-19.6332166 186.27203949 -19.64615965 170.48097613 -19.67008387 154.68981368 C-19.6944748 138.46817675 -19.70408282 122.24659438 -19.69743115 106.02493948 C-19.69393903 96.92059416 -19.69617054 87.81633896 -19.71368217 78.71200752 C-19.72840402 70.96209006 -19.72903979 63.21232616 -19.71161126 55.46241171 C-19.70309889 51.50984985 -19.70095735 47.55756235 -19.71626282 43.6050148 C-19.73011299 39.98340583 -19.72534308 36.36230617 -19.70602358 32.74072664 C-19.7004897 30.81711432 -19.71453239 28.89347606 -19.72937769 26.96991307 C-19.66348847 19.21208289 -18.96826848 12.23280398 -13.419774 6.38562065 C-9.38138183 2.71871004 -5.59659292 0.01598858 0 0 Z " fill="#1DC071" transform="translate(381.1990661621094,127.73930358886719)"/>
<path  d="M0 0 C1.23834595 -0.0129007 1.23834595 -0.0129007 2.50170898 -0.02606201 C3.40407791 -0.03032196 4.30644684 -0.03458191 5.23616028 -0.03897095 C6.66594711 -0.05123718 6.66594711 -0.05123718 8.12461853 -0.06375122 C11.28394443 -0.08859395 14.44322538 -0.10511948 17.60261536 -0.11953735 C19.22184623 -0.12752287 19.22184623 -0.12752287 20.87378883 -0.13566971 C26.58881037 -0.16239791 32.3038101 -0.18177288 38.01887512 -0.19619751 C43.91585418 -0.21283386 49.81227314 -0.25760465 55.70904064 -0.30856895 C60.24817532 -0.34226064 64.78717743 -0.35377714 69.32642555 -0.35942459 C71.49969571 -0.36613292 73.67295727 -0.381344 75.84610558 -0.4053154 C78.89325159 -0.43700667 81.93889207 -0.43699726 84.98616028 -0.42959595 C86.32453194 -0.45420395 86.32453194 -0.45420395 87.68994141 -0.47930908 C94.68247724 -0.41003454 99.38533072 1.80044626 104.4617033 6.59668922 C109.54779755 12.23657081 110.23215031 18.07957249 110.20207214 25.40090942 C110.20660326 26.21569079 110.21113437 27.03047215 110.21580279 27.86994386 C110.22843247 30.59193275 110.22682734 33.31372119 110.22517395 36.03573608 C110.23116014 37.99081682 110.2379659 39.94589519 110.24552917 41.90097046 C110.26318836 47.20691516 110.26788456 52.51279534 110.26916075 57.81876659 C110.27058309 61.13591112 110.27485431 64.45303929 110.28015518 67.77017975 C110.29865607 79.34894348 110.30682583 90.92766118 110.30525208 102.50643921 C110.30405107 113.28893182 110.32514534 124.07122413 110.3567394 134.85366607 C110.38291859 144.11926899 110.39361866 153.38480657 110.39234126 162.65044618 C110.39183205 168.18063795 110.39749213 173.71065174 110.41869736 179.24080658 C110.43810698 184.44474762 110.43818545 189.64834141 110.42366409 194.85229492 C110.4215782 196.75737263 110.42626373 198.66247222 110.43838501 200.56751251 C110.56635953 222.0819152 110.56635953 222.0819152 104.18459129 229.07030869 C98.1871227 234.69866505 92.5379663 235.45264688 84.5896759 235.44442749 C83.65569977 235.45114471 82.72172363 235.45786194 81.75944519 235.46478271 C78.67586425 235.48375986 75.59250104 235.48768688 72.50886536 235.48983765 C70.36041169 235.4962661 68.21195891 235.50299449 66.06350708 235.51000977 C61.56032787 235.52198206 57.05722537 235.52569067 52.55403137 235.52450562 C46.79392578 235.52430251 41.03431401 235.55159668 35.27432537 235.58605003 C30.83640297 235.60832805 26.39859919 235.61234286 21.9606266 235.61128616 C19.83762219 235.61364106 17.71461446 235.62245827 15.59166527 235.6379509 C12.61669591 235.65762732 9.64278871 235.65176588 6.6678009 235.63973999 C5.7973967 235.650979 4.92699249 235.66221802 4.0302124 235.67379761 C-2.70963347 235.60484121 -7.94388064 233.84752625 -13.08879089 229.4078064 C-13.53480652 228.84964233 -13.98082214 228.29147827 -14.44035339 227.71640015 C-14.90183777 227.16081421 -15.36332214 226.60522827 -15.83879089 226.0328064 C-19.0268588 221.14917371 -19.35745109 216.62270536 -19.33950806 210.91325378 C-19.34474474 210.08707619 -19.34998141 209.26089859 -19.35537678 208.40968531 C-19.37037034 205.64314079 -19.3710818 202.87678133 -19.37174988 200.11019897 C-19.3793719 198.1257089 -19.38779947 196.14122179 -19.39697266 194.15673828 C-19.41892286 188.76603328 -19.42771751 183.37538501 -19.4327991 177.98464036 C-19.43644267 174.61507066 -19.4426828 171.24551581 -19.44980049 167.87595177 C-19.47429876 156.11564863 -19.48734728 144.35538961 -19.4908905 132.59506226 C-19.49452396 121.64157289 -19.52440496 110.68836404 -19.56629509 99.73496038 C-19.60101777 90.32500495 -19.6164393 80.91514237 -19.61713654 71.50512332 C-19.6179288 65.88768048 -19.62664424 60.27052326 -19.6551342 54.65314674 C-19.68134782 49.3662701 -19.6835014 44.07991516 -19.66747856 38.79300308 C-19.66566659 36.85728122 -19.67233193 34.92152914 -19.68829727 32.98587227 C-19.83980906 13.41636612 -19.83980906 13.41636612 -14.06535339 6.15390015 C-9.89875402 2.25083761 -5.74119547 0.04462474 0 0 Z " fill="#1DC071" transform="translate(40.06535339355469,255.84609985351563)"/>
</svg>
