<?xml version="1.0" encoding="UTF-8"?>
<svg version="1.1" xmlns="http://www.w3.org/2000/svg" width="512" height="512">
<path d="M0 0 C5.39205278 0.86031548 10.45102002 2.68751478 15.58929443 4.49075317 C16.83500717 4.91581146 18.08071991 5.34086975 19.36418152 5.77880859 C22.72776602 6.92694933 26.08528063 8.09194394 29.44186783 9.2603569 C32.97219745 10.48590348 36.50801347 11.69542397 40.04315186 12.90701294 C48.25581215 15.72554165 56.45907371 18.57075238 64.65960693 21.42434692 C65.71041443 21.78991699 66.76122192 22.15548706 67.84387207 22.53213501 C75.54758705 25.21394098 83.24808934 27.90484733 90.9442749 30.60818481 C108.01703335 36.59562944 125.16316542 42.36482853 142.3057251 48.14840698 C159.5576871 53.96928673 176.79572549 59.82059074 193.97210693 65.86184692 C212.75624362 72.46595591 231.60940518 78.86150606 250.47210693 85.23684692 C251.91454062 85.72454831 253.35697429 86.21224972 254.79940796 86.69995117 C274.40231078 93.32643503 294.02363737 99.89651201 313.65960693 106.42434692 C313.89018295 105.68250656 314.12075897 104.9406662 314.35832214 104.17634583 C316.5749169 97.04656975 318.79423633 89.91764942 321.01632595 82.78958416 C322.15753494 79.12847962 323.29783044 75.46709678 324.43572998 71.80496216 C327.27082216 62.68270522 330.12832077 53.5678496 333.01491547 44.46175385 C333.65820841 42.42876665 334.2979951 40.39470137 334.93725586 38.36044312 C336.13036795 34.5699949 337.3483758 30.78781553 338.56976318 27.00637817 C338.92469345 25.87375046 339.27962372 24.74112274 339.64530945 23.57417297 C339.98397537 22.53964493 340.3226413 21.50511688 340.67156982 20.4392395 C340.96044571 19.53820999 341.24932159 18.63718048 341.54695129 17.70884705 C342.87742084 14.97713227 344.01743908 13.90456481 346.65960693 12.42434692 C348.85331726 12.03666687 348.85331726 12.03666687 351.25701904 12.02029419 C352.61379005 12.00126793 352.61379005 12.00126793 353.99797058 11.9818573 C354.96783401 11.98479294 355.93769745 11.98772858 356.93695068 11.99075317 C358.44220055 11.9828904 358.44220055 11.9828904 359.9778595 11.97486877 C362.09857254 11.9684499 364.2193212 11.96978382 366.34002686 11.978302 C369.58196551 11.9868072 372.82213943 11.95805551 376.06390381 11.92630005 C378.12575224 11.9246878 380.18760379 11.92526602 382.24945068 11.92825317 C383.21728989 11.9170192 384.18512909 11.90578522 385.18229675 11.89421082 C389.4518794 11.93833799 391.98536348 12.02644863 395.72015381 14.23049927 C398.44375467 17.31134989 399.30424143 20.57435826 400.22210693 24.48684692 C400.42408691 25.32352905 400.62606689 26.16021118 400.83416748 27.02224731 C401.48022308 29.81607663 402.07624273 32.61678792 402.65960693 35.42434692 C402.86005615 36.35601685 403.06050537 37.28768677 403.26702881 38.24758911 C409.26943476 67.34449797 409.28579773 100.26893888 403.65960693 129.42434692 C403.49331787 130.35907837 403.32702881 131.29380981 403.15570068 132.25686646 C401.05883105 143.99739488 398.24642043 155.44932092 394.78460693 166.86184692 C394.32984985 168.3687207 394.32984985 168.3687207 393.86590576 169.90603638 C392.23302065 175.09554281 390.40530231 179.94755554 388.01700687 184.84123325 C382.62847582 196.38716446 382.66775069 207.4145264 382.75726318 219.95950317 C382.7478572 222.17724564 382.73538664 224.39497701 382.72001648 226.61268616 C382.68805032 232.39132941 382.69713818 238.16917183 382.71539307 243.94784546 C382.72662392 249.86783308 382.69817731 255.78762365 382.67327881 261.70755005 C382.63034899 273.27995814 382.63088002 284.85191002 382.65960693 296.42434692 C383.47945068 296.37794067 384.29929443 296.33153442 385.14398193 296.28372192 C386.22163818 296.24762817 387.29929443 296.21153442 388.40960693 296.17434692 C389.47695068 296.12794067 390.54429443 296.08153442 391.64398193 296.03372192 C394.65960693 296.42434692 394.65960693 296.42434692 397.0178833 298.00247192 C399.23634692 301.27515525 399.16721546 303.48294879 399.17718506 307.42434692 C399.18769897 308.46897095 399.18769897 308.46897095 399.19842529 309.53469849 C399.21599889 311.83165624 399.20438613 314.12737713 399.19085693 316.42434692 C399.19355206 318.02330766 399.19743466 319.62226679 399.20245361 321.22122192 C399.20834775 324.57033918 399.19978886 327.91902936 399.18109131 331.26809692 C399.15830128 335.55913283 399.17142489 339.84916804 399.19538116 344.14016724 C399.20984173 347.44135058 399.20523208 350.74229703 399.19487 354.04348755 C399.1922034 355.62552001 399.19547016 357.20757404 399.20478821 358.7895813 C399.21495872 361.00174855 399.19944884 363.21229992 399.17718506 365.42434692 C399.17400269 366.68247192 399.17082031 367.94059692 399.1675415 369.23684692 C398.65960693 372.42434692 398.65960693 372.42434692 394.65960693 376.42434692 C390.69960693 376.42434692 386.73960693 376.42434692 382.65960693 376.42434692 C382.65960693 394.90434692 382.65960693 413.38434692 382.65960693 432.42434692 C389.25960693 432.42434692 395.85960693 432.42434692 402.65960693 432.42434692 C407.16075123 436.92549122 407.16075123 436.92549122 407.17718506 440.48684692 C407.19609802 441.66827271 407.19609802 441.66827271 407.21539307 442.87356567 C407.20324768 444.13620239 407.20324768 444.13620239 407.19085693 445.42434692 C407.19468384 446.29704224 407.19851074 447.16973755 407.20245361 448.06887817 C407.20517183 449.91133785 407.19781688 451.75383616 407.18109131 453.59622192 C407.15967941 456.41480626 407.18089495 459.23084177 407.20648193 462.04934692 C407.20383864 463.84101921 407.19871363 465.63268991 407.19085693 467.42434692 C407.19895386 468.26610474 407.20705078 469.10786255 407.21539307 469.97512817 C407.1964801 471.15655396 407.1964801 471.15655396 407.17718506 472.36184692 C407.17400269 473.05149536 407.17082031 473.7411438 407.1675415 474.45169067 C406.39558849 477.44971053 405.09987866 478.5307339 402.65960693 480.42434692 C399.90814503 480.81641954 397.55723454 480.9622518 394.80718994 480.92771149 C393.60669589 480.93643213 393.60669589 480.93643213 392.38194942 480.94532895 C389.68318462 480.96000028 386.98531918 480.94601079 384.28656006 480.93228149 C382.33904808 480.93688759 380.39153958 480.94323854 378.44403839 480.95119047 C373.07916143 480.96794687 367.7145677 480.9596088 362.34968948 480.9472456 C356.56910496 480.93822319 350.78857033 480.95215084 345.00799561 480.96316528 C333.67862177 480.98098518 322.34935371 480.97709507 311.01997566 480.96551472 C301.81528986 480.95649431 292.61063378 480.95525036 283.40594482 480.95960999 C282.09767117 480.96022292 280.78939752 480.96083585 279.44147921 480.96146736 C276.78404426 480.96274621 274.12660932 480.96404306 271.46917439 480.96535772 C247.24088045 480.97685019 223.01264007 480.96493192 198.78435528 480.94398733 C176.65680404 480.92500425 154.52934487 480.92670273 132.40179443 480.9458313 C107.55345985 480.96723999 82.70517694 480.97567496 57.85683441 480.96338224 C55.2089793 480.962108 52.56112417 480.96085052 49.91326904 480.95960999 C47.95889317 480.95868433 47.95889317 480.95868433 45.96503496 480.95773998 C36.76759133 480.95428109 27.57018028 480.96012701 18.3727417 480.9695282 C7.16959218 480.98072741 -4.03344519 480.97775194 -15.2365818 480.95640522 C-20.9565206 480.94586682 -26.67627216 480.94182041 -32.39620972 480.95500183 C-37.62691974 480.96687386 -42.85726803 480.96044923 -48.08794498 480.93909162 C-49.98559236 480.93460346 -51.88326996 480.93694104 -53.78089809 480.94659477 C-56.35036537 480.95866905 -58.91857568 480.94637616 -61.48797607 480.92771149 C-62.60637548 480.94175848 -62.60637548 480.94175848 -63.74736881 480.95608926 C-67.21488478 480.90536307 -69.02233702 480.67115349 -71.79942322 478.51617765 C-73.49556006 476.21371134 -73.84495521 475.18252546 -73.85797119 472.36184692 C-73.87688416 471.18042114 -73.87688416 471.18042114 -73.8961792 469.97512817 C-73.88808228 469.13337036 -73.87998535 468.29161255 -73.87164307 467.42434692 C-73.87546997 466.55165161 -73.87929687 465.6789563 -73.88323975 464.77981567 C-73.88595797 462.937356 -73.87860301 461.09485768 -73.86187744 459.25247192 C-73.84046554 456.43388759 -73.86168108 453.61785208 -73.88726807 450.79934692 C-73.88462477 449.00767464 -73.87949976 447.21600393 -73.87164307 445.42434692 C-73.88378845 444.16171021 -73.88378845 444.16171021 -73.8961792 442.87356567 C-73.88357056 442.08594849 -73.87096191 441.2983313 -73.85797119 440.48684692 C-73.85478882 439.79719849 -73.85160645 439.10755005 -73.84832764 438.39700317 C-73.06332523 435.34830362 -71.89554766 434.25409666 -69.34039307 432.42434692 C-66.48635807 432.05027368 -64.02472544 431.91710294 -61.175354 431.97024536 C-60.35546997 431.96966125 -59.53558594 431.96907715 -58.69085693 431.96847534 C-55.98506096 431.97125863 -53.28037121 432.00236144 -50.57476807 432.03372192 C-48.69719037 432.04118346 -46.81960487 432.04687681 -44.9420166 432.0508728 C-40.00330048 432.06613601 -35.06505587 432.1054238 -30.12652588 432.14968872 C-25.08590066 432.19062657 -20.04519916 432.20888065 -15.00445557 432.22903442 C-5.11622772 432.27191734 4.77165038 432.34017705 14.65960693 432.42434692 C14.62818604 431.18346313 14.62818604 431.18346313 14.59613037 429.91751099 C14.51299074 426.16991322 14.46095163 422.42250943 14.40960693 418.67434692 C14.37609131 417.3723938 14.34257568 416.07044067 14.30804443 414.72903442 C14.29515381 413.4786438 14.28226318 412.22825317 14.26898193 410.93997192 C14.23756104 409.21182251 14.23756104 409.21182251 14.20550537 407.44876099 C14.65960693 404.42434692 14.65960693 404.42434692 16.37249756 402.0552063 C19.02521716 400.16364279 20.41524646 399.89372157 23.64398193 399.81497192 C25.0458374 399.76663208 25.0458374 399.76663208 26.47601318 399.71731567 C27.44409912 399.70313599 28.41218506 399.6889563 29.40960693 399.67434692 C30.88493896 399.62987427 30.88493896 399.62987427 32.39007568 399.58450317 C34.81333469 399.51392281 37.23563847 399.46116991 39.65960693 399.42434692 C39.98718994 398.38101196 40.31477295 397.337677 40.65228271 396.26272583 C50.06731367 366.34050673 59.88227438 336.55562065 69.80532074 306.79872894 C70.76792211 303.91188476 71.72995273 301.02485089 72.69189453 298.13778687 C80.81761088 273.75663024 89.04813313 249.41308399 97.37543583 225.10006809 C99.64216229 218.48039881 101.89475412 211.85599526 104.14007568 205.22903442 C115.67235028 171.21153042 115.67235028 171.21153042 121.32455444 155.18759155 C121.79230765 153.86134926 122.25879077 152.53465823 122.72390747 151.20748901 C123.35165299 149.41882605 123.98590682 147.63245111 124.62054443 145.84622192 C124.96907471 144.86234497 125.31760498 143.87846802 125.67669678 142.86477661 C126.65960693 140.42434692 126.65960693 140.42434692 128.65960693 137.42434692 C128.76920176 135.38702448 128.76920176 135.38702448 128.45257568 133.18606567 C128.36040771 132.36557739 128.26823975 131.54508911 128.17327881 130.69973755 C128.06564209 129.84573364 127.95800537 128.99172974 127.84710693 128.11184692 C127.7030542 126.84824341 127.7030542 126.84824341 127.55609131 125.55911255 C127.04313473 121.15594839 126.40489314 116.79488159 125.65960693 112.42434692 C124.46102051 112.01821167 123.26243408 111.61207642 122.02752686 111.19363403 C99.70852256 103.6276898 77.40229063 96.03105306 55.16964722 88.21444702 C44.35393009 84.41317884 33.51539428 80.68825187 22.64282799 77.05262566 C20.70202061 76.40333736 18.76165212 75.75275453 16.82142639 75.10173035 C15.53238281 74.66930063 14.24333557 74.23688179 12.95428467 73.80447388 C12.31762406 73.59087754 11.68096346 73.37728121 11.02501011 73.15721226 C6.62823202 71.6834778 2.22648932 70.22517225 -2.17608643 68.76882935 C-4.48883419 67.9943423 -6.80142339 67.21938153 -9.11383057 66.44387817 C-10.17637558 66.09656647 -11.23892059 65.74925476 -12.33366394 65.39141846 C-22.62396705 61.91557759 -22.62396705 61.91557759 -25.34039307 58.42434692 C-26.75249787 51.72595791 -24.39488343 45.35903305 -22.19976807 39.09622192 C-21.87631409 38.14418884 -21.55286011 37.19215576 -21.21960449 36.21127319 C-20.53684876 34.21231044 -19.8473437 32.21564142 -19.15142822 30.22122192 C-18.09065086 27.17508722 -17.05590711 24.12098695 -16.02398682 21.06497192 C-15.3549418 19.11652995 -14.68441919 17.16859458 -14.01226807 15.22122192 C-13.70480652 14.31281555 -13.39734497 13.40440918 -13.08056641 12.46847534 C-8.50958908 -0.50487587 -8.50958908 -0.50487587 0 0 Z M3.65960693 19.42434692 C1.05017691 25.67162939 -1.33982619 31.99990027 -3.65289307 38.36184692 C-3.9314917 39.10748901 -4.21009033 39.8531311 -4.49713135 40.62136841 C-6.14509593 44.96173541 -6.14509593 44.96173541 -5.34039307 49.42434692 C-3.19743327 50.53776845 -3.19743327 50.53776845 -0.4932251 51.36282349 C0.55077454 51.71517059 1.59477417 52.0675177 2.67041016 52.43054199 C3.81926697 52.80490387 4.96812378 53.17926575 6.15179443 53.56497192 C7.93888824 54.16337387 7.93888824 54.16337387 9.76208496 54.77386475 C12.33680165 55.63459188 14.91251014 56.49097605 17.4909668 57.34030151 C21.55560387 58.67942237 25.61475759 60.03460069 29.67279053 61.39358521 C31.03720039 61.85040444 32.40161079 62.30722207 33.76602173 62.76403809 C34.44146908 62.99022198 35.11691643 63.21640587 35.81283188 63.44944382 C37.86840104 64.13718115 39.92447671 64.82338458 41.98068237 65.50921631 C54.30975663 69.62402863 66.58482954 73.88558667 78.84512329 78.20050049 C88.63181065 81.64364965 98.43172601 85.03419895 108.27288818 88.31887817 C110.18943632 88.96148716 112.10594082 89.60422631 114.0223999 90.24710083 C117.65141719 91.46412003 121.28500893 92.66589218 124.92181396 93.85940552 C126.55205984 94.40519431 128.18211624 94.95154949 129.81195068 95.49856567 C130.55141434 95.73646317 131.29087799 95.97436066 132.05274963 96.21946716 C136.17120006 97.61847524 139.20705641 98.76135486 141.65960693 102.42434692 C142.50890343 105.50099267 142.86765797 108.58929145 143.22210693 111.75637817 C143.34013672 112.66635056 143.4581665 113.57632294 143.57977295 114.51387024 C143.95591203 117.41975314 144.31012727 120.32764534 144.65960693 123.23684692 C145.00969788 126.13522382 145.36506264 129.03234273 145.73944092 131.9276886 C145.97205977 133.72676322 146.19107295 135.52766732 146.39422607 137.33030701 C147.27176261 144.12191575 149.06341209 149.01811755 154.22210693 153.79934692 C159.07799607 157.03660635 164.00250581 157.03014673 169.65960693 156.42434692 C172.83103623 155.0627959 172.83103623 155.0627959 175.65960693 152.42434692 C176.31573975 151.87262817 176.97187256 151.32090942 177.64788818 150.75247192 C184.38384465 144.91086934 190.6077653 138.54080375 196.85809326 132.1892395 C197.56474121 131.47405151 198.27138916 130.75886353 198.99945068 130.02200317 C199.6322998 129.37755249 200.26514893 128.73310181 200.91717529 128.06912231 C204.23803407 124.93438425 206.59253565 123.96242226 211.15179443 124.08987427 C216.68940891 124.8284385 221.90909089 126.89749417 227.15960693 128.73684692 C228.48035842 129.18960196 229.80149359 129.64123907 231.12298584 130.09182739 C234.6026897 131.28147508 238.0772552 132.4854681 241.55084229 133.69284058 C244.99838911 134.88875516 248.4501477 136.07235975 251.90179443 137.25637817 C255.95024176 138.64580829 259.99835318 140.03616068 264.04437256 141.43264771 C275.88670133 145.51850793 287.76400015 149.49626133 299.65960693 153.42434692 C300.94506181 149.47453611 302.22671079 145.52351311 303.50482178 141.57131958 C303.94029584 140.22657826 304.37681448 138.88217475 304.81439209 137.53811646 C305.4426222 135.60784026 306.06710447 133.67638646 306.69085693 131.74465942 C307.06790771 130.58208618 307.4449585 129.41951294 307.83343506 128.22171021 C308.75402182 125.59079995 308.75402182 125.59079995 308.65960693 123.42434692 C299.24398679 120.18829796 289.82798565 116.95335921 280.41168213 113.71929932 C278.87057905 113.18999978 277.32948203 112.6606826 275.78839111 112.13134766 C256.08909472 105.3651422 236.38353185 98.61849385 216.65960693 91.92434692 C201.65049091 86.83022917 186.675305 81.64735337 171.71942139 76.39920044 C154.24479171 70.27314102 136.70480582 64.34424219 119.15960693 58.42434692 C100.56837321 52.15143269 81.98862371 45.853023 63.47210693 39.36184692 C62.20863937 38.91903885 62.20863937 38.91903885 60.91964722 38.46728516 C59.2534364 37.8832648 57.5872325 37.29922471 55.92103577 36.71516418 C54.70494881 36.28890495 54.70494881 36.28890495 53.46429443 35.85403442 C52.6660173 35.57417191 51.86774017 35.29430939 51.04527283 35.00596619 C42.2619691 31.92966545 33.46613195 28.89000474 24.66384888 25.86846924 C22.96947154 25.28648597 21.27547295 24.7033987 19.58187866 24.11914062 C17.2741812 23.32330989 14.96516709 22.53143327 12.65570068 21.74075317 C11.97158112 21.50409943 11.28746155 21.26744568 10.58261108 21.02362061 C7.19796773 19.82276208 7.19796773 19.82276208 3.65960693 19.42434692 Z M356.65960693 29.42434692 C354.33651554 35.23207541 352.14520315 40.72027694 350.2880249 46.63162231 C350.0818605 47.28408684 349.87569611 47.93655136 349.6632843 48.60878754 C348.98914552 50.74539869 348.32044871 52.88366996 347.65179443 55.02200317 C347.16948152 56.55433263 346.68681689 58.08655142 346.2038269 59.6186676 C345.17772991 62.87611062 344.15402123 66.13429034 343.13226318 69.39309692 C341.51235098 74.55965488 339.8871518 79.72454039 338.26116943 84.88919067 C336.07146807 91.84579606 333.88384146 98.80305008 331.69769287 105.76077271 C328.0456192 117.38273678 324.37705969 128.99946995 320.70541382 140.61526489 C318.93514584 146.21664507 317.16664423 151.81858293 315.39788818 157.42044067 C312.54544173 166.45356333 309.69241411 175.48650228 306.83903694 184.51933098 C304.65448736 191.43488286 302.47009642 198.35048485 300.28579521 205.26611519 C298.68555271 210.33253341 297.08510193 215.39888578 295.4844923 220.46518803 C294.4816398 223.63963463 293.47899575 226.81414704 292.47640419 229.98867607 C292.01277476 231.45653404 291.54906293 232.92436598 291.08525658 234.39216805 C290.02639904 237.74319215 288.968873 241.09461897 287.9145813 244.44708252 C287.02897871 247.261248 286.13236005 250.07168752 285.23104858 252.88085938 C284.7674895 254.33666483 284.30397694 255.7924851 283.84051514 257.24832153 C283.51228524 258.2618197 283.51228524 258.2618197 283.17742443 259.29579258 C282.27856827 262.13215867 281.65960693 264.42744546 281.65960693 267.42434692 C285.53225602 269.30534791 287.54182793 269.65680106 291.65960693 268.42434692 C294.25996053 267.09884566 296.70374395 265.56125422 299.15960693 263.98684692 C300.21692017 263.31576904 300.21692017 263.31576904 301.29559326 262.63113403 C308.06166792 258.27328444 314.42621832 253.5078126 320.65960693 248.42434692 C321.4734082 247.76499146 321.4734082 247.76499146 322.3036499 247.09231567 C346.43034508 227.44558473 362.72357875 204.49456736 373.65960693 175.42434692 C373.93111572 174.70488892 374.20262451 173.98543091 374.48236084 173.24417114 C379.39481015 159.96933129 382.76756925 146.26510895 385.65960693 132.42434692 C385.98155029 130.89269897 385.98155029 130.89269897 386.30999756 129.33010864 C391.82008252 101.87151857 392.4696829 70.88897895 386.65960693 43.42434692 C386.37028962 41.97387689 386.0812241 40.52335661 385.79241943 39.07278442 C385.14054414 35.83838404 384.40247411 32.64343803 383.65960693 29.42434692 C374.74960693 29.42434692 365.83960693 29.42434692 356.65960693 29.42434692 Z M211.65960693 141.42434692 C208.81090093 143.57583331 206.97126522 145.00086447 206.19251573 148.55776083 C206.02829909 151.27198695 206.01766557 153.94940018 206.05833435 156.66844177 C206.05406223 157.7099362 206.0497901 158.75143062 206.04538852 159.82448548 C206.03714294 163.31955247 206.0646711 166.81342342 206.09197998 170.30838013 C206.0933901 172.81154858 206.09259918 175.3147191 206.08976746 177.81788635 C206.08862832 183.20966831 206.10282296 188.60107693 206.13095665 193.99276161 C206.1716063 201.7881477 206.18461532 209.58338754 206.19089661 217.37886813 C206.20183753 230.02667905 206.23510613 242.67432866 206.28240967 255.322052 C206.32831056 267.60752557 206.36369984 279.8929553 206.38494873 292.17849731 C206.38626235 292.93588057 206.38757597 293.69326383 206.38892939 294.4735981 C206.39545462 298.27319875 206.40177315 302.07279971 206.40798891 305.87240088 C206.4598156 337.38983353 206.54824715 368.90706572 206.65960693 400.42434692 C207.49105225 400.46172974 208.32249756 400.49911255 209.17913818 400.53762817 C210.80915771 400.63624146 210.80915771 400.63624146 212.47210693 400.73684692 C213.55105225 400.79485474 214.62999756 400.85286255 215.74163818 400.91262817 C218.65960693 401.42434692 218.65960693 401.42434692 221.65960693 404.42434692 C221.98960693 413.66434692 222.31960693 422.90434692 222.65960693 432.42434692 C270.17960693 432.42434692 317.69960693 432.42434692 366.65960693 432.42434692 C366.65960693 413.94434692 366.65960693 395.46434692 366.65960693 376.42434692 C362.69960693 376.09434692 358.73960693 375.76434692 354.65960693 375.42434692 C350.94613141 371.7108714 351.28108251 370.63476093 351.27142334 365.52200317 C351.2635379 364.47518875 351.2635379 364.47518875 351.25549316 363.40722656 C351.24228847 361.10020572 351.25103239 358.79387479 351.26116943 356.48684692 C351.25914882 354.88406237 351.25623749 353.28127872 351.25247192 351.67849731 C351.24804796 348.31927742 351.25448181 344.96029682 351.26849365 341.60110474 C351.28558578 337.29327853 351.27574496 332.98601303 351.25777626 328.6782074 C351.24694028 325.36851775 351.25038387 322.05896122 351.25815964 318.74926758 C351.26016217 317.16082696 351.2577005 315.5723743 351.25072098 313.98394775 C351.2431093 311.76453596 351.25470548 309.54603458 351.27142334 307.32669067 C351.27381012 306.06332886 351.2761969 304.79996704 351.27865601 303.49832153 C351.65960693 300.42434692 351.65960693 300.42434692 354.65960693 297.42434692 C358.61960693 297.09434692 362.57960693 296.76434692 366.65960693 296.42434692 C366.65960693 272.99434692 366.65960693 249.56434692 366.65960693 225.42434692 C365.33960693 227.07434692 364.01960693 228.72434692 362.65960693 230.42434692 C360.85967215 232.41741927 359.05158444 234.39647975 357.22210693 236.36184692 C354.40989052 239.38468704 351.64133748 242.41442063 349.02288818 245.60794067 C345.8847122 249.34781651 342.41268819 252.31695706 338.65960693 255.42434692 C338.13576416 255.86053345 337.61192139 256.29671997 337.07220459 256.74612427 C328.56055017 263.80287684 319.81983732 270.24370712 310.51361084 276.20999146 C308.62018897 277.45016532 306.77010949 278.7398188 304.92132568 280.04544067 C303.70908995 280.88008168 302.49685051 281.71471731 301.28460693 282.54934692 C300.22499756 283.29442505 299.16538818 284.03950317 298.07366943 284.80715942 C292.07661569 287.64786909 286.93870608 287.00826153 280.72991943 284.99856567 C279.07578216 284.38480746 277.42726544 283.75569651 275.78460693 283.11184692 C274.94413818 282.80311646 274.10366943 282.49438599 273.23773193 282.17630005 C266.27917465 279.53627233 266.27917465 279.53627233 263.65960693 276.42434692 C262.59100079 267.91928401 265.55842191 260.33367063 268.19085693 252.36575317 C268.66613179 250.89429091 269.14018708 249.42243423 269.61309814 247.95021057 C270.86120464 244.07506215 272.12457417 240.20506697 273.3916626 236.33609009 C274.64808462 232.49252917 275.89207523 228.64495926 277.13616943 224.7973938 C277.62664003 223.28106433 278.11711852 221.76473742 278.60760498 220.24841309 C278.96923233 219.13022753 278.96923233 219.13022753 279.33816528 217.98945236 C280.06266033 215.75063125 280.7883925 213.5122142 281.51434326 211.27386475 C284.52146324 201.99504515 287.48834927 192.70523618 290.37835693 183.38919067 C290.71564819 182.31117691 291.05293945 181.23316315 291.40045166 180.1224823 C291.85261047 178.65336647 291.85261047 178.65336647 292.31390381 177.15457153 C292.57586548 176.30737045 292.83782715 175.46016937 293.10772705 174.58729553 C293.78322237 172.31190947 293.78322237 172.31190947 293.65960693 169.42434692 C279.14414311 163.76727598 264.37507365 158.84034569 249.61883545 153.85769653 C246.90631897 152.94085876 244.19489177 152.02082308 241.48346615 151.10076523 C238.8492396 150.2072483 236.21444618 149.31541306 233.57946968 148.42411041 C231.73197587 147.7989575 229.88486577 147.17267096 228.0377655 146.5463562 C222.60732299 144.714339 217.19205849 142.9230021 211.65960693 141.42434692 Z M137.65960693 161.42434692 C136.20746728 165.37188892 134.76525107 169.32286958 133.33221436 173.27737427 C132.84308255 174.62277103 132.35122903 175.96718147 131.85662842 177.31057739 C131.14708966 179.23921333 130.44734197 181.17115827 129.74945068 183.10403442 C129.32526855 184.26660767 128.90108643 185.42918091 128.46405029 186.62698364 C127.33965614 189.3486029 127.33965614 189.3486029 128.65960693 191.42434692 C129.18167725 190.95126099 129.70374756 190.47817505 130.24163818 189.99075317 C135.46295268 185.29979987 140.80881956 180.80567864 146.27679443 176.40481567 C148.18646966 174.8175938 149.94934884 173.21955161 151.65960693 171.42434692 C151.06792725 171.03762817 150.47624756 170.65090942 149.86663818 170.25247192 C149.07644287 169.73169067 148.28624756 169.21090942 147.47210693 168.67434692 C146.3061499 167.9086438 146.3061499 167.9086438 145.11663818 167.12747192 C142.53167087 165.33566628 140.10655433 163.39901387 137.65960693 161.42434692 Z M162.60736084 184.80862427 C160.00959444 186.96355257 157.39854952 189.10156621 154.78460693 191.23684692 C153.940271 191.92778442 153.09593506 192.61872192 152.22601318 193.33059692 C150.38274599 194.83438872 148.53597197 196.33388587 146.68695068 197.83059692 C145.70855225 198.62465942 144.73015381 199.41872192 143.72210693 200.23684692 C142.40919678 201.29838989 142.40919678 201.29838989 141.06976318 202.38137817 C138.82972862 204.28014329 136.7360298 206.34792406 134.65960693 208.42434692 C153.13960693 208.42434692 171.61960693 208.42434692 190.65960693 208.42434692 C190.65960693 193.57434692 190.65960693 178.72434692 190.65960693 163.42434692 C183.08235384 163.42434692 168.27670969 180.09754938 162.60736084 184.80862427 Z M116.65960693 224.42434692 C113.03023772 233.13483303 109.75024197 241.63293105 106.78460693 250.54934692 C106.36952881 251.76622192 105.95445068 252.98309692 105.52679443 254.23684692 C105.14007568 255.39442505 104.75335693 256.55200317 104.35491943 257.74465942 C104.00445557 258.78896118 103.6539917 259.83326294 103.29290771 260.90921021 C102.37528985 263.39910704 102.37528985 263.39910704 103.65960693 265.42434692 C104.56948364 264.85272827 104.56948364 264.85272827 105.4977417 264.26956177 C116.80364408 257.1719616 128.12580047 250.10562878 139.53460693 243.17434692 C140.4738501 242.60353394 141.41309326 242.03272095 142.38079834 241.4446106 C146.95048841 238.66995712 151.52426397 235.9021819 156.10101318 233.13919067 C157.7664012 232.13011477 159.431767 231.12100218 161.09710693 230.11184692 C161.86716064 229.64939575 162.63721436 229.18694458 163.43060303 228.71047974 C165.19052331 227.64249742 166.92801252 226.53766917 168.65960693 225.42434692 C168.65960693 225.09434692 168.65960693 224.76434692 168.65960693 224.42434692 C151.49960693 224.42434692 134.33960693 224.42434692 116.65960693 224.42434692 Z M185.12054443 234.21340942 C183.6783252 235.12074829 183.6783252 235.12074829 182.20697021 236.04641724 C181.16009033 236.70738403 180.11321045 237.36835083 179.03460693 238.04934692 C170.65276659 243.31606834 162.2467004 248.53723824 153.78460693 253.67434692 C152.8452832 254.24515991 151.90595947 254.8159729 150.93817139 255.40408325 C146.36864756 258.17887719 141.79489054 260.94654778 137.21820068 263.70950317 C135.55281266 264.71857908 133.88744687 265.72769166 132.22210693 266.73684692 C131.45205322 267.1992981 130.68199951 267.66174927 129.88861084 268.13821411 C128.12869056 269.20619643 126.39120134 270.31102467 124.65960693 271.42434692 C124.65960693 271.75434692 124.65960693 272.08434692 124.65960693 272.42434692 C146.43960693 272.42434692 168.21960693 272.42434692 190.65960693 272.42434692 C190.65960693 258.89434692 190.65960693 245.36434692 190.65960693 231.42434692 C188.65286248 231.42434692 186.74485613 233.18744768 185.12054443 234.21340942 Z M94.65960693 288.42434692 C92.27039658 294.39737282 90.02398191 300.09906738 88.08148193 306.18215942 C87.86518127 306.85608734 87.64888062 307.53001526 87.42602539 308.22436523 C86.75052024 310.33163362 86.07996361 312.44043583 85.40960693 314.54934692 C84.94639549 315.99736927 84.48285613 317.44528676 84.01898193 318.89309692 C82.8954128 322.4023146 81.77626869 325.91292427 80.65960693 329.42434692 C85.45701384 327.96348394 89.8536961 325.96411655 94.31732178 323.70901489 C95.0594693 323.33808716 95.80161682 322.96715942 96.56625366 322.58499146 C99.00293438 321.36595805 101.43673703 320.14129293 103.87054443 318.91653442 C105.56573268 318.06707396 107.26109866 317.21796808 108.95663452 316.36920166 C113.40697244 314.14022455 117.85488628 311.90645192 122.30230713 309.67166138 C126.84572997 307.38969919 131.39143624 305.11229534 135.93695068 302.83450317 C144.84673949 298.36890147 153.75397326 293.89822868 162.65960693 289.42434692 C162.65960693 289.09434692 162.65960693 288.76434692 162.65960693 288.42434692 C140.21960693 288.42434692 117.77960693 288.42434692 94.65960693 288.42434692 Z M180.9052124 298.1880188 C180.10512756 298.58791519 179.30504272 298.98781158 178.48071289 299.39982605 C175.82749385 300.72713416 173.17715585 302.06009309 170.52679443 303.39309692 C168.69136693 304.31267505 166.85576288 305.23190088 165.01998901 306.15078735 C160.18161702 308.57379704 155.34566627 311.00160144 150.51019287 313.4303894 C145.57836934 315.90651848 140.64428661 318.37813686 135.71038818 320.85012817 C126.02456948 325.70377222 116.34130097 330.56248113 106.65960693 335.42434692 C106.65960693 335.75434692 106.65960693 336.08434692 106.65960693 336.42434692 C134.37960693 336.42434692 162.09960693 336.42434692 190.65960693 336.42434692 C190.65960693 322.56434692 190.65960693 308.70434692 190.65960693 294.42434692 C187.11348051 294.42434692 184.02384215 296.6139425 180.9052124 298.1880188 Z M366.65960693 312.42434692 C366.65960693 328.26434692 366.65960693 344.10434692 366.65960693 360.42434692 C371.93960693 360.42434692 377.21960693 360.42434692 382.65960693 360.42434692 C382.65960693 344.58434692 382.65960693 328.74434692 382.65960693 312.42434692 C377.37960693 312.42434692 372.09960693 312.42434692 366.65960693 312.42434692 Z M72.65960693 352.42434692 C68.36960693 365.62434692 64.07960693 378.82434692 59.65960693 392.42434692 C60.31960693 392.75434692 60.97960693 393.08434692 61.65960693 393.42434692 C64.42459308 392.40002164 67.08371376 391.3031535 69.77679443 390.11184692 C70.60889938 389.751418 71.44100433 389.39098907 72.29832458 389.01963806 C74.1020179 388.23752251 75.90420084 387.45191676 77.70504761 386.66326904 C82.48133106 384.57197406 87.26855699 382.50597227 92.05413818 380.43606567 C93.02711349 380.01435593 94.00008881 379.59264618 95.00254822 379.15815735 C104.37456336 375.10085764 113.789836 371.15163703 123.22210693 367.23684692 C123.93630798 366.93995972 124.65050903 366.64307251 125.38635254 366.33718872 C135.80058097 362.00821026 146.22916527 357.71408395 156.65960693 353.42434692 C156.65960693 353.09434692 156.65960693 352.76434692 156.65960693 352.42434692 C128.93960693 352.42434692 101.21960693 352.42434692 72.65960693 352.42434692 Z M181.22601318 360.51028442 C180.45753052 360.83885437 179.68904785 361.16742432 178.89727783 361.50595093 C177.22058119 362.22312341 175.5445543 362.94186322 173.86911011 363.66195679 C169.34429478 365.60622356 164.81422948 367.53818748 160.28460693 369.47122192 C159.33852066 369.87527252 158.39243439 370.27932312 157.41767883 370.69561768 C146.87265367 375.19501319 136.2993373 379.62630929 125.72210693 384.04934692 C124.8369339 384.41985168 123.95176086 384.79035645 123.0397644 385.17208862 C111.59569665 389.96197194 100.13656036 394.71380281 88.65960693 399.42434692 C88.65960693 399.75434692 88.65960693 400.08434692 88.65960693 400.42434692 C122.31960693 400.42434692 155.97960693 400.42434692 190.65960693 400.42434692 C190.65960693 386.23434692 190.65960693 372.04434692 190.65960693 357.42434692 C187.27438533 357.42434692 184.29500498 359.18378382 181.22601318 360.51028442 Z M30.65960693 416.42434692 C30.65960693 421.70434692 30.65960693 426.98434692 30.65960693 432.42434692 C88.73960693 432.42434692 146.81960693 432.42434692 206.65960693 432.42434692 C206.65960693 427.14434692 206.65960693 421.86434692 206.65960693 416.42434692 C148.57960693 416.42434692 90.49960693 416.42434692 30.65960693 416.42434692 Z M-57.34039307 448.42434692 C-57.34039307 453.70434692 -57.34039307 458.98434692 -57.34039307 464.42434692 C90.49960693 464.42434692 238.33960693 464.42434692 390.65960693 464.42434692 C390.65960693 459.14434692 390.65960693 453.86434692 390.65960693 448.42434692 C242.81960693 448.42434692 94.97960693 448.42434692 -57.34039307 448.42434692 Z " fill="#000000" transform="translate(89.34039306640625,15.575653076171875)"/>
<path d="M0 0 C6.23568111 0.54223314 11.24033681 2.55411563 17 5 C15.35 10.28 13.7 15.56 12 21 C6.05064416 19.7915371 0.63555833 18.25422333 -5 16 C-3.41078475 10.63904723 -1.81027062 5.29156027 0 0 Z " fill="#000000" transform="translate(250,139)"/>
<path d="M0 0 C5.76044212 0.60636233 10.72014369 2.75658279 16 5 C15.54548816 6.73017508 15.08621143 8.45909877 14.625 10.1875 C14.24214844 11.63189453 14.24214844 11.63189453 13.8515625 13.10546875 C13.05233704 15.82210207 12.0968638 18.39137175 11 21 C5.30860098 19.90301833 0.25432063 18.45946923 -5 16 C-3.90301833 10.30860098 -2.45946923 5.25432063 0 0 Z " fill="#000000" transform="translate(400,229)"/>
</svg>
