<?xml version="1.0" encoding="UTF-8"?>
<svg version="1.1" xmlns="http://www.w3.org/2000/svg" width="512" height="512">
<path d="M0 0 C0.79357588 -0.00581376 1.58715175 -0.01162753 2.40477538 -0.01761746 C5.0805692 -0.03228793 7.75545581 -0.01829974 10.4312439 -0.00457001 C12.36225671 -0.00917614 14.29326602 -0.01552711 16.22426796 -0.02347898 C21.54353944 -0.04023491 26.86252524 -0.03189753 32.18179798 -0.01953411 C37.91330246 -0.01051151 43.64475663 -0.02443945 49.37625122 -0.0354538 C60.60937148 -0.05327348 71.84238505 -0.04938368 83.07550955 -0.03780323 C92.20201082 -0.02878274 101.32848212 -0.02753891 110.45498657 -0.0318985 C111.75215878 -0.03251143 113.04933099 -0.03312436 114.38581145 -0.03375587 C117.0206984 -0.03503472 119.65558534 -0.03633158 122.29047227 -0.03764623 C146.31307068 -0.04873648 170.33561135 -0.03722053 194.35820046 -0.01627585 C216.29778132 0.00270723 238.23726932 0.00100875 260.17684937 -0.01811981 C284.81423438 -0.03952861 309.45156325 -0.04796341 334.08895683 -0.03567076 C336.71434402 -0.03439651 339.33973121 -0.03313903 341.96511841 -0.0318985 C343.90290962 -0.03097285 343.90290962 -0.03097285 345.87984812 -0.03002849 C354.99914521 -0.02656964 364.11840942 -0.03241546 373.23770142 -0.04181671 C384.34569701 -0.05301605 395.45357949 -0.0500402 406.56156206 -0.02869374 C412.232895 -0.0181555 417.9040391 -0.01410864 423.57537079 -0.02729034 C428.76167179 -0.03916271 433.94760796 -0.0327372 439.13387561 -0.01138014 C441.01537232 -0.00689212 442.89689952 -0.00922924 444.77837682 -0.01888329 C447.32606453 -0.03095834 449.8724847 -0.01866395 452.42010498 0 C453.1592872 -0.00936466 453.89846942 -0.01872933 454.66005111 -0.02837777 C458.09477519 0.02229312 459.90232293 0.26757809 462.66457558 2.38405275 C464.56572968 4.99110453 464.72515755 6.42432917 464.74130249 9.63227081 C464.74952026 10.65345001 464.75773804 11.67462921 464.76620483 12.72675323 C464.74767456 13.82865997 464.72914429 14.93056671 464.71005249 16.06586456 C464.69796753 17.21611115 464.68588257 18.36635773 464.6734314 19.55146027 C463.92533025 52.98251358 455.01340594 87.16587602 439.1968689 116.64740753 C438.20933681 118.50471057 437.25915351 120.3773364 436.31552124 122.25727081 C422.17829257 150.09684801 400.58390601 175.15701607 376.21005249 194.50336456 C374.75985718 195.67898956 374.75985718 195.67898956 373.28036499 196.87836456 C364.07353434 204.18760416 354.28860123 210.46496133 344.21005249 216.50336456 C343.5790564 216.88234894 342.9480603 217.26133331 342.29794312 217.65180206 C307.66639299 238.10017572 266.74678601 246.96304916 226.89755249 246.87836456 C225.93161163 246.87782074 224.96567078 246.87727692 223.97045898 246.87671661 C208.07327555 246.83569247 192.79049569 245.91093819 177.21005249 242.50336456 C176.22391968 242.28905792 175.23778687 242.07475128 174.22177124 241.8539505 C154.69278632 237.45800927 135.72181436 230.96233784 118.06600952 221.49018097 C116.20870648 220.50264889 114.33608065 219.55246559 112.45614624 218.60883331 C91.33555665 207.88357687 73.18786184 192.85391495 56.21005249 176.50336456 C55.41598999 175.75055206 54.62192749 174.99773956 53.80380249 174.22211456 C34.93914009 155.95633033 20.12970024 132.2499734 9.21005249 108.50336456 C8.87908569 107.78632355 8.5481189 107.06928253 8.2071228 106.330513 C-0.50775293 87.19114478 -6.3188265 67.22600224 -9.78994751 46.50336456 C-10.01553345 45.22074738 -10.24111938 43.93813019 -10.47354126 42.61664581 C-11.77723834 34.01224511 -12.04826757 25.44602 -12.16494751 16.75336456 C-12.19105103 15.60916046 -12.21715454 14.46495636 -12.24404907 13.28607941 C-12.24630493 12.20793976 -12.24856079 11.12980011 -12.25088501 10.01898956 C-12.25910278 9.05251495 -12.26732056 8.08604034 -12.27578735 7.09027863 C-11.00441552 0.32070278 -5.95081701 -0.07539062 0 0 Z M5.21005249 16.50336456 C5.19265226 28.01454753 5.19265226 28.01454753 6.33505249 39.31586456 C6.46702026 40.19911407 6.59898804 41.08236359 6.73495483 41.99237823 C12.13887593 75.98833292 24.8581322 108.6383902 45.21005249 136.50336456 C45.62496948 137.07232452 46.03988647 137.64128448 46.46737671 138.22748566 C60.10658044 156.75393963 76.440283 174.11150985 95.21005249 187.50336456 C95.79432007 187.92134308 96.37858765 188.33932159 96.9805603 188.76996613 C146.57643434 223.83422216 206.85637757 236.98231817 266.55770874 226.78461456 C311.93243589 218.41059571 351.85503071 195.96175702 384.21005249 163.50336456 C384.96544312 162.78277863 385.72083374 162.06219269 386.49911499 161.31977081 C420.10548287 128.89355966 439.27481771 83.04312303 446.21005249 37.50336456 C446.34282593 36.63324738 446.47559937 35.76313019 446.61239624 34.86664581 C447.42418995 28.67254858 447.21005249 22.86262644 447.21005249 16.50336456 C301.35005249 16.50336456 155.49005249 16.50336456 5.21005249 16.50336456 Z " fill="#000000" transform="translate(29.789947509765625,247.49663543701172)"/>
<path d="M0 0 C3.59866517 3.73951313 5.39130101 7.87625598 7.125 12.6875 C7.37636719 13.34427734 7.62773437 14.00105469 7.88671875 14.67773438 C17.52801274 40.80008851 9.95563668 66.53301395 1.76757812 91.85668945 C-1.34146937 101.57550499 -3.39574256 111.01736595 -3.375 121.25 C-3.37411377 122.05993408 -3.37322754 122.86986816 -3.37231445 123.7043457 C-3.18848499 133.21028864 -0.77076065 141.77024006 2.8125 150.5625 C4.12872258 154.372618 4.37523231 156.21811116 3 160 C0.40418092 162.81831785 -1.23008205 163.85564038 -5 164.5625 C-9.09804707 163.79411617 -10.30877464 162.15580703 -13 159 C-14.32078326 156.51876979 -15.26491621 153.96398053 -16.1875 151.3125 C-16.43435547 150.65572266 -16.68121094 149.99894531 -16.93554688 149.32226562 C-24.22837403 129.19406267 -21.95052295 108.10959486 -16 88 C-15.67338379 86.8852832 -15.34676758 85.77056641 -15.01025391 84.62207031 C-13.61595949 79.87875441 -12.21935807 75.1369751 -10.76757812 70.41088867 C-7.97624982 61.27557034 -5.60300222 52.41510889 -5.625 42.8125 C-5.62588623 42.09271973 -5.62677246 41.37293945 -5.62768555 40.63134766 C-5.8184062 31.79236524 -8.00253916 23.40303909 -11.609375 15.33203125 C-13.42843806 10.97343353 -13.53519759 8.66386475 -13 4 C-9.37724092 -0.87198634 -5.73681918 -1.63909119 0 0 Z " fill="#000000" transform="translate(199,67)"/>
<path d="M0 0 C3.92307295 2.9925528 5.44343033 6.79363643 7.0625 11.3125 C7.31854004 12.01745605 7.57458008 12.72241211 7.83837891 13.44873047 C16.68995482 38.69628724 12.01367777 61.08662319 4.31604004 85.75430298 C1.09812011 96.07964503 -1.87855219 106.19938955 -3 117 C-3.08765625 117.80566406 -3.1753125 118.61132812 -3.265625 119.44140625 C-3.79248799 129.65878488 -0.81493257 140.62664801 3.1953125 149.890625 C4.43546327 153.14150565 4.60235884 155.58663321 4 159 C1.875 161.9375 1.875 161.9375 -1 164 C-4.98779823 164.56968546 -7.6263393 164.16448726 -11 162 C-21.14875444 146.33433545 -23.03129919 124.08652933 -19.83203125 106.16015625 C-19.63795433 105.06975288 -19.63795433 105.06975288 -19.43995667 103.95732117 C-17.63270992 94.39802932 -14.60909064 85.19402319 -11.68579102 75.93041992 C-5.22703059 55.35408109 -1.09003229 34.09693089 -11.63671875 13.859375 C-13.67066189 9.59333954 -13.11750386 7.5445157 -12 3 C-9.12680086 -0.67769491 -4.37294127 -1.08469442 0 0 Z " fill="#000000" transform="translate(260,18)"/>
<path d="M0 0 C3.68134708 3.81822692 5.37314009 7.85591516 7.125 12.75 C7.37636719 13.41515625 7.62773437 14.0803125 7.88671875 14.765625 C15.18284145 34.62941455 12.88837671 55.1004263 7 75 C6.67338379 76.1147168 6.34676758 77.22943359 6.01025391 78.37792969 C4.61595949 83.12124559 3.21935807 87.8630249 1.76757812 92.58911133 C-1.07745493 101.90019186 -3.39602973 110.84396297 -3.375 120.625 C-3.37411377 121.38917236 -3.37322754 122.15334473 -3.37231445 122.94067383 C-3.18415705 132.20432177 -1.17284453 141.25974652 2.63671875 149.7265625 C4.31250897 153.75037969 4.25436989 155.84489973 3 160 C0.87062173 162.58106457 -0.5866356 163.7829986 -3.93359375 164.296875 C-6.98284475 164.22770484 -9.12166828 163.76706058 -11.44921875 161.734375 C-22.05292727 146.88249303 -23.08961129 122.79947602 -20.421875 105.5390625 C-18.26753824 94.38432682 -14.54739745 83.46847392 -11.17407227 72.63061523 C-8.06434749 62.5650834 -5.61278016 53.19785705 -5.6875 42.625 C-5.69168945 41.80209473 -5.69587891 40.97918945 -5.70019531 40.13134766 C-5.85849585 31.54101766 -7.48638373 24.02102705 -11.1875 16.25 C-13.24703552 11.8685171 -13.65407684 8.82381666 -13 4 C-9.37724092 -0.87198634 -5.73681918 -1.63909119 0 0 Z " fill="#000000" transform="translate(322,67)"/>
<path d="M0 0 C8.12306041 2.78849813 15.5416323 13.07155691 21.55712891 19.08789062 C23.34194411 20.87049385 25.13464928 22.64490953 26.92773438 24.41918945 C28.07014947 25.55867435 29.21209384 26.69863143 30.35351562 27.83911133 C31.15346451 28.62828194 31.15346451 28.62828194 31.96957397 29.43339539 C36.76686438 34.26052904 36.76686438 34.26052904 37.95507812 37.67114258 C37.88034251 41.85633705 37.56386326 43.95492477 34.83007812 47.17114258 C31.95507812 48.67114258 31.95507812 48.67114258 28.64257812 48.85864258 C21.50173032 46.55904752 16.88994654 40.62239165 11.69335938 35.41723633 C10.80302002 34.52576904 9.91268066 33.63430176 8.99536133 32.71582031 C8.32206787 32.04107666 7.64877441 31.36633301 6.95507812 30.67114258 C6.9514325 31.31372009 6.94778687 31.95629761 6.94403076 32.61834717 C6.90224406 39.30200462 6.83292524 45.98497291 6.74755859 52.66821289 C6.71932014 55.16293447 6.69812001 57.65774599 6.68408203 60.15258789 C6.66269313 63.73736724 6.61606104 67.32106176 6.56445312 70.90551758 C6.56261017 72.58070465 6.56261017 72.58070465 6.56072998 74.28973389 C6.54101135 75.33051086 6.52129272 76.37128784 6.50097656 77.44360352 C6.48765289 78.81594147 6.48765289 78.81594147 6.47406006 80.21600342 C5.79736746 83.41722181 4.4570861 84.63174716 1.95507812 86.67114258 C-1.78883154 87.59980767 -5.10939261 87.1748891 -8.48242188 85.35864258 C-11.18898632 82.43555298 -11.18324734 79.54039812 -11.25024414 75.74072266 C-11.27018936 74.73991165 -11.29013458 73.73910065 -11.3106842 72.70796204 C-11.3273967 71.62975693 -11.34410919 70.55155182 -11.36132812 69.44067383 C-11.38210922 68.33511642 -11.40289032 67.22955902 -11.42430115 66.09049988 C-11.4897452 62.55494467 -11.54865791 59.01931451 -11.60742188 55.48364258 C-11.65061197 53.0884525 -11.69422642 50.69327003 -11.73828125 48.2980957 C-11.84542135 42.42252416 -11.94719744 36.54687786 -12.04492188 30.67114258 C-12.52324463 31.18088623 -13.00156738 31.69062988 -13.49438477 32.21582031 C-15.68266111 34.52926173 -17.89446503 36.81880882 -20.10742188 39.10864258 C-20.85958984 39.91108398 -21.61175781 40.71352539 -22.38671875 41.5402832 C-28.77034779 48.08972079 -28.77034779 48.08972079 -32.92382812 48.78833008 C-36.53192631 48.65285705 -38.23471472 47.90277768 -41.04492188 45.67114258 C-42.71136052 42.33826529 -42.84521304 39.23830657 -42.04492188 35.67114258 C-39.93168195 32.4451502 -37.24637693 29.91613227 -34.45898438 27.26879883 C-33.68686615 26.50562851 -32.91474792 25.74245819 -32.11923218 24.9561615 C-29.65428702 22.52927857 -27.16268094 20.13191338 -24.66992188 17.73364258 C-22.99888317 16.0941665 -21.32959058 14.45290866 -19.66210938 12.80981445 C-16.61324909 9.81941234 -13.56063506 6.83334324 -10.48486328 3.87060547 C-9.86753326 3.27518448 -9.25020325 2.67976349 -8.61416626 2.06629944 C-5.78878111 -0.44564549 -3.71973679 -0.6371421 0 0 Z " fill="#000000" transform="translate(346.044921875,338.328857421875)"/>
<path d="M0 0 C3.08092172 2.19233482 5.68128254 4.79269661 8.33984375 7.47265625 C9.10680069 8.22912949 9.87375763 8.98560272 10.66395569 9.76499939 C12.27740929 11.36563237 13.88318523 12.97403695 15.48168945 14.58959961 C17.92958855 17.05453349 20.41247411 19.47983883 22.90039062 21.90429688 C24.46580403 23.46648624 26.02903197 25.0308693 27.58984375 26.59765625 C28.33346664 27.31881119 29.07708954 28.03996613 29.84324646 28.78297424 C35.44479668 34.53950264 35.44479668 34.53950264 35.52954102 39.37280273 C34.73844446 44.79157705 34.73844446 44.79157705 32 47 C28.46997913 47.98056135 26.15935281 48.52605887 22.76171875 46.984375 C18.82536226 44.15598872 15.56603183 40.775091 12.1875 37.3125 C11.49462891 36.61060547 10.80175781 35.90871094 10.08789062 35.18554688 C8.38728991 33.46148959 6.69155339 31.73292722 5 30 C4.99413376 30.61530075 4.98826752 31.2306015 4.98222351 31.86454773 C4.9182562 38.27254944 4.83382763 44.68005048 4.73754883 51.08764648 C4.70430833 53.47852983 4.67627371 55.86949148 4.65356445 58.26049805 C4.62000317 61.69874419 4.56768476 65.13627329 4.51171875 68.57421875 C4.50213387 70.17604256 4.50213387 70.17604256 4.49235535 71.81022644 C4.30735802 81.16245095 4.30735802 81.16245095 1 85 C-2.12942465 86.56471233 -5.61082223 86.69701958 -9 86 C-11.50842628 83.96492236 -12.84194883 82.74769003 -13.51898193 79.54486084 C-13.52786438 78.62996887 -13.53674683 77.7150769 -13.54589844 76.77246094 C-13.56561707 75.73168396 -13.58533569 74.69090698 -13.60565186 73.61859131 C-13.60688049 72.50179993 -13.60810913 71.38500854 -13.609375 70.234375 C-13.62591125 69.08584045 -13.64244751 67.93730591 -13.65948486 66.75396729 C-13.70806615 63.08592434 -13.72935923 59.4182963 -13.75 55.75 C-13.77815106 53.26299984 -13.80807725 50.7760191 -13.83984375 48.2890625 C-13.91382797 42.19278391 -13.96541113 36.09662249 -14 30 C-14.46374023 30.47421387 -14.92748047 30.94842773 -15.40527344 31.43701172 C-17.51489016 33.58827255 -19.632322 35.73167538 -21.75 37.875 C-22.84441406 38.99455078 -22.84441406 38.99455078 -23.9609375 40.13671875 C-25.02441406 41.20986328 -25.02441406 41.20986328 -26.109375 42.3046875 C-26.75874023 42.96452637 -27.40810547 43.62436523 -28.07714844 44.30419922 C-31.29432665 47.14149224 -33.16900934 48.01483912 -37.5 47.9375 C-41 47 -41 47 -43.5 44.875 C-45 42 -45 42 -45.1875 38.6875 C-42.22512219 29.48853733 -32.32560021 22.13935934 -25.58325195 15.39794922 C-23.80064873 13.61313402 -22.02623305 11.82042884 -20.25195312 10.02734375 C-19.11246822 8.88492866 -17.97251115 7.74298428 -16.83203125 6.6015625 C-16.30591751 6.06826324 -15.77980377 5.53496399 -15.23774719 4.98550415 C-10.09528823 -0.1251621 -7.29702924 -2.11300652 0 0 Z " fill="#000000" transform="translate(173,339)"/>
<path d="M0 0 C2.86901665 0.96311456 4.4421736 2.45094758 6.65527344 4.51391602 C7.53086914 5.32892578 8.40646484 6.14393555 9.30859375 6.98364258 C13.94031827 11.42573662 18.53175946 15.90361953 23.06933594 20.44189453 C24.69156495 22.06189793 26.32169784 23.67367662 27.95214844 25.28540039 C28.99430206 26.32462583 30.0359867 27.36432184 31.07714844 28.40454102 C32.47416992 29.79539917 32.47416992 29.79539917 33.89941406 31.21435547 C36.3728693 33.95233005 38.07347025 36.03675689 38.28808594 39.76391602 C37.64526855 45.14491963 37.64526855 45.14491963 35.54589844 47.72875977 C32.00777771 49.21849481 29.99647089 49.36635517 26.17089844 48.72875977 C20.9369588 45.36883665 16.77991489 40.34636701 12.40527344 35.96704102 C11.8997998 35.4612854 11.39432617 34.95552979 10.87353516 34.43444824 C9.639179 33.19936256 8.40501849 31.96408136 7.17089844 30.72875977 C7.16947342 31.38386536 7.1680484 32.03897095 7.1665802 32.71392822 C7.14690621 39.52740442 7.09268162 46.33998196 7.01831055 53.15307617 C6.99510176 55.69630488 6.98072813 58.23963009 6.9753418 60.78295898 C6.96607385 64.43738145 6.92512658 68.09027983 6.87792969 71.74438477 C6.88186234 72.88304993 6.88579498 74.02171509 6.8898468 75.19488525 C6.74406218 83.06777781 6.74406218 83.06777781 3.81420898 86.4465332 C0.55970232 88.02524097 -1.25417867 88.32458025 -4.82910156 87.72875977 C-7.47241211 86.4465332 -7.47241211 86.4465332 -9.82910156 83.72875977 C-10.61140409 79.74658657 -10.55011282 75.79217735 -10.53613281 71.74438477 C-10.55125412 70.57365417 -10.56637543 69.40292358 -10.58195496 68.19671631 C-10.62494485 64.45720325 -10.63368144 60.71849567 -10.64160156 56.97875977 C-10.66473688 54.44358193 -10.69010018 51.90842338 -10.71777344 49.37329102 C-10.7807376 43.15843973 -10.81558207 36.94390463 -10.82910156 30.72875977 C-11.3336084 31.23850342 -11.83811523 31.74824707 -12.35791016 32.2734375 C-14.6373719 34.57364072 -16.92067917 36.86998854 -19.20410156 39.16625977 C-19.99816406 39.96870117 -20.79222656 40.77114258 -21.61035156 41.59790039 C-22.75117188 42.74355469 -22.75117188 42.74355469 -23.91503906 43.91235352 C-24.96763916 44.97280884 -24.96763916 44.97280884 -26.04150391 46.0546875 C-28.60905387 48.45917945 -29.60571939 48.71221294 -33.20410156 48.97875977 C-36.82910156 48.72875977 -36.82910156 48.72875977 -39.20410156 47.72875977 C-41.17677112 45.30085877 -41.65300252 43.01908001 -42.14160156 39.95922852 C-41.32903928 34.15956523 -35.95709468 29.57204249 -31.96191406 25.63110352 C-31.40470673 25.0743544 -30.84749939 24.51760529 -30.27340698 23.94398499 C-29.10082047 22.77440258 -27.92582157 21.60723424 -26.74853516 20.44238281 C-24.96101755 18.67310518 -23.18161604 16.89597306 -21.40332031 15.11743164 C-20.25665486 13.97568342 -19.10953429 12.83439205 -17.96191406 11.69360352 C-17.43671173 11.16951401 -16.9115094 10.6454245 -16.37039185 10.10545349 C-5.72815946 -0.40290835 -5.72815946 -0.40290835 0 0 Z " fill="#000000" transform="translate(257.8291015625,293.271240234375)"/>
</svg>
