<?xml version="1.0" encoding="UTF-8"?>
<svg version="1.1" xmlns="http://www.w3.org/2000/svg" width="512" height="512">
<path d="M0 0 C0.85494722 -0.00322445 1.70989444 -0.00644889 2.59074914 -0.00977105 C3.53547732 -0.00822245 4.48020549 -0.00667385 5.45356178 -0.00507832 C6.4529187 -0.00734387 7.45227561 -0.00960943 8.48191607 -0.01194364 C11.85216571 -0.01830631 15.22237538 -0.01745282 18.59263039 -0.01662922 C21.00019826 -0.0196193 23.40776566 -0.02302148 25.81533241 -0.02680683 C31.68922534 -0.03474503 37.56310879 -0.03786216 43.43700598 -0.03841921 C48.21047673 -0.03889389 52.98394416 -0.04094624 57.75741386 -0.04411983 C71.28303106 -0.05292956 84.80864031 -0.05753875 98.33426039 -0.05678936 C99.06389261 -0.0567494 99.79352482 -0.05670945 100.54526711 -0.05666828 C101.64104767 -0.05660696 101.64104767 -0.05660696 102.75896521 -0.0565444 C114.59959267 -0.0561379 126.44018833 -0.06570753 138.28080659 -0.07980665 C150.43078482 -0.09416028 162.58074754 -0.10107738 174.73073447 -0.10021287 C181.55518029 -0.09988054 188.37959279 -0.10264352 195.20403099 -0.11339092 C201.62091142 -0.12343148 208.03773957 -0.12317093 214.45462418 -0.11587429 C216.81373065 -0.11482485 219.17284144 -0.11721252 221.53194046 -0.12323475 C224.74474921 -0.13090691 227.9573114 -0.12634158 231.17011452 -0.11860371 C232.11038124 -0.12374727 233.05064797 -0.12889083 234.01940763 -0.13419026 C235.3096517 -0.12729207 235.3096517 -0.12729207 236.6259613 -0.12025452 C237.36761012 -0.12047188 238.10925894 -0.12068925 238.87338197 -0.12091321 C241.28431922 0.17037766 242.8793084 0.85424281 244.93882179 2.12863445 C246.55011433 5.35121952 246.38933217 8.63315662 245.93882179 12.12863445 C244.72223764 14.72663841 243.57265629 16.8303356 242.00132179 19.1794157 C241.16719921 20.49483353 240.33388862 21.81076654 239.50132179 23.12716961 C238.85936867 24.123484 238.85936867 24.123484 238.20444679 25.13992596 C236.22494944 28.25036009 234.36594576 31.42896902 232.50132179 34.6091032 C231.75382916 35.873103 231.00577493 37.13677085 230.25718117 38.40011883 C229.69100075 39.35664349 229.69100075 39.35664349 229.11338234 40.33249187 C221.94243166 52.44306645 214.69770494 64.50451297 207.37021828 76.52096844 C201.05872348 86.88326057 194.86804856 97.31612057 188.70835304 107.76925945 C188.35927045 108.3589275 188.01018785 108.94859554 187.650527 109.55613232 C186.91083308 110.80999315 186.17568323 112.06655714 185.44714069 113.32693005 C183.55975088 116.55560785 181.61021735 119.6329652 179.3455143 122.6111784 C171.14250983 133.73259359 170.5830038 143.17162164 170.88413429 156.67550945 C170.89052019 158.70571233 170.89188133 160.73593655 170.88849831 162.76614666 C170.89033281 168.05898026 170.94801962 173.34955339 171.02176857 178.64181805 C171.13232561 187.15134052 171.16369226 195.66125251 171.18112755 204.17139721 C171.19642278 207.13453236 171.24031192 210.09622375 171.2879734 213.05899334 C171.30143499 214.86703216 171.31416068 216.67507666 171.32602882 218.48312664 C171.35714005 219.71425182 171.35714005 219.71425182 171.38887978 220.97024822 C171.39148495 224.62801125 171.26313315 226.69484007 169.03962135 229.66897869 C166.93882179 231.12863445 166.93882179 231.12863445 164.93882179 231.12863445 C164.93882179 267.75863445 164.93882179 304.38863445 164.93882179 342.12863445 C174.17882179 342.12863445 183.41882179 342.12863445 192.93882179 342.12863445 C195.93882179 344.12863445 195.93882179 344.12863445 196.93882179 347.12863445 C197.01948399 348.60986993 197.04643373 350.09445649 197.03647804 351.5778532 C197.03325539 352.4254118 197.03003273 353.27297039 197.02671242 354.14621258 C197.01833351 355.0272868 197.00995461 355.90836102 197.00132179 356.81613445 C196.99455421 358.15514812 196.99455421 358.15514812 196.98764992 359.52121258 C196.97587162 361.72375432 196.95942343 363.92616044 196.93882179 366.12863445 C197.71072853 366.112924 198.48263527 366.09721355 199.27793312 366.08102703 C202.76898841 366.01873838 206.25992688 365.97966272 209.75132179 365.94113445 C211.5737339 365.90342937 211.5737339 365.90342937 213.43296242 365.86496258 C214.59634132 365.85529461 215.75972023 365.84562664 216.95835304 365.8356657 C218.03190041 365.81995525 219.10544777 365.8042448 220.21152687 365.78805828 C222.93882179 366.12863445 222.93882179 366.12863445 224.75010109 367.459445 C228.28242946 372.41950438 227.16373927 379.20330224 227.18882179 385.00363445 C227.20944679 386.18828289 227.23007179 387.37293133 227.25132179 388.5934782 C227.25647804 389.73687664 227.26163429 390.88027508 227.26694679 392.05832195 C227.2762925 393.10230145 227.2856382 394.14628094 227.29526711 395.22189617 C226.85065043 398.84765381 225.53972887 401.52772737 222.93882179 404.12863445 C220.79649 404.23655097 218.65054392 404.27278044 216.50551796 404.2825346 C215.82553255 404.28691685 215.14554715 404.29129911 214.44495612 404.29581416 C212.14953301 404.30924777 209.85414832 404.31539118 207.55869484 404.32150555 C205.91973635 404.32940293 204.28077961 404.33767164 202.64182472 404.34628582 C197.24474699 404.37254805 191.84766133 404.38781759 186.45054054 404.40207195 C184.59546147 404.4074299 182.74038246 404.4128074 180.8853035 404.41820431 C173.17075937 404.43983917 165.45621738 404.45857723 157.74165058 404.4698267 C146.67109027 404.48607381 135.60088054 404.519263 124.53045243 404.57622755 C116.75463781 404.61488021 108.97891714 404.63445383 101.20300895 404.63974726 C96.55481219 404.64340716 91.90698897 404.65549562 87.25889587 404.68785 C82.88642388 404.71784867 78.51455304 404.72427208 74.1420002 404.71246624 C72.53593713 404.71224481 70.92984684 404.7206069 69.32387924 404.73812008 C67.13288218 404.76071496 64.94408288 404.75256533 62.75307655 404.73663616 C61.52654712 404.73994631 60.30001768 404.74325645 59.03632069 404.74666691 C55.93882179 404.12863445 55.93882179 404.12863445 53.5452795 401.78179646 C51.57672354 398.5306073 51.42288715 396.47621564 51.40757179 392.69113445 C51.40241554 391.46652508 51.39725929 390.2419157 51.39194679 388.98019695 C51.40741554 387.70918133 51.42288429 386.4381657 51.43882179 385.12863445 C51.42335304 383.85761883 51.40788429 382.5866032 51.39194679 381.27707195 C51.39710304 380.05246258 51.40225929 378.8278532 51.40757179 377.56613445 C51.41208351 376.45109539 51.41659523 375.33605633 51.42124367 374.1872282 C52.06675597 370.37261587 53.07792603 368.72314427 55.93882179 366.12863445 C58.77964211 365.5610075 58.77964211 365.5610075 62.01694679 365.6403532 C63.75718117 365.66452312 63.75718117 365.66452312 65.53257179 365.68918133 C66.73913429 365.73107586 67.94569679 365.77297039 69.18882179 365.81613445 C70.41085304 365.83869305 71.63288429 365.86125164 72.89194679 365.88449383 C75.90880681 365.94341688 78.92319694 366.0256418 81.93882179 366.12863445 C81.91787453 365.54372234 81.89692726 364.95881023 81.87534523 364.35617352 C81.79202064 361.6971698 81.74011283 359.0384409 81.68882179 356.37863445 C81.65530617 355.45824383 81.62179054 354.5378532 81.58725929 353.58957195 C81.57436867 352.70011883 81.56147804 351.8106657 81.54819679 350.89425945 C81.52724953 350.07731609 81.50630226 349.26037273 81.48472023 348.41867352 C82.12819746 345.17361095 83.27635134 344.05783435 85.93882179 342.12863445 C88.96323586 341.67453289 88.96323586 341.67453289 92.45444679 341.73800945 C93.70483742 341.75090008 94.95522804 341.7637907 96.24350929 341.77707195 C98.19643898 341.82734539 98.19643898 341.82734539 100.18882179 341.87863445 C101.50624367 341.89668133 102.82366554 341.9147282 104.18100929 341.93332195 C107.43434487 341.98047174 110.68621804 342.04627402 113.93882179 342.12863445 C113.93882179 338.82863445 113.93882179 335.52863445 113.93882179 332.12863445 C81.59882179 332.12863445 49.25882179 332.12863445 15.93882179 332.12863445 C15.93882179 346.97863445 15.93882179 361.82863445 15.93882179 377.12863445 C11.93882179 381.12863445 11.93882179 381.12863445 9.93924904 381.60965252 C9.23753578 381.60077007 8.53582253 381.59188763 7.81284523 381.58273602 C7.01231728 381.58243389 6.21178932 381.58213177 5.38700294 381.58182049 C4.53269691 381.56117535 3.67839088 381.5405302 2.79819679 381.51925945 C1.91601479 381.51359966 1.03383278 381.50793987 0.12491798 381.50210857 C-2.68767034 381.47975036 -5.49897615 381.42955577 -8.31117821 381.37863445 C-10.22001395 381.3585687 -12.1288697 381.34031806 -14.03774071 381.32394695 C-18.71271266 381.27988745 -23.38672813 381.21086429 -28.06117821 381.12863445 C-28.0331411 382.05974041 -28.00510399 382.99084637 -27.97621727 383.95016766 C-28.06117821 387.12863445 -28.06117821 387.12863445 -29.42055321 389.9841032 C-33.46940382 393.27229697 -37.26523846 392.67081658 -42.31117821 392.44113445 C-43.24703758 392.41857586 -44.18289696 392.39601727 -45.14711571 392.37277508 C-47.45343495 392.3139404 -49.75648658 392.23180591 -52.06117821 392.12863445 C-51.97867821 393.18050945 -51.89617821 394.23238445 -51.81117821 395.31613445 C-52.10623816 399.8157988 -52.84003519 401.053032 -56.06117821 404.12863445 C-59.15309048 404.75225353 -59.15309048 404.75225353 -62.86197472 404.75009441 C-63.54522896 404.75648324 -64.22848321 404.76287206 -64.93244213 404.76945448 C-67.22147458 404.7847131 -69.50877838 404.76424041 -71.79775047 404.74386883 C-73.43877804 404.74736978 -75.07980222 404.75302806 -76.72081566 404.76068401 C-81.17747464 404.77494451 -85.63351759 404.75785906 -90.09011769 404.73439884 C-94.75054857 404.7143117 -99.41095334 404.72016822 -104.07141685 404.72250652 C-111.89712771 404.72245293 -119.72259725 404.7026841 -127.54823875 404.67062664 C-136.60172347 404.63372016 -145.65489216 404.62495264 -154.70844227 404.63192415 C-163.41164016 404.63822415 -172.11472944 404.62748504 -180.81790543 404.60795879 C-184.52479599 404.59977425 -188.23163112 404.59707717 -191.93852997 404.59865093 C-196.30114283 404.59952836 -200.66345426 404.58535211 -205.02598763 404.5594244 C-206.62921055 404.55224819 -208.23246551 404.55018595 -209.83570099 404.55354214 C-212.01991865 404.55724311 -214.20324981 404.54255923 -216.38736534 404.52304363 C-217.61092011 404.51931492 -218.83447489 404.5155862 -220.09510708 404.5117445 C-223.06117821 404.12863445 -223.06117821 404.12863445 -224.91579151 402.79148388 C-226.8722076 399.95119826 -227.18767972 397.42443933 -227.2016201 394.08105755 C-227.20733025 393.25957226 -227.21304039 392.43808697 -227.21892357 391.59170818 C-227.22004143 390.69397686 -227.22115929 389.79624554 -227.22231102 388.87131023 C-227.22975838 387.44892544 -227.22975838 387.44892544 -227.23735619 385.9978056 C-227.25197792 382.85651204 -227.25877954 379.71526897 -227.26430321 376.57394695 C-227.27005427 374.39302856 -227.275812 372.21211018 -227.28157616 370.03119183 C-227.29208591 365.45641119 -227.29792888 360.88164812 -227.30141258 356.30685711 C-227.30689989 350.44336812 -227.33093321 344.58011104 -227.35938454 338.71669483 C-227.37800208 334.21113689 -227.38321603 329.70563493 -227.38474846 325.20004177 C-227.38777707 323.03827807 -227.39581257 320.8765154 -227.40893364 318.71478939 C-227.42597682 315.69126221 -227.42411808 312.66830338 -227.41762352 309.64474773 C-227.4268383 308.75106487 -227.43605309 307.85738201 -227.4455471 306.93661785 C-227.41037845 301.7134051 -226.94273594 298.01019219 -223.06117821 294.12863445 C-221.57245961 294.04194013 -220.07973321 294.02159952 -218.58852196 294.0309782 C-217.68940086 294.03420086 -216.79027977 294.03742352 -215.86391258 294.04074383 C-214.91838524 294.04912273 -213.97285789 294.05750164 -212.99867821 294.06613445 C-212.04928368 294.07064617 -211.09988914 294.07515789 -210.12172508 294.07980633 C-207.76814756 294.09163335 -205.41469343 294.1081142 -203.06117821 294.12863445 C-203.07165184 293.57401531 -203.08212547 293.01939617 -203.09291649 292.44797039 C-203.13459825 289.92490486 -203.16054259 287.40191193 -203.18617821 284.87863445 C-203.21131493 283.56959148 -203.21131493 283.56959148 -203.23695946 282.2341032 C-203.24340477 281.38976727 -203.24985008 280.54543133 -203.25649071 279.67550945 C-203.26696434 278.90046062 -203.27743797 278.1254118 -203.28822899 277.32687664 C-203.03028716 274.82955596 -202.38878227 273.25023778 -201.06117821 271.12863445 C-196.56225814 268.87917442 -190.40915384 269.90141518 -185.40321922 269.88840008 C-183.13583872 269.87868655 -180.86936182 269.84766053 -178.60219383 269.81613445 C-177.16274609 269.80960503 -175.72329187 269.80435432 -174.28383446 269.80050945 C-172.9716494 269.79116375 -171.65946434 269.78181805 -170.3075161 269.77218914 C-167.06117821 270.12863445 -167.06117821 270.12863445 -164.06117821 273.12863445 C-164.06117821 280.05863445 -164.06117821 286.98863445 -164.06117821 294.12863445 C-147.89117821 294.12863445 -131.72117821 294.12863445 -115.06117821 294.12863445 C-115.06117821 287.52863445 -115.06117821 280.92863445 -115.06117821 274.12863445 C-112.06117821 270.12863445 -112.06117821 270.12863445 -108.83070946 269.62692547 C-106.87197899 269.62970501 -106.87197899 269.62970501 -104.87367821 269.6325407 C-104.17476463 269.63108547 -103.47585106 269.62963024 -102.75575829 269.62813091 C-101.27972299 269.62978912 -99.80367028 269.64134208 -98.32777977 269.66208172 C-96.06889448 269.69103555 -93.81235666 269.68269218 -91.55336571 269.66965008 C-90.11845847 269.67588785 -88.68355865 269.6842791 -87.24867821 269.6950407 C-85.94285789 269.70478924 -84.63703758 269.71453777 -83.29164696 269.72458172 C-80.06117821 270.12863445 -80.06117821 270.12863445 -78.17445946 271.53073406 C-76.21056812 274.34952107 -75.94089951 276.08682991 -75.96352196 279.48019695 C-75.96674461 280.3309782 -75.96996727 281.18175945 -75.97328758 282.05832195 C-75.98166649 282.94777508 -75.99004539 283.8372282 -75.99867821 284.75363445 C-76.00318993 285.65082195 -76.00770164 286.54800945 -76.01235008 287.47238445 C-76.0241523 289.69120094 -76.04061665 291.90988464 -76.06117821 294.12863445 C-75.4762661 294.10245037 -74.89135399 294.07626629 -74.28871727 294.04928875 C-71.62981255 293.94513689 -68.97133677 293.88025673 -66.31117821 293.81613445 C-65.39078758 293.77423992 -64.47039696 293.73234539 -63.52211571 293.68918133 C-62.63266258 293.67306805 -61.74320946 293.65695477 -60.82680321 293.6403532 C-59.60138817 293.60107708 -59.60138817 293.60107708 -58.35121727 293.5610075 C-56.06117821 294.12863445 -56.06117821 294.12863445 -53.78774071 295.87668133 C-51.07642223 300.98340675 -51.57077326 305.95839684 -51.67055321 311.6481657 C-51.676213 312.86187344 -51.68187279 314.07558117 -51.68770409 315.32606792 C-51.71007378 319.1981599 -51.76027439 323.06932269 -51.81117821 326.94113445 C-51.8312423 329.5680742 -51.84949322 332.19502847 -51.86586571 334.82199383 C-51.90994075 341.25785711 -51.97686029 347.69317939 -52.06117821 354.12863445 C-51.4762661 354.10245037 -50.89135399 354.07626629 -50.28871727 354.04928875 C-47.62981255 353.94513689 -44.97133677 353.88025673 -42.31117821 353.81613445 C-41.39078758 353.77423992 -40.47039696 353.73234539 -39.52211571 353.68918133 C-32.77358966 353.56692542 -32.77358966 353.56692542 -29.42055321 356.2106657 C-28.06117821 359.12863445 -28.06117821 359.12863445 -28.06117821 366.12863445 C-18.16117821 366.12863445 -8.26117821 366.12863445 1.93882179 366.12863445 C1.89241554 362.84281414 1.84600929 359.55699383 1.79819679 356.1716032 C1.76701519 352.99445421 1.74271939 349.81732216 1.71909523 346.64010906 C1.69896115 344.42941966 1.67165164 342.21878363 1.63706398 340.00827312 C1.5886255 336.83341599 1.56587107 333.65926198 1.54819679 330.4841032 C1.51722908 328.99803822 1.51722908 328.99803822 1.48563576 327.48195171 C1.48533363 326.56122372 1.48503151 325.64049572 1.48472023 324.69186687 C1.47583778 323.88134365 1.46695534 323.07082043 1.45780373 322.23573589 C1.93882179 320.12863445 1.93882179 320.12863445 3.68256569 318.51948833 C6.23981835 316.94308715 7.54670218 316.75749915 10.51993752 316.7678709 C11.43416481 316.76374691 12.34839211 316.75962292 13.29032326 316.75537395 C14.28582191 316.76615978 15.28132057 316.77694561 16.30698586 316.78805828 C17.88794044 316.78740116 17.88794044 316.78740116 19.50083351 316.78673077 C22.98555952 316.78882126 26.4698048 316.81216524 29.95444679 316.8356657 C32.37011388 316.84126071 34.78578437 316.84553126 37.20145607 316.84852886 C43.56045868 316.85998503 49.91925584 316.88945914 56.27817726 316.9226408 C63.90731498 316.95871941 71.53652138 316.97249913 79.16571999 316.99000072 C90.75689683 317.01909572 102.34762284 317.07657817 113.93882179 317.12863445 C113.44382179 276.04363445 113.44382179 276.04363445 112.93882179 234.12863445 C110.95882179 237.09863445 108.97882179 240.06863445 106.93882179 243.12863445 C104.55437346 245.51308279 104.07345391 245.38026668 100.83079147 245.38869667 C99.96539407 245.39576226 99.09999666 245.40282785 98.2083751 245.41010755 C97.25197408 245.40769247 96.29557307 245.40527738 95.3101902 245.40278912 C93.79277884 245.41064413 93.79277884 245.41064413 92.24471271 245.41865784 C88.83297673 245.43373738 85.42138967 245.43436473 82.00962257 245.43503094 C79.57249636 245.44264706 77.13537255 245.4510736 74.69825172 245.46025372 C68.06193864 245.48225921 61.42568596 245.49102703 54.78934526 245.49608016 C50.64745321 245.49933412 46.50557049 245.50585476 42.3636837 245.51308155 C30.90121001 245.53265064 19.43874499 245.5490531 7.97625351 245.55195808 C7.24236241 245.55214565 6.50847131 245.55233322 5.75234108 245.55252648 C4.26449386 245.55289273 2.77664664 245.55325643 1.28879942 245.55361759 C0.55020622 245.5538004 -0.18838699 245.55398321 -0.9493618 245.55417156 C-1.68885402 245.55435211 -2.42834624 245.55453266 -3.19024731 245.55471868 C-15.17643856 245.55826137 -27.16245026 245.58528821 -39.14857922 245.62266945 C-51.44772648 245.66072069 -63.74678457 245.68011533 -76.04599202 245.6804176 C-82.95435095 245.68100288 -89.86249571 245.68954023 -96.77079964 245.71841526 C-103.26655532 245.74544059 -109.76195993 245.74686116 -116.25777626 245.73075962 C-118.64591711 245.72893656 -121.0340818 245.7357124 -123.42217064 245.75157833 C-126.6748176 245.77187568 -129.92595387 245.7615825 -133.17857933 245.74336529 C-134.1305189 245.75656526 -135.08245847 245.76976522 -136.0632447 245.78336519 C-142.41598314 245.70172328 -142.41598314 245.70172328 -145.68018341 242.8023262 C-147.60130215 239.08292093 -147.14814407 237.13451589 -146.06117821 233.12863445 C-144.47328758 229.84079266 -144.47328758 229.84079266 -142.40492821 226.4294157 C-142.03100945 225.80546917 -141.65709068 225.18152264 -141.27184105 224.53866863 C-140.04595295 222.49928493 -138.80375202 220.47038672 -137.56117821 218.44113445 C-136.69506348 217.00711226 -135.83000646 215.57245074 -134.96596336 214.13717937 C-132.76370473 210.4855351 -130.54787766 206.84236562 -128.326437 203.20236492 C-126.41894666 200.0760315 -124.5175804 196.94598319 -122.61586571 193.81613445 C-120.52546472 190.37648945 -118.43412885 186.93742514 -116.33852196 183.50094891 C-111.32094169 175.26294001 -106.41978875 166.96122114 -101.56117821 158.62863445 C-95.6861166 148.55281963 -89.70909627 138.54710362 -83.63344383 128.5910368 C-77.87079906 119.14551877 -72.19602684 109.6508984 -66.56117821 100.12863445 C-60.62086657 90.09154064 -54.63274934 80.08688785 -48.56117821 70.12863445 C-41.15108338 57.97177563 -33.86499606 45.74389114 -26.61340904 33.4919157 C-24.76479645 30.36955577 -22.91375764 27.24864222 -21.06117821 24.12863445 C-20.66180046 23.45574383 -20.26242271 22.7828532 -19.85094261 22.08957195 C-18.64076197 20.05303986 -17.4275829 18.018324 -16.21352196 15.9841032 C-15.84779076 15.36810757 -15.48205956 14.75211193 -15.10524559 14.11744976 C-6.66435852 0.00633264 -6.66435852 0.00633264 0 0 Z M-0.73110008 19.35959148 C-1.54604753 20.93000477 -2.32722834 22.51877272 -3.06117821 24.12863445 C-3.64947411 25.06119061 -4.23777 25.99374676 -4.84389305 26.95456219 C-6.37922603 29.48904263 -7.91076804 32.0256674 -9.43617821 34.56613445 C-9.98145164 35.46267742 -10.52672508 36.35922039 -11.08852196 37.28293133 C-11.60285789 38.1382243 -12.11719383 38.99351727 -12.64711571 39.8747282 C-13.11166161 40.64486248 -13.5762075 41.41499676 -14.05483055 42.20846844 C-15.21591313 44.06256109 -15.21591313 44.06256109 -15.06117821 46.12863445 C-7.21186675 46.33755009 0.63678908 46.49726641 8.48818588 46.594944 C12.13451665 46.64183764 15.77894039 46.705381 19.42417336 46.80758953 C22.94512313 46.90569065 26.46424468 46.95925097 29.98645592 46.98252964 C31.97779438 47.00715317 33.96840065 47.07737014 35.9586277 47.14830303 C42.52972058 47.32430287 42.52972058 47.32430287 48.02070045 44.24736309 C49.58081787 41.93899674 50.78441761 39.66072992 51.93882179 37.12863445 C52.52711769 36.1960783 53.11541359 35.26352215 53.72153664 34.30270672 C55.25686962 31.76822628 56.78841163 29.23160151 58.31382179 26.69113445 C58.85909523 25.79459148 59.40436867 24.89804852 59.96616554 23.97433758 C60.48050148 23.11904461 60.99483742 22.26375164 61.52475929 21.3825407 C61.98930519 20.61240643 62.45385109 19.84227215 62.93247414 19.04880047 C64.09355671 17.19470782 64.09355671 17.19470782 63.93882179 15.12863445 C56.08951033 14.91971882 48.2408545 14.76000249 40.3894577 14.66232491 C36.74312693 14.61543126 33.09870319 14.55188791 29.45347023 14.44967937 C25.93252046 14.35157826 22.4133989 14.29801794 18.89118767 14.27473927 C16.89984921 14.25011573 14.90924293 14.17989877 12.91901588 14.10896587 C4.82547912 14.04474343 4.82547912 14.04474343 -0.73110008 19.35959148 Z M71.14145851 25.8097868 C66.0300046 35.5475953 66.0300046 35.5475953 63.93882179 46.12863445 C98.44211561 50.9310624 98.44211561 50.9310624 130.52768898 43.42892742 C137.62267135 36.80985004 140.75434943 27.34174515 142.93882179 18.12863445 C143.26882179 17.13863445 143.59882179 16.14863445 143.93882179 15.12863445 C133.99024318 14.22908898 124.04550343 13.60580713 114.06382179 13.25363445 C112.98234997 13.21533457 112.98234997 13.21533457 111.87903023 13.17626095 C88.3273702 11.903212 88.3273702 11.903212 71.14145851 25.8097868 Z M156.39704323 20.56369305 C154.89963175 23.32004526 153.74207298 26.08075758 152.73261452 29.04846478 C151.41547449 32.50008968 149.36128933 35.4485791 147.31382179 38.50363445 C144.80423426 42.06726957 144.80423426 42.06726957 143.93882179 46.12863445 C165.05882179 46.12863445 186.17882179 46.12863445 207.93882179 46.12863445 C217.19502404 30.99568831 217.19502404 30.99568831 224.93882179 15.12863445 C216.89830441 14.75620354 208.86143897 14.47284735 200.81440353 14.2996397 C197.07639131 14.21645246 193.34431362 14.10394376 189.60972023 13.9216032 C171.08965993 12.02073256 171.08965993 12.02073256 156.39704323 20.56369305 Z M-35.45204735 70.99679852 C-38.46978529 76.83448242 -40.54526159 82.73518774 -42.06117821 89.12863445 C-42.39117821 90.11863445 -42.72117821 91.10863445 -43.06117821 92.12863445 C-33.1125996 93.02817993 -23.16785984 93.65146178 -13.18617821 94.00363445 C-12.46519699 94.02916771 -11.74421577 94.05470097 -11.00138664 94.08100796 C7.23835142 95.24467795 7.23835142 95.24467795 23.64194679 89.2004118 C30.96366002 82.07382916 34.66141451 71.89786327 36.93882179 62.12863445 C36.93882179 61.79863445 36.93882179 61.46863445 36.93882179 61.12863445 C-3.12637126 55.30928321 -3.12637126 55.30928321 -35.45204735 70.99679852 Z M51.26889992 65.35959148 C50.45395247 66.93000477 49.67277166 68.51877272 48.93882179 70.12863445 C48.35052589 71.06119061 47.76223 71.99374676 47.15610695 72.95456219 C45.62077397 75.48904263 44.08923196 78.0256674 42.56382179 80.56613445 C42.01854836 81.46267742 41.47327492 82.35922039 40.91147804 83.28293133 C40.39714211 84.1382243 39.88280617 84.99351727 39.35288429 85.8747282 C38.88833839 86.64486248 38.4237925 87.41499676 37.94516945 88.20846844 C36.78408687 90.06256109 36.78408687 90.06256109 36.93882179 92.12863445 C44.78813325 92.33755009 52.63678908 92.49726641 60.48818588 92.594944 C64.13451665 92.64183764 67.77894039 92.705381 71.42417336 92.80758953 C74.94512313 92.90569065 78.46424468 92.95925097 81.98645592 92.98252964 C83.97779438 93.00715317 85.96840065 93.07737014 87.9586277 93.14830303 C94.52972058 93.32430287 94.52972058 93.32430287 100.02070045 90.24736309 C101.58081787 87.93899674 102.78441761 85.66072992 103.93882179 83.12863445 C104.52711769 82.1960783 105.11541359 81.26352215 105.72153664 80.30270672 C107.25686962 77.76822628 108.78841163 75.23160151 110.31382179 72.69113445 C110.85909523 71.79459148 111.40436867 70.89804852 111.96616554 69.97433758 C112.48050148 69.11904461 112.99483742 68.26375164 113.52475929 67.3825407 C113.98930519 66.61240643 114.45385109 65.84227215 114.93247414 65.04880047 C116.09355671 63.19470782 116.09355671 63.19470782 115.93882179 61.12863445 C108.08951033 60.91971882 100.2408545 60.76000249 92.3894577 60.66232491 C88.74312693 60.61543126 85.09870319 60.55188791 81.45347023 60.44967937 C77.93252046 60.35157826 74.4133989 60.29801794 70.89118767 60.27473927 C68.89984921 60.25011573 66.90924293 60.17989877 64.91901588 60.10896587 C56.82547912 60.04474343 56.82547912 60.04474343 51.26889992 65.35959148 Z M123.00083351 71.8097868 C117.95879099 81.54812827 117.95879099 81.54812827 115.93882179 92.12863445 C151.51256952 97.10576987 151.51256952 97.10576987 184.62241554 89.42892742 C191.77869778 82.84381015 194.84771186 73.37309263 196.93882179 64.12863445 C197.26882179 63.13863445 197.59882179 62.14863445 197.93882179 61.12863445 C187.6565383 60.22949364 177.37876626 59.60595875 167.06382179 59.25363445 C166.31908607 59.2281012 165.57435036 59.20256794 164.80704689 59.17626095 C140.70360282 57.79916353 140.70360282 57.79916353 123.00083351 71.8097868 Z M-63.45204735 117.40329266 C-66.4601951 123.45033258 -68.49306803 129.56442653 -70.06117821 136.12863445 C-70.39117821 136.78863445 -70.72117821 137.44863445 -71.06117821 138.12863445 C-63.15106045 138.5011088 -55.24465677 138.78443996 -47.32791138 138.9576292 C-43.65038076 139.04080915 -39.97888462 139.1532979 -36.30483055 139.3356657 C-20.92033167 140.76689166 -20.92033167 140.76689166 -6.78987694 136.62539959 C-3.33561914 132.98385345 -1.48288979 128.9085373 0.13697243 124.20880413 C1.46560552 120.7620442 3.51770628 117.80975449 5.56382179 114.75363445 C8.07340932 111.18999934 8.07340932 111.18999934 8.93882179 107.12863445 C-1.03121553 106.25981682 -10.99777547 105.65584207 -20.99867821 105.31613445 C-21.72066273 105.2916045 -22.44264725 105.26707455 -23.18651009 105.24180126 C-46.46210377 103.86919429 -46.46210377 103.86919429 -63.45204735 117.40329266 Z M16.54795265 116.99679852 C13.53021471 122.83448242 11.45473841 128.73518774 9.93882179 135.12863445 C9.60882179 136.11863445 9.27882179 137.10863445 8.93882179 138.12863445 C16.75982506 138.71266302 24.57560258 139.15419781 32.41302776 139.42393875 C36.05591924 139.5535997 39.68376636 139.72832068 43.31797218 140.01462078 C57.36814379 141.15928641 57.36814379 141.15928641 70.93882179 138.12863445 C77.68590971 132.2634977 81.40683474 124.24045245 84.72811317 116.07991314 C85.98704596 113.01108101 87.42515599 110.07891338 88.93882179 107.12863445 C48.87362874 101.30928321 48.87362874 101.30928321 16.54795265 116.99679852 Z M101.39704323 112.56369305 C99.89963175 115.32004526 98.74207298 118.08075758 97.73261452 121.04846478 C96.41547449 124.50008968 94.36128933 127.4485791 92.31382179 130.50363445 C89.80423426 134.06726957 89.80423426 134.06726957 88.93882179 138.12863445 C97.04907808 138.33752495 105.15820425 138.4972504 113.27048874 138.594944 C117.03785516 138.64184335 120.80337674 138.70539941 124.56968117 138.80758953 C128.2073343 138.90566687 131.84321839 138.95924667 135.4820919 138.98252964 C136.86737744 138.999111 138.25257007 139.03149643 139.63709831 139.08020496 C147.4120428 139.56849686 147.4120428 139.56849686 154.04755592 136.24736309 C155.60851754 133.93845757 156.79823864 131.66771149 157.93882179 129.12863445 C158.52711769 128.1960783 159.11541359 127.26352215 159.72153664 126.30270672 C161.25686962 123.76822628 162.78841163 121.23160151 164.31382179 118.69113445 C164.85909523 117.79459148 165.40436867 116.89804852 165.96616554 115.97433758 C166.48050148 115.11904461 166.99483742 114.26375164 167.52475929 113.3825407 C167.98930519 112.61240643 168.45385109 111.84227215 168.93247414 111.04880047 C170.09355671 109.19470782 170.09355671 109.19470782 169.93882179 107.12863445 C161.89830441 106.75620354 153.86143897 106.47284735 145.81440353 106.2996397 C142.07639131 106.21645246 138.34431362 106.10394376 134.60972023 105.9216032 C116.08965993 104.02073256 116.08965993 104.02073256 101.39704323 112.56369305 Z M-90.45204735 162.99679852 C-93.46978529 168.83448242 -95.54526159 174.73518774 -97.06117821 181.12863445 C-97.39117821 182.11863445 -97.72117821 183.10863445 -98.06117821 184.12863445 C-88.1125996 185.02817993 -78.16785984 185.65146178 -68.18617821 186.00363445 C-67.46519699 186.02916771 -66.74421577 186.05470097 -66.00138664 186.08100796 C-47.76164858 187.24467795 -47.76164858 187.24467795 -31.35805321 181.2004118 C-24.03633998 174.07382916 -20.33858549 163.89786327 -18.06117821 154.12863445 C-18.06117821 153.79863445 -18.06117821 153.46863445 -18.06117821 153.12863445 C-58.12637126 147.30928321 -58.12637126 147.30928321 -90.45204735 162.99679852 Z M-3.73110008 157.35959148 C-4.54604753 158.93000477 -5.32722834 160.51877272 -6.06117821 162.12863445 C-6.64947411 163.06119061 -7.23777 163.99374676 -7.84389305 164.95456219 C-9.37922603 167.48904263 -10.91076804 170.0256674 -12.43617821 172.56613445 C-12.98145164 173.46267742 -13.52672508 174.35922039 -14.08852196 175.28293133 C-14.60285789 176.1382243 -15.11719383 176.99351727 -15.64711571 177.8747282 C-16.11166161 178.64486248 -16.5762075 179.41499676 -17.05483055 180.20846844 C-18.21591313 182.06256109 -18.21591313 182.06256109 -18.06117821 184.12863445 C-10.21186675 184.33755009 -2.36321092 184.49726641 5.48818588 184.594944 C9.13451665 184.64183764 12.77894039 184.705381 16.42417336 184.80758953 C19.94512313 184.90569065 23.46424468 184.95925097 26.98645592 184.98252964 C28.97779438 185.00715317 30.96840065 185.07737014 32.9586277 185.14830303 C39.52972058 185.32430287 39.52972058 185.32430287 45.02070045 182.24736309 C46.58081787 179.93899674 47.78441761 177.66072992 48.93882179 175.12863445 C49.52711769 174.1960783 50.11541359 173.26352215 50.72153664 172.30270672 C52.25686962 169.76822628 53.78841163 167.23160151 55.31382179 164.69113445 C55.85909523 163.79459148 56.40436867 162.89804852 56.96616554 161.97433758 C57.48050148 161.11904461 57.99483742 160.26375164 58.52475929 159.3825407 C58.98930519 158.61240643 59.45385109 157.84227215 59.93247414 157.04880047 C61.09355671 155.19470782 61.09355671 155.19470782 60.93882179 153.12863445 C53.08951033 152.91971882 45.2408545 152.76000249 37.3894577 152.66232491 C33.74312693 152.61543126 30.09870319 152.55188791 26.45347023 152.44967937 C22.93252046 152.35157826 19.4133989 152.29801794 15.89118767 152.27473927 C13.89984921 152.25011573 11.90924293 152.17989877 9.91901588 152.10896587 C1.82547912 152.04474343 1.82547912 152.04474343 -3.73110008 157.35959148 Z M68.00083351 163.8097868 C62.95879099 173.54812827 62.95879099 173.54812827 60.93882179 184.12863445 C71.22110529 185.02777527 81.49887733 185.65131015 91.81382179 186.00363445 C92.93092537 186.04193434 92.93092537 186.04193434 94.07059669 186.08100796 C112.79620578 187.27439651 112.79620578 187.27439651 129.73667336 181.2004118 C137.11459144 174.11349984 140.76348209 163.92517006 142.93882179 154.12863445 C142.93882179 153.79863445 142.93882179 153.46863445 142.93882179 153.12863445 C132.6565383 152.22949364 122.37876626 151.60595875 112.06382179 151.25363445 C111.31908607 151.2281012 110.57435036 151.20256794 109.80704689 151.17626095 C85.70360282 149.79916353 85.70360282 149.79916353 68.00083351 163.8097868 Z M154.93882179 162.12863445 C154.12761321 163.354659 153.36910385 164.61551891 152.63022804 165.88644695 C151.89292458 167.14569988 151.89292458 167.14569988 151.14072609 168.43039227 C150.59972267 169.36206219 150.05871925 170.29373211 149.50132179 171.25363445 C145.40342156 178.26377499 141.27523547 185.25178047 137.07163429 192.19894695 C136.66144554 192.87784985 136.25125679 193.55675274 135.82863808 194.25622845 C134.18555432 196.97546806 132.54241153 199.69462739 130.89124489 202.40896893 C129.73004906 204.31841546 128.57420484 206.23100914 127.41929054 208.14425945 C126.74793068 209.25059734 126.07657082 210.35693523 125.38486671 211.49679852 C123.77830706 213.92028623 123.77830706 213.92028623 123.93882179 216.12863445 C134.49882179 216.12863445 145.05882179 216.12863445 155.93882179 216.12863445 C155.93882179 198.30863445 155.93882179 180.48863445 155.93882179 162.12863445 C155.60882179 162.12863445 155.27882179 162.12863445 154.93882179 162.12863445 Z M-118.45204735 209.40329266 C-121.4601951 215.45033258 -123.49306803 221.56442653 -125.06117821 228.12863445 C-125.39117821 228.78863445 -125.72117821 229.44863445 -126.06117821 230.12863445 C-118.15106045 230.5011088 -110.24465677 230.78443996 -102.32791138 230.9576292 C-98.65038076 231.04080915 -94.97888462 231.1532979 -91.30483055 231.3356657 C-75.92033167 232.76689166 -75.92033167 232.76689166 -61.78987694 228.62539959 C-58.33561914 224.98385345 -56.48288979 220.9085373 -54.86302757 216.20880413 C-53.53439448 212.7620442 -51.48229372 209.80975449 -49.43617821 206.75363445 C-46.92659068 203.18999934 -46.92659068 203.18999934 -46.06117821 199.12863445 C-56.03121553 198.25981682 -65.99777547 197.65584207 -75.99867821 197.31613445 C-76.72066273 197.2916045 -77.44264725 197.26707455 -78.18651009 197.24180126 C-101.46210377 195.86919429 -101.46210377 195.86919429 -118.45204735 209.40329266 Z M-38.45204735 208.99679852 C-41.46978529 214.83448242 -43.54526159 220.73518774 -45.06117821 227.12863445 C-45.39117821 228.11863445 -45.72117821 229.10863445 -46.06117821 230.12863445 C-36.1125996 231.02817993 -26.16785984 231.65146178 -16.18617821 232.00363445 C-15.46519699 232.02916771 -14.74421577 232.05470097 -14.00138664 232.08100796 C4.23835142 233.24467795 4.23835142 233.24467795 20.64194679 227.2004118 C27.96366002 220.07382916 31.66141451 209.89786327 33.93882179 200.12863445 C33.93882179 199.79863445 33.93882179 199.46863445 33.93882179 199.12863445 C-6.12637126 193.30928321 -6.12637126 193.30928321 -38.45204735 208.99679852 Z M48.24155617 203.35959148 C47.43443381 204.92956452 46.66218021 206.5183505 45.93882179 208.12863445 C45.35052589 209.06119061 44.76223 209.99374676 44.15610695 210.95456219 C42.62077397 213.48904263 41.08923196 216.0256674 39.56382179 218.56613445 C39.01854836 219.46267742 38.47327492 220.35922039 37.91147804 221.28293133 C37.39714211 222.1382243 36.88280617 222.99351727 36.35288429 223.8747282 C35.88833839 224.64486248 35.4237925 225.41499676 34.94516945 226.20846844 C33.78408687 228.06256109 33.78408687 228.06256109 33.93882179 230.12863445 C42.04907808 230.33752495 50.15820425 230.4972504 58.27048874 230.594944 C62.03785516 230.64184335 65.80337674 230.70539941 69.56968117 230.80758953 C73.2073343 230.90566687 76.84321839 230.95924667 80.4820919 230.98252964 C81.86737744 230.999111 83.25257007 231.03149643 84.63709831 231.08020496 C92.4120428 231.56849686 92.4120428 231.56849686 99.04755592 228.24736309 C100.60851754 225.93845757 101.79823864 223.66771149 102.93882179 221.12863445 C103.52711769 220.1960783 104.11541359 219.26352215 104.72153664 218.30270672 C106.25686962 215.76822628 107.78841163 213.23160151 109.31382179 210.69113445 C109.85909523 209.79459148 110.40436867 208.89804852 110.96616554 207.97433758 C111.48050148 207.11904461 111.99483742 206.26375164 112.52475929 205.3825407 C112.98930519 204.61240643 113.45385109 203.84227215 113.93247414 203.04880047 C115.09355671 201.19470782 115.09355671 201.19470782 114.93882179 199.12863445 C106.8285655 198.91974396 98.71943934 198.76001851 90.60715485 198.66232491 C86.83978843 198.61542555 83.07426685 198.5518695 79.30796242 198.44967937 C75.67030929 198.35160204 72.03442519 198.29802223 68.39555168 198.27473927 C67.01026614 198.2581579 65.62507351 198.22577247 64.24054527 198.17706394 C54.90092176 197.6756316 54.90092176 197.6756316 48.24155617 203.35959148 Z M128.93882179 231.12863445 C128.93882179 267.75863445 128.93882179 304.38863445 128.93882179 342.12863445 C135.86882179 342.12863445 142.79882179 342.12863445 149.93882179 342.12863445 C149.93882179 305.49863445 149.93882179 268.86863445 149.93882179 231.12863445 C143.00882179 231.12863445 136.07882179 231.12863445 128.93882179 231.12863445 Z M-188.06117821 284.12863445 C-188.06117821 287.42863445 -188.06117821 290.72863445 -188.06117821 294.12863445 C-185.09117821 294.12863445 -182.12117821 294.12863445 -179.06117821 294.12863445 C-179.06117821 290.82863445 -179.06117821 287.52863445 -179.06117821 284.12863445 C-182.03117821 284.12863445 -185.00117821 284.12863445 -188.06117821 284.12863445 Z M-100.06117821 284.12863445 C-100.06117821 287.42863445 -100.06117821 290.72863445 -100.06117821 294.12863445 C-97.09117821 294.12863445 -94.12117821 294.12863445 -91.06117821 294.12863445 C-91.06117821 290.82863445 -91.06117821 287.52863445 -91.06117821 284.12863445 C-94.03117821 284.12863445 -97.00117821 284.12863445 -100.06117821 284.12863445 Z M-212.06117821 308.12863445 C-212.06117821 335.18863445 -212.06117821 362.24863445 -212.06117821 390.12863445 C-164.21117821 390.12863445 -116.36117821 390.12863445 -67.06117821 390.12863445 C-67.06117821 363.06863445 -67.06117821 336.00863445 -67.06117821 308.12863445 C-114.91117821 308.12863445 -162.76117821 308.12863445 -212.06117821 308.12863445 Z M96.93882179 356.12863445 C96.93882179 359.42863445 96.93882179 362.72863445 96.93882179 366.12863445 C124.98882179 366.12863445 153.03882179 366.12863445 181.93882179 366.12863445 C181.93882179 362.82863445 181.93882179 359.52863445 181.93882179 356.12863445 C153.88882179 356.12863445 125.83882179 356.12863445 96.93882179 356.12863445 Z M-52.06117821 368.12863445 C-52.06117821 371.42863445 -52.06117821 374.72863445 -52.06117821 378.12863445 C-49.09117821 378.12863445 -46.12117821 378.12863445 -43.06117821 378.12863445 C-43.06117821 374.82863445 -43.06117821 371.52863445 -43.06117821 368.12863445 C-46.03117821 368.12863445 -49.00117821 368.12863445 -52.06117821 368.12863445 Z M66.93882179 380.12863445 C66.93882179 383.42863445 66.93882179 386.72863445 66.93882179 390.12863445 C114.78882179 390.12863445 162.63882179 390.12863445 211.93882179 390.12863445 C211.93882179 386.82863445 211.93882179 383.52863445 211.93882179 380.12863445 C164.08882179 380.12863445 116.23882179 380.12863445 66.93882179 380.12863445 Z " fill="#000000" transform="translate(247.06117820739746,88.87136554718018)"/>
<path d="M0 0 C1.0209375 -0.01160156 1.0209375 -0.01160156 2.0625 -0.0234375 C4 0.375 4 0.375 5.73828125 1.41796875 C7.69555285 4.45386061 7.31434945 7.57901893 7.1875 11.0625 C7.16719727 12.1153418 7.16719727 12.1153418 7.14648438 13.18945312 C7.11120182 14.91829829 7.05739583 16.64674765 7 18.375 C7.94746094 18.46974609 7.94746094 18.46974609 8.9140625 18.56640625 C15.83073358 19.51321281 21.24959029 21.68954727 27.31494141 24.98657227 C30.11648584 26.5005221 31.75658571 27.375 35 27.375 C36.8785802 25.5942287 36.8785802 25.5942287 38.75 23.375 C41.64868743 20.36974318 42.53788905 19.46742219 46.75 18.625 C50.54533373 19.50084625 51.89596071 20.09269871 54 23.375 C54.8125 26.5625 54.8125 26.5625 54 30.375 C51.27064704 33.69034557 48.22816031 36.55035973 45 39.375 C45.55429688 40.40238281 46.10859375 41.42976563 46.6796875 42.48828125 C50.81550449 50.33495054 54.23825155 57.38636826 55 66.375 C56.04800781 66.34019531 57.09601563 66.30539063 58.17578125 66.26953125 C59.55467147 66.24139063 60.93357902 66.21409076 62.3125 66.1875 C63.00279297 66.16236328 63.69308594 66.13722656 64.40429688 66.11132812 C69.47699139 66.03781081 69.47699139 66.03781081 71.95703125 67.63671875 C73.20022158 69.70870263 73.40236315 70.96704293 73.375 73.375 C73.38273438 74.055625 73.39046875 74.73625 73.3984375 75.4375 C73 77.375 73 77.375 71.95703125 79.11328125 C68.92113939 81.07055285 65.79598107 80.68934945 62.3125 80.5625 C61.61060547 80.54896484 60.90871094 80.53542969 60.18554688 80.52148438 C58.45670171 80.48620182 56.72825235 80.43239583 55 80.375 C54.93683594 81.00664063 54.87367188 81.63828125 54.80859375 82.2890625 C53.86178719 89.20573358 51.68545273 94.62459029 48.38842773 100.68994141 C46.8744779 103.49148584 46 105.13158571 46 108.375 C47.7807713 110.2535802 47.7807713 110.2535802 50 112.125 C53.00525682 115.02368743 53.90757781 115.91288905 54.75 120.125 C53.87415375 123.92033373 53.28230129 125.27096071 50 127.375 C46.8125 128.1875 46.8125 128.1875 43 127.375 C39.68465443 124.64564704 36.82464027 121.60316031 34 118.375 C32.97261719 118.92929688 31.94523437 119.48359375 30.88671875 120.0546875 C23.04004946 124.19050449 15.98863174 127.61325155 7 128.375 C7.05220703 129.94701172 7.05220703 129.94701172 7.10546875 131.55078125 C7.13360937 132.92967147 7.16090924 134.30857902 7.1875 135.6875 C7.21263672 136.37779297 7.23777344 137.06808594 7.26367188 137.77929688 C7.33718919 142.85199139 7.33718919 142.85199139 5.73828125 145.33203125 C3.66629737 146.57522158 2.40795707 146.77736315 0 146.75 C-0.680625 146.75773438 -1.36125 146.76546875 -2.0625 146.7734375 C-4 146.375 -4 146.375 -5.73828125 145.33203125 C-7.69555285 142.29613939 -7.31434945 139.17098107 -7.1875 135.6875 C-7.16719727 134.6346582 -7.16719727 134.6346582 -7.14648438 133.56054688 C-7.11120182 131.83170171 -7.05739583 130.10325235 -7 128.375 C-7.63164063 128.31183594 -8.26328125 128.24867188 -8.9140625 128.18359375 C-15.83073358 127.23678719 -21.24959029 125.06045273 -27.31494141 121.76342773 C-30.11648584 120.2494779 -31.75658571 119.375 -35 119.375 C-36.8785802 121.1557713 -36.8785802 121.1557713 -38.75 123.375 C-41.64868743 126.38025682 -42.53788905 127.28257781 -46.75 128.125 C-50.54533373 127.24915375 -51.89596071 126.65730129 -54 123.375 C-54.8125 120.1875 -54.8125 120.1875 -54 116.375 C-51.27064704 113.05965443 -48.22816031 110.19964027 -45 107.375 C-45.55429687 106.34761719 -46.10859375 105.32023437 -46.6796875 104.26171875 C-50.81550449 96.41504946 -54.23825155 89.36363174 -55 80.375 C-56.04800781 80.40980469 -57.09601562 80.44460937 -58.17578125 80.48046875 C-59.55467147 80.50860937 -60.93357902 80.53590924 -62.3125 80.5625 C-63.00279297 80.58763672 -63.69308594 80.61277344 -64.40429688 80.63867188 C-69.47699139 80.71218919 -69.47699139 80.71218919 -71.95703125 79.11328125 C-73.20022158 77.04129737 -73.40236315 75.78295707 -73.375 73.375 C-73.38273437 72.694375 -73.39046875 72.01375 -73.3984375 71.3125 C-73 69.375 -73 69.375 -71.95703125 67.63671875 C-68.92113939 65.67944715 -65.79598107 66.06065055 -62.3125 66.1875 C-61.61060547 66.20103516 -60.90871094 66.21457031 -60.18554688 66.22851562 C-58.45670171 66.26379818 -56.72825235 66.31760417 -55 66.375 C-54.93683594 65.74335937 -54.87367187 65.11171875 -54.80859375 64.4609375 C-53.86178719 57.54426642 -51.68545273 52.12540971 -48.38842773 46.06005859 C-46.8744779 43.25851416 -46 41.61841429 -46 38.375 C-47.7807713 36.4964198 -47.7807713 36.4964198 -50 34.625 C-53.00525682 31.72631257 -53.90757781 30.83711095 -54.75 26.625 C-53.87415375 22.82966627 -53.28230129 21.47903929 -50 19.375 C-46.8125 18.5625 -46.8125 18.5625 -43 19.375 C-39.68465443 22.10435296 -36.82464027 25.14683969 -34 28.375 C-32.97261719 27.82070313 -31.94523437 27.26640625 -30.88671875 26.6953125 C-23.04004946 22.55949551 -15.98863174 19.13674845 -7 18.375 C-7.05220703 16.80298828 -7.05220703 16.80298828 -7.10546875 15.19921875 C-7.13360937 13.82032853 -7.16090924 12.44142098 -7.1875 11.0625 C-7.21263672 10.37220703 -7.23777344 9.68191406 -7.26367188 8.97070312 C-7.33718919 3.89800861 -7.33718919 3.89800861 -5.73828125 1.41796875 C-3.66629737 0.17477842 -2.40795707 -0.02736315 0 0 Z M-30.90234375 46.62890625 C-32.76131034 49.14027972 -34.4099549 51.68601234 -36 54.375 C-36.43699219 55.11234375 -36.87398437 55.8496875 -37.32421875 56.609375 C-41.62966633 65.37133849 -41.49259749 76.60785736 -39.08203125 85.921875 C-34.53203065 97.52511277 -27.57654143 105.04076008 -16.44921875 110.6640625 C-6.85953528 114.81014649 1.90982658 115.15545926 12 112.375 C24.55245172 107.24264264 32.47223386 100.10168025 38.4375 87.875 C41.8211371 78.54793076 41.47154197 66.92176398 37.875 57.75 C33.29004446 48.49068866 27.92962541 42.65524257 19 37.375 C18.26265625 36.93800781 17.5253125 36.50101563 16.765625 36.05078125 C1.05972167 28.3332253 -19.82111858 33.49981606 -30.90234375 46.62890625 Z " fill="#000000" transform="translate(92,18.625)"/>
<path d="M0 0 C3.375 1.0625 3.375 1.0625 5.375 2.5625 C8.31113703 9.90284258 4.12916076 18.20912321 1.375 25.0625 C2.06207031 25.02769531 2.74914062 24.99289062 3.45703125 24.95703125 C4.35808594 24.92996094 5.25914063 24.90289062 6.1875 24.875 C7.52748047 24.82279297 7.52748047 24.82279297 8.89453125 24.76953125 C11.89370679 25.12376458 12.53004373 25.73659359 14.375 28.0625 C15.17868401 35.65618725 13.2297383 41.76859957 10.6875 48.875 C10.17799805 50.40930664 10.17799805 50.40930664 9.65820312 51.97460938 C6.34493495 61.43135797 6.34493495 61.43135797 1.375 64.0625 C-2.39421853 64.0625 -4.62808193 63.84134224 -7.625 61.5 C-10.51897127 54.44594503 -6.02691986 45.76553217 -3.625 39.0625 C-4.65560547 39.11470703 -4.65560547 39.11470703 -5.70703125 39.16796875 C-6.60808594 39.19503906 -7.50914063 39.22210938 -8.4375 39.25 C-9.77748047 39.30220703 -9.77748047 39.30220703 -11.14453125 39.35546875 C-13.625 39.0625 -13.625 39.0625 -15.44921875 38.05078125 C-17.85336891 33.98529144 -17.03718887 29.71096001 -15.94384766 25.33837891 C-15.01806281 22.31907514 -13.9975816 19.34969935 -12.9375 16.375 C-12.59783203 15.35599609 -12.25816406 14.33699219 -11.90820312 13.28710938 C-7.30307629 0.12591511 -7.30307629 0.12591511 0 0 Z " fill="#000000" transform="translate(108.625,405.9375)"/>
<path d="M0 0 C2.72756352 0.44574968 3.38700041 1.07844235 5.0078125 3.328125 C5.3059809 5.87999644 5.42847976 8.18315007 5.40625 10.734375 C5.41055527 11.81603943 5.41055527 11.81603943 5.41494751 12.91955566 C5.41698702 14.44263495 5.41146497 15.9657405 5.39892578 17.48876953 C5.38286893 19.81993178 5.3987766 22.14936042 5.41796875 24.48046875 C5.4159863 25.96094133 5.41214257 27.44141282 5.40625 28.921875 C5.41535904 29.96728455 5.41535904 29.96728455 5.4246521 31.03381348 C5.38234715 33.94515122 5.34144261 35.86754138 3.60400391 38.26611328 C0.64050786 40.23784895 -2.58179614 39.86211112 -5.9921875 39.328125 C-8.66650239 37.51649233 -8.95139109 36.45051423 -9.9921875 33.328125 C-10.25414786 28.87400502 -10.22363869 24.4141143 -10.2421875 19.953125 C-10.2628125 18.72078125 -10.2834375 17.4884375 -10.3046875 16.21875 C-10.30984375 15.03023438 -10.315 13.84171875 -10.3203125 12.6171875 C-10.3296582 11.53131348 -10.33900391 10.44543945 -10.34863281 9.32666016 C-9.49035673 2.10655961 -6.74323498 0.24882786 0 0 Z " fill="#000000" transform="translate(53.9921875,423.671875)"/>
</svg>
