<?xml version="1.0" encoding="UTF-8"?>
<svg version="1.1" xmlns="http://www.w3.org/2000/svg" width="512" height="512">
<path d="M0 0 C0.69626999 -0.00671722 1.39253998 -0.01343445 2.10990906 -0.02035522 C4.4119683 -0.03935591 6.71373637 -0.04326029 9.01586914 -0.04541016 C10.61625794 -0.05183623 12.21664555 -0.05856445 13.81703186 -0.06558228 C17.17199427 -0.07755989 20.52685366 -0.08126256 23.88183594 -0.08007812 C28.18067403 -0.07987481 32.47885197 -0.10718734 36.77753353 -0.14162254 C40.08296238 -0.16385994 43.38823149 -0.16791666 46.69372749 -0.16685867 C48.278573 -0.16921901 49.86342262 -0.1780669 51.4481945 -0.19352341 C53.66515227 -0.21312244 55.88067535 -0.20737113 58.09765625 -0.1953125 C59.35879745 -0.19816254 60.61993866 -0.20101257 61.91929626 -0.20394897 C65.79204138 0.39556367 66.72088686 1.25094772 69.11352539 4.29052734 C69.61492205 6.93716049 69.61492205 6.93716049 69.61688995 10.01898193 C69.62732094 11.19490025 69.63775193 12.37081856 69.64849901 13.58237076 C69.63957613 14.87534954 69.63065324 16.16832832 69.62145996 17.50048828 C69.62606772 18.88702932 69.6324198 20.27356549 69.64036894 21.6600914 C69.65710294 25.47439282 69.64879768 29.28829513 69.63642406 33.10259819 C69.62739242 37.21446341 69.64133389 41.32625888 69.65234375 45.43811035 C69.6701538 53.49486634 69.66627796 61.55147348 69.65469319 69.60823536 C69.64566889 76.1546482 69.64443051 82.70101925 69.64878845 89.24743652 C69.64940138 90.17826105 69.65001432 91.10908557 69.65064582 92.0681169 C69.65192469 93.95891986 69.65322154 95.8497228 69.65453619 97.74052572 C69.66594927 115.4811164 69.65281688 133.22162447 69.63133472 150.9622016 C69.61346308 166.19277864 69.61656698 181.42323375 69.63500977 196.65380859 C69.65640364 214.32982009 69.66485056 232.00575914 69.65256071 249.68178177 C69.65128648 251.56572722 69.650029 253.44967269 69.64878845 255.33361816 C69.6478628 256.72411554 69.6478628 256.72411554 69.64691845 258.14270377 C69.64346109 264.68316619 69.64930218 271.22358276 69.65870667 277.76403809 C69.66991157 285.73195881 69.66691847 293.69972187 69.64558369 301.66762447 C69.63505285 305.7349713 69.63098581 309.802055 69.6441803 313.86940002 C69.65606832 317.59021811 69.64960178 321.3105283 69.62827009 325.03130007 C69.62165981 327.02042847 69.63477223 329.00959191 69.64849901 330.99868393 C69.63285253 332.7625614 69.63285253 332.7625614 69.61688995 334.56207275 C69.61624054 335.57907383 69.61559114 336.59607491 69.61492205 337.6438942 C68.97336069 341.03038976 67.82279458 342.21645497 65.11352539 344.29052734 C62.44426056 344.67228031 60.26842337 344.8153966 57.61352539 344.72802734 C56.54448975 344.70494507 56.54448975 344.70494507 55.45385742 344.68139648 C39.60968339 344.11083558 26.07081788 337.40284697 14.11352539 327.29052734 C2.91418231 318.05558517 -10.56037568 312.57351756 -25.21850586 313.50146484 C-38.31328583 315.03183604 -47.58659192 319.64763878 -57.73022461 327.79443359 C-75.47395564 342.00344935 -93.64655033 345.8258046 -115.88647461 344.29052734 C-130.65535853 342.44753528 -142.26605683 334.85036771 -153.42358398 325.57617188 C-158.51300885 321.41221735 -163.62485489 318.40955109 -169.88647461 316.29052734 C-170.94479492 315.92958984 -172.00311523 315.56865234 -173.09350586 315.19677734 C-187.06314749 311.85902569 -201.30462062 313.92139085 -213.76147461 320.85302734 C-217.32528034 323.0889182 -220.52712694 325.60876104 -223.75927734 328.28466797 C-240.90314623 342.40680157 -259.02649703 345.76954106 -280.88647461 344.29052734 C-296.12040425 342.47028479 -308.7120963 334.4906229 -319.97241211 324.62646484 C-330.3540673 316.30444098 -343.16587028 312.60088987 -356.35522461 313.53662109 C-368.93691992 315.0819815 -379.76692315 319.17097588 -388.88647461 328.29052734 C-393.09546459 328.98931719 -396.74059217 328.9612878 -400.44897461 326.79052734 C-402.50186438 323.22028426 -402.92986865 320.21990489 -401.88647461 316.29052734 C-395.97957691 306.50256329 -380.10910311 299.90986363 -369.56225586 297.13818359 C-355.49961937 294.15651912 -339.19223566 294.71461442 -325.88647461 300.29052734 C-324.85780273 300.71462891 -323.82913086 301.13873047 -322.76928711 301.57568359 C-316.23391273 304.56067011 -311.04878165 308.40920874 -305.59741211 313.04833984 C-294.00408766 322.63705488 -280.91383585 328.12410684 -265.73022461 327.07177734 C-252.40271201 325.42170436 -241.98436149 319.89253459 -231.68725586 311.49755859 C-214.77762187 297.74519917 -196.11906992 294.52745011 -174.88647461 296.29052734 C-162.2691568 298.04384294 -150.9687244 304.21623844 -141.31225586 312.27099609 C-129.24866221 322.31427776 -116.2843804 327.81781014 -100.30444336 327.13818359 C-87.81176926 325.69195341 -78.43281007 321.27053833 -68.88647461 313.29052734 C-54.83575678 302.15355284 -39.99783454 295.66099214 -21.94897461 295.91552734 C-20.8906543 295.92712891 -19.83233398 295.93873047 -18.74194336 295.95068359 C-0.32360185 296.33724138 13.88970717 303.36833256 27.80664062 315.05761719 C35.56137997 321.49220325 43.56139138 324.10648267 53.11352539 327.29052734 C53.11352539 224.66052734 53.11352539 122.03052734 53.11352539 16.29052734 C36.61352539 16.29052734 20.11352539 16.29052734 3.11352539 16.29052734 C1.62852539 21.24052734 1.62852539 21.24052734 0.11352539 26.29052734 C-0.53277264 28.207177 -1.1957513 30.11839659 -1.88500977 32.02001953 C-2.43402199 33.54069283 -2.43402199 33.54069283 -2.99412537 35.09208679 C-3.38399124 36.16304092 -3.77385712 37.23399506 -4.17553711 38.33740234 C-4.59106339 39.48525711 -5.00658966 40.63311188 -5.43470764 41.81575012 C-6.55742586 44.91461049 -7.68270964 48.01252221 -8.80947495 51.10991287 C-9.51732338 53.05661243 -10.22412108 55.00369029 -10.93057251 56.95089722 C-18.78728612 78.60573848 -26.74361965 100.22299754 -34.75131226 121.82244873 C-38.77471759 132.67944488 -42.76979145 143.54683535 -46.76147461 154.41552734 C-47.12950195 155.41748138 -47.4975293 156.41943542 -47.87670898 157.45175171 C-54.74995077 176.16753042 -61.59526963 194.89350485 -68.4309082 213.62304688 C-68.99410515 215.16211952 -68.99410515 215.16211952 -69.56867981 216.73228455 C-70.3062455 218.75782159 -71.03717267 220.78578887 -71.76127625 222.81617737 C-73.34635946 227.2368935 -74.96666434 231.56985557 -76.96630859 235.82104492 C-83.66992216 250.57208065 -82.77015653 266.09430044 -82.59753418 281.95709229 C-82.53511569 287.97368459 -82.51632807 293.98996453 -82.52735329 300.00683784 C-82.52326759 302.09248001 -82.4930812 304.17658484 -82.46037292 306.26194763 C-82.4560601 308.15155968 -82.4560601 308.15155968 -82.45166016 310.0793457 C-82.43942917 311.18563828 -82.42719818 312.29193085 -82.41459656 313.43174744 C-82.99669475 316.95827426 -84.11109709 318.11422101 -86.88647461 320.29052734 C-88.88647461 320.82177734 -88.88647461 320.82177734 -90.88647461 320.79052734 C-91.87647461 320.80599609 -91.87647461 320.80599609 -92.88647461 320.82177734 C-95.83374894 320.0389076 -96.97676224 318.64591767 -98.88647461 316.29052734 C-99.48188782 313.34768677 -99.48188782 313.34768677 -99.61035156 309.86523438 C-99.66413971 308.55074814 -99.71792786 307.2362619 -99.77334595 305.88194275 C-99.80922636 304.43745855 -99.84296716 302.99291988 -99.87475586 301.54833984 C-99.89552563 300.81125353 -99.91629539 300.07416721 -99.93769455 299.31474495 C-100.09419153 293.68186627 -100.16398149 288.05036124 -100.19897461 282.41552734 C-100.20516941 281.58576511 -100.21136421 280.75600288 -100.21774673 279.90109634 C-100.37775928 252.70048729 -97.21316241 230.47684339 -85.62463379 205.56593323 C-80.97066554 195.54376431 -77.32623474 185.1867237 -73.62808228 174.78250122 C-71.68428101 169.33495756 -69.69153187 163.90541574 -67.70288086 158.47412109 C-66.90736538 156.29561137 -66.11195581 154.11706298 -65.31665039 151.93847656 C-61.18634495 140.63436163 -57.03679089 129.33730715 -52.88647461 118.04052734 C-52.50089386 116.99069672 -52.11531311 115.94086609 -51.7180481 114.85922241 C-50.62870728 111.89348684 -49.53894013 108.92790837 -48.44897461 105.96240234 C-47.97215492 104.66442467 -47.97215492 104.66442467 -47.48570251 103.34022522 C-45.63824095 98.31641534 -43.77115684 93.30049686 -41.88647461 88.29052734 C-60.18706293 88.31685711 -60.18706293 88.31685711 -77.88647461 92.29052734 C-79.53389648 92.87447266 -79.53389648 92.87447266 -81.21459961 93.47021484 C-91.69844313 97.55752829 -101.30592065 103.4937574 -109.16772461 111.60302734 C-111.88647461 114.29052734 -111.88647461 114.29052734 -113.88647461 114.29052734 C-114.27512695 115.16837891 -114.27512695 115.16837891 -114.67163086 116.06396484 C-115.97570508 118.45406873 -117.41191775 119.98359463 -119.32397461 121.91552734 C-140.44376601 145.29678461 -149.67329063 178.21995336 -155.88647461 208.29052734 C-156.4172276 210.85573699 -156.95910064 213.41727829 -157.51147461 215.97802734 C-157.70999023 216.95126953 -157.90850586 217.92451172 -158.11303711 218.92724609 C-158.97321255 221.55555993 -159.63595331 222.69489215 -161.88647461 224.29052734 C-164.00756836 224.75927734 -164.00756836 224.75927734 -166.32397461 224.79052734 C-167.46672852 224.83693359 -167.46672852 224.83693359 -168.63256836 224.88427734 C-172.03603094 223.98769795 -173.08279739 222.23380063 -174.88647461 219.29052734 C-179.4020254 186.51473169 -155.92388179 140.07138048 -136.82446289 114.75219727 C-130.32758137 106.37221182 -123.24875811 98.48155806 -114.71142578 92.13427734 C-113.63558479 91.33280273 -113.63558479 91.33280273 -112.53800964 90.51513672 C-111.7204998 89.90895508 -111.7204998 89.90895508 -110.88647461 89.29052734 C-118.37179746 89.2205409 -125.85708573 89.16747205 -133.34266281 89.13509083 C-136.81978795 89.1195373 -140.29668672 89.09849197 -143.77368164 89.06420898 C-147.78525778 89.02490957 -151.79660192 89.01073313 -155.80834961 88.99755859 C-157.03696716 88.98207474 -158.26558472 88.96659088 -159.53143311 88.95063782 C-182.04274268 88.94631618 -199.91768213 99.02904084 -215.88647461 114.29052734 C-216.5503418 114.87962891 -217.21420898 115.46873047 -217.89819336 116.07568359 C-240.25850704 136.71248425 -250.82521802 169.05787098 -257.56225586 197.73974609 C-258.00204256 199.59039213 -258.443473 201.44064825 -258.88647461 203.29052734 C-259.12672363 204.30711426 -259.36697266 205.32370117 -259.61450195 206.37109375 C-259.86280762 207.36157715 -260.11111328 208.35206055 -260.36694336 209.37255859 C-260.58632568 210.26821533 -260.80570801 211.16387207 -261.03173828 212.08666992 C-261.88647461 214.29052734 -261.88647461 214.29052734 -264.88647461 216.29052734 C-271.88647461 216.95719401 -271.88647461 216.95719401 -275.32397461 214.66552734 C-278.31297901 210.12224066 -278.00371891 206.13414029 -276.98803711 200.96630859 C-276.51218317 198.84149089 -276.01887101 196.7205344 -275.51147461 194.60302734 C-275.24254395 193.46615479 -274.97361328 192.32928223 -274.6965332 191.15795898 C-265.45268523 153.41440177 -248.64812408 111.79829365 -214.88647461 89.29052734 C-222.37179746 89.2205409 -229.85708573 89.16747205 -237.34266281 89.13509083 C-240.81978795 89.1195373 -244.29668672 89.09849197 -247.77368164 89.06420898 C-251.78525778 89.02490957 -255.79660192 89.01073313 -259.80834961 88.99755859 C-261.03696716 88.98207474 -262.26558472 88.96659088 -263.53143311 88.95063782 C-286.59194043 88.94621075 -305.33513726 99.86716709 -321.88647461 115.29052734 C-325.16341404 118.77527269 -328.06015627 122.43372833 -330.88647461 126.29052734 C-331.28044434 126.82210449 -331.67441406 127.35368164 -332.08032227 127.90136719 C-351.01931503 153.76138703 -360.86605264 185.80148008 -365.15991211 217.27490234 C-365.32197899 218.45580696 -365.32197899 218.45580696 -365.48731995 219.66056824 C-366.02471052 223.61206714 -366.53711176 227.56469405 -367.01220703 231.52416992 C-367.20053374 232.98928755 -367.38908188 234.45437675 -367.57788086 235.91943359 C-367.73458252 237.21953369 -367.89128418 238.51963379 -368.05273438 239.85913086 C-368.97222538 243.6434489 -370.16691315 245.53933181 -372.88647461 248.29052734 C-375.10522461 248.95458984 -375.10522461 248.95458984 -377.38647461 248.91552734 C-378.13928711 248.92841797 -378.89209961 248.94130859 -379.66772461 248.95458984 C-383.05305123 247.94137589 -384.10326412 246.28680619 -385.88647461 243.29052734 C-390.39254841 202.43208287 -369.84356059 147.8869959 -345.38647461 115.54052734 C-328.80915772 94.9709667 -308.25446561 77.95923474 -281.88647461 72.29052734 C-278.30996944 71.91783432 -274.7800833 71.89596297 -271.18659973 71.92976379 C-270.16856363 71.92720052 -269.15052752 71.92463724 -268.10164183 71.9219963 C-264.72221764 71.91709168 -261.34324957 71.93349638 -257.96386719 71.94995117 C-255.52877818 71.95079816 -253.09368841 71.9503209 -250.65859985 71.94862366 C-245.43237284 71.94794257 -240.20624718 71.9563998 -234.98005104 71.97333717 C-227.42403552 71.99780911 -219.86807421 72.00554078 -212.31202336 72.00930115 C-200.0502698 72.01585284 -187.7885764 72.03577904 -175.52685547 72.06420898 C-163.6219106 72.09178285 -151.71698212 72.1130001 -139.81201172 72.12573242 C-138.70966479 72.12691468 -138.70966479 72.12691468 -137.58504824 72.12812082 C-133.89795972 72.13203618 -130.21087108 72.13582724 -126.52378237 72.13955653 C-95.97797006 72.17061248 -65.43223072 72.22363754 -34.88647461 72.29052734 C-34.68462614 71.36346432 -34.68462614 71.36346432 -34.47869992 70.41767275 C-34.30070442 69.60697341 -34.12270892 68.79627406 -33.93931961 67.96100807 C-33.67559614 66.75550755 -33.67559614 66.75550755 -33.40654492 65.52565348 C-32.82781682 63.03843152 -32.08356363 60.67748394 -31.1940918 58.28417969 C-30.87325623 57.41232025 -30.55242065 56.54046082 -30.22186279 55.6421814 C-29.87915344 54.72949493 -29.53644409 53.81680847 -29.18334961 52.87646484 C-28.82307678 51.90375641 -28.46280396 50.93104797 -28.09161377 49.92886353 C-27.33114913 47.87896624 -26.56789731 45.83010099 -25.80200195 43.78222656 C-24.64837378 40.69734655 -23.50297253 37.60951645 -22.35913086 34.52099609 C-20.55075651 29.64812109 -18.72486264 24.78218074 -16.88330078 19.92175293 C-16.24229242 18.22974517 -15.60359117 16.53686061 -14.96777344 14.84289551 C-14.16448774 12.70934592 -13.34851286 10.58121344 -12.52709961 8.45458984 C-12.08398438 7.29652832 -11.64086914 6.1384668 -11.18432617 4.9453125 C-8.63912252 -0.26095999 -5.28450355 0.03196498 0 0 Z " fill="#000000" transform="translate(442.886474609375,87.70947265625)"/>
<path d="M0 0 C0.69641602 -0.00700928 1.39283203 -0.01401855 2.11035156 -0.02124023 C4.40730932 -0.03881383 6.70303021 -0.02720107 9 -0.01367188 C10.59896073 -0.01636701 12.19791987 -0.0202496 13.796875 -0.02526855 C17.14599226 -0.03116269 20.49468243 -0.0226038 23.84375 -0.00390625 C28.13478591 0.01888377 32.42482111 0.00576017 36.71582031 -0.01819611 C40.01700366 -0.03265667 43.31795011 -0.02804703 46.61914062 -0.01768494 C48.20117308 -0.01501834 49.78322711 -0.0182851 51.36523438 -0.02760315 C53.57740163 -0.03777366 55.787953 -0.02226378 58 0 C59.8871875 0.00477356 59.8871875 0.00477356 61.8125 0.00964355 C65.73672442 0.63497665 66.66270484 1.33553999 69 4.51757812 C69.3491005 7.40722933 69.4681562 9.90350523 69.390625 12.78320312 C69.38496521 13.57660095 69.37930542 14.36999878 69.37347412 15.18743896 C69.35113147 17.71477286 69.30094176 20.24067478 69.25 22.76757812 C69.22993214 24.48370344 69.21168187 26.19985104 69.1953125 27.91601562 C69.15127395 32.11708593 69.08226326 36.31708947 69 40.51757812 C70.21259365 40.51389095 71.4251873 40.51020378 72.67452621 40.50640488 C101.44656968 40.4198096 130.21861088 40.35383419 158.99075447 40.31331681 C162.5306204 40.30831386 166.07048605 40.30313659 169.61035156 40.29785156 C170.31508741 40.29680232 171.01982325 40.29575308 171.74591473 40.29467204 C183.1631409 40.27725764 194.58028666 40.24571429 205.9974651 40.20896694 C217.70892792 40.17158625 229.42034857 40.14934837 241.1318686 40.14122415 C247.71160668 40.136 254.29116227 40.12368391 260.87084198 40.0946579 C267.0595724 40.06757686 273.24804457 40.05911839 279.43682861 40.0651474 C281.71209362 40.06404389 283.98736697 40.05604683 286.26258087 40.04075623 C289.3618777 40.02094315 292.46019113 40.02560758 295.55950928 40.03656006 C296.46612171 40.02490869 297.37273414 40.01325733 298.30681968 40.00125289 C304.38530435 40.05957527 304.38530435 40.05957527 307.55682755 42.42264175 C309.11653251 44.68673892 309.54253336 45.7954432 309.5 48.51757812 C309.51546875 49.50757813 309.51546875 49.50757813 309.53125 50.51757812 C308.6945657 53.66744843 307.6833462 54.59376873 305 56.51757812 C301.31360327 57.13744988 297.64638234 57.05647361 293.91601562 57.0255127 C292.77202553 57.03175266 291.62803543 57.03799262 290.44937897 57.04442167 C287.27348984 57.05762996 284.09821064 57.05285784 280.92233658 57.0404768 C277.49758887 57.03143873 274.07292458 57.04538981 270.64819336 57.05639648 C263.93898198 57.0741997 257.22994941 57.07033378 250.52073097 57.05874592 C245.0689001 57.04971892 239.6171194 57.04848441 234.1652832 57.05284119 C233.00217676 57.05376058 233.00217676 57.05376058 231.81557322 57.05469856 C230.24044226 57.05597743 228.66531132 57.05727429 227.0901804 57.05858892 C212.3139502 57.06999999 197.5378192 57.05687278 182.76160526 57.03538746 C170.07799965 57.01751598 157.39454047 57.02061994 144.7109375 57.0390625 C129.98823383 57.06045994 115.26561714 57.06890131 100.54290009 57.05661345 C98.97350567 57.05533922 97.40411124 57.05408174 95.8347168 57.05284119 C95.06250872 57.05222408 94.29030065 57.05160698 93.49469233 57.05097118 C88.04827954 57.04751489 82.60192184 57.05335262 77.15551758 57.0627594 C70.5197451 57.07396828 63.88416192 57.07096293 57.24841118 57.04963642 C53.86153619 57.03911081 50.47497703 57.03502942 47.08810425 57.04823303 C43.41974576 57.05910741 39.75228511 57.04552166 36.08398438 57.0255127 C35.0088987 57.03443558 33.93381302 57.04335847 32.82614899 57.05255175 C25.63958529 56.97612507 25.63958529 56.97612507 22.3404541 54.61083221 C20.89701256 52.35675287 20.45848813 51.17433807 20.5 48.51757812 C20.48453125 47.52757812 20.48453125 47.52757812 20.46875 46.51757812 C21.25397231 43.56144709 22.62505125 42.41773252 25 40.51757812 C28.02441406 40.06347656 28.02441406 40.06347656 31.515625 40.12695312 C32.76601562 40.13984375 34.01640625 40.15273437 35.3046875 40.16601562 C37.25761719 40.21628906 37.25761719 40.21628906 39.25 40.26757812 C40.56742188 40.285625 41.88484375 40.30367187 43.2421875 40.32226562 C46.49510156 40.36940931 49.74764217 40.44115196 53 40.51757812 C53 32.59757812 53 24.67757812 53 16.51757812 C36.5 16.51757812 20 16.51757812 3 16.51757812 C2.01 19.81757812 1.02 23.11757812 0 26.51757812 C-0.64629803 28.43422778 -1.30927669 30.34544737 -1.99853516 32.24707031 C-2.3645433 33.26085251 -2.73055145 34.2746347 -3.10765076 35.31913757 C-3.49751663 36.39009171 -3.88738251 37.46104584 -4.2890625 38.56445312 C-4.70458878 39.71230789 -5.12011505 40.86016266 -5.54823303 42.0428009 C-6.67095125 45.14166127 -7.79623503 48.23957299 -8.92300034 51.33696365 C-9.63084877 53.28366321 -10.33764647 55.23074107 -11.0440979 57.177948 C-18.90081151 78.83278926 -26.85714505 100.45004832 -34.86483765 122.04949951 C-38.88824298 132.90649566 -42.88331685 143.77388613 -46.875 154.64257812 C-47.24302734 155.64453217 -47.61105469 156.64648621 -47.99023438 157.67880249 C-54.86347616 176.3945812 -61.70879502 195.12055563 -68.54443359 213.85009766 C-68.91989822 214.87614609 -69.29536285 215.90219452 -69.6822052 216.95933533 C-70.41977089 218.98487237 -71.15069806 221.01283965 -71.87480164 223.04322815 C-73.45988485 227.46394428 -75.08018973 231.79690635 -77.07983398 236.0480957 C-83.78344755 250.79913144 -82.88368192 266.32135122 -82.71105957 282.18414307 C-82.64864108 288.20073538 -82.62985346 294.21701531 -82.64087868 300.23388863 C-82.63679298 302.31953079 -82.60660659 304.40363562 -82.57389832 306.48899841 C-82.5710231 307.74873978 -82.56814789 309.00848114 -82.56518555 310.30639648 C-82.55295456 311.41268906 -82.54072357 312.51898163 -82.52812195 313.65879822 C-83.11022014 317.18532504 -84.22462248 318.34127179 -87 320.51757812 C-89 321.04882812 -89 321.04882812 -91 321.01757812 C-91.66 321.02789062 -92.32 321.03820312 -93 321.04882812 C-95.94727433 320.26595838 -97.09028763 318.87296845 -99 316.51757812 C-99.59541321 313.57473755 -99.59541321 313.57473755 -99.72387695 310.09228516 C-99.7776651 308.77779892 -99.83145325 307.46331268 -99.88687134 306.10899353 C-99.92275175 304.66450933 -99.95649255 303.21997066 -99.98828125 301.77539062 C-100.00905102 301.03830431 -100.02982079 300.30121799 -100.05121994 299.54179573 C-100.20771692 293.90891705 -100.27750688 288.27741202 -100.3125 282.64257812 C-100.3186948 281.8128159 -100.3248896 280.98305367 -100.33127213 280.12814713 C-100.49128467 252.92753807 -97.3266878 230.70389417 -85.73815918 205.79298401 C-81.08586707 195.7744246 -77.44251 185.42129621 -73.74572754 175.02081299 C-71.78133041 169.51602221 -69.76736816 164.02944493 -67.7578125 158.54101562 C-66.9598493 156.35583503 -66.16199729 154.17061384 -65.36425781 151.98535156 C-59.71858176 136.5335696 -54.03584261 121.09535167 -48.35838318 105.65522766 C-45.33100237 97.42102844 -42.30958512 89.18464945 -39.28938293 80.94781494 C-36.30604755 72.81322112 -33.31401237 64.68184924 -30.31925964 56.55145264 C-28.06023268 50.41386293 -25.81632599 44.27096273 -23.58236694 38.12420654 C-22.11910595 34.10372861 -20.64694782 30.0865459 -19.1729126 26.07000732 C-18.48090691 24.17810593 -17.79279821 22.28477401 -17.10882568 20.38995361 C-16.16863643 17.78672482 -15.21488967 15.18885527 -14.2578125 12.59179688 C-13.98567932 11.82758926 -13.71354614 11.06338165 -13.4331665 10.27601624 C-10.61083472 2.7068929 -8.21316702 0.02077485 0 0 Z " fill="#000000" transform="translate(99,87.482421875)"/>
<path d="M0 0 C1.09723389 0.00757324 2.19446777 0.01514648 3.32495117 0.02294922 C11.7301605 0.19332928 18.87245044 1.16252492 26.6875 4.4375 C27.71617188 4.86160156 28.74484375 5.28570312 29.8046875 5.72265625 C36.34006188 8.70764277 41.52519296 12.5561814 46.9765625 17.1953125 C58.56988695 26.78402754 71.66013876 32.27107949 86.84375 31.21875 C100.1712626 29.56867701 110.58961312 24.03950724 120.88671875 15.64453125 C137.79635274 1.89217183 156.45490469 -1.32557723 177.6875 0.4375 C190.30481781 2.19081559 201.60525021 8.3632111 211.26171875 16.41796875 C223.3253124 26.46125042 236.28959421 31.9647828 252.26953125 31.28515625 C264.7738205 29.83758142 274.1247942 25.4064215 283.6875 17.4375 C290.33354795 12.29122393 296.88604781 7.64248255 304.6875 4.4375 C305.63109375 4.04433594 306.5746875 3.65117187 307.546875 3.24609375 C315.49606058 0.4638788 323.00441293 0.05231232 331.375 0 C332.41986572 -0.0100708 333.46473145 -0.0201416 334.54125977 -0.03051758 C344.50165151 0.08024946 353.19627673 2.32866626 362.0625 6.8125 C363.20460938 7.37710937 364.34671875 7.94171875 365.5234375 8.5234375 C369.30964784 10.81386104 372.99308865 13.1213578 374.31640625 17.53515625 C374.2059812 20.80243864 373.87709029 23.12151619 372.1875 25.9375 C368.59234492 28.09459305 365.68927563 28.34091089 361.6875 27.4375 C358.82834183 26.09226186 356.13922631 24.56039471 353.41015625 22.96875 C341.87889707 16.48345072 329.34563291 16.62142099 316.6875 19.4375 C307.46820513 22.1080766 300.62783357 27.27947317 293.27685547 33.1796875 C275.72938297 47.0667195 257.60038038 50.04807762 235.6875 48.4375 C230.02791315 47.55498082 224.92014819 45.72183419 219.6875 43.4375 C218.73488281 43.02628906 217.78226562 42.61507812 216.80078125 42.19140625 C210.22412071 38.95588128 204.86096318 34.41374952 199.25170898 29.77368164 C194.12233094 25.60388782 188.98233844 22.56776545 182.6875 20.4375 C181.62917969 20.0765625 180.57085937 19.715625 179.48046875 19.34375 C165.51082712 16.00599834 151.26935399 18.06836351 138.8125 25 C135.24869427 27.23589086 132.04684767 29.7557337 128.81469727 32.43164062 C111.67082838 46.55377423 93.54747758 49.91651371 71.6875 48.4375 C56.45357035 46.61725744 43.86187831 38.63759556 32.6015625 28.7734375 C22.21990731 20.45141363 9.40810433 16.74786253 -3.78125 17.68359375 C-18.3172494 19.46899368 -27.99851072 25.10903845 -39.0625 34.4375 C-50.62227168 43.76866366 -64.01335423 48.55546158 -78.8125 48.875 C-79.49554199 48.89747803 -80.17858398 48.91995605 -80.88232422 48.94311523 C-84.20841613 48.92696916 -86.03740683 48.63808877 -88.75 46.66015625 C-90.3976 44.31644525 -90.85661697 43.2609864 -90.8125 40.4375 C-90.8228125 39.7775 -90.833125 39.1175 -90.84375 38.4375 C-90.02904165 35.37036268 -88.88446769 34.30656969 -86.3125 32.4375 C-83.42900306 31.71054244 -80.51744016 31.47632432 -77.5625 31.1875 C-63.22464363 29.3227142 -53.19001631 23.39329331 -42.44140625 13.90234375 C-38.88582878 11.10138322 -35.2841955 9.02281191 -31.25 7 C-30.62544922 6.68224609 -30.00089844 6.36449219 -29.35742188 6.03710938 C-19.83299334 1.46656318 -10.50964545 -0.10209046 0 0 Z " fill="#000000" transform="translate(90.3125,431.5625)"/>
<path d="M0 0 C0.60714844 0.52464844 1.21429688 1.04929687 1.83984375 1.58984375 C10.12021354 9.29040647 13.85128562 18.03024766 16 29 C17.64935547 28.93039062 17.64935547 28.93039062 19.33203125 28.859375 C32.56483614 28.46342572 41.39972071 30.32314857 51.90625 38.90234375 C54.13820129 41.13845913 55.61120951 43.16417942 57 46 C56.87680255 49.57272597 56.76690713 51.99968635 54.5625 54.875 C51.30439923 57.22083256 48.99215204 57.38113569 45 57 C42.40234375 55.3203125 42.40234375 55.3203125 39.9375 53.125 C33.68194878 47.61062784 29.15704358 46.61974911 20.93359375 46.73046875 C18.28289 46.97400877 16.55728527 47.36615716 14.1875 48.5 C10.40833961 50.27842842 8.12815089 50.61157791 4 50 C0.58524606 47.34297248 -0.85009947 45.90457218 -1.56640625 41.58203125 C-1.56511719 40.33808594 -1.56382812 39.09414063 -1.5625 37.8125 C-1.81600611 28.72613245 -3.93959335 21.29784227 -10.22265625 14.53515625 C-17.93663886 7.87230974 -25.46884449 6.62996584 -35.38671875 6.72265625 C-43.52761516 7.34752506 -50.6392391 10.79352109 -56 17 C-61.51542759 25.23732692 -62.13282742 31.5378604 -62.328125 41.37109375 C-63.14682834 45.79304376 -64.48099002 47.28076502 -68 50 C-72.10801555 50.6085949 -74.37727302 50.29890895 -78.125 48.5 C-83.43235483 46.00805913 -89.29373899 46.21292952 -95 47 C-97.45599159 48.08485518 -99.39118158 49.27157466 -101.51171875 50.90625 C-103 52 -103 52 -105 52 C-108.49736009 58.72569248 -110.59279612 65.00868158 -112.15625 72.42578125 C-113 75 -113 75 -116 77 C-123.08768414 77.67501754 -123.08768414 77.67501754 -126.22265625 75.35546875 C-129.62936692 70.84064121 -128.59169075 65.38621584 -128 60 C-125.60985562 49.20899311 -119.30761584 40.91866579 -110.421875 34.5078125 C-100.60620003 28.39676324 -91.17486625 28.5283761 -80 29 C-79.86464844 28.26136719 -79.72929688 27.52273438 -79.58984375 26.76171875 C-76.88946459 14.03597983 -70.18690283 3.91500369 -59.62109375 -3.71875 C-54.02510236 -7.29177737 -48.47668108 -9.57471096 -42 -11 C-40.95972656 -11.23203125 -40.95972656 -11.23203125 -39.8984375 -11.46875 C-25.54525197 -13.83406896 -10.85110753 -9.4012727 0 0 Z " fill="#000000" transform="translate(160,315)"/>
<path d="M0 0 C1.051875 -0.00515625 2.10375 -0.0103125 3.1875 -0.015625 C4.280625 -0.00015625 5.37375 0.0153125 6.5 0.03125 C8.1396875 0.00804688 8.1396875 0.00804688 9.8125 -0.015625 C10.864375 -0.01046875 11.91625 -0.0053125 13 0 C14.43859375 0.00676758 14.43859375 0.00676758 15.90625 0.01367188 C19.21298564 0.673525 20.40908706 1.94238555 22.5 4.53125 C23.03125 6.53125 23.03125 6.53125 23 8.53125 C23.01546875 9.52125 23.01546875 9.52125 23.03125 10.53125 C22.22881508 13.55218148 21.01640747 14.69670778 18.5 16.53125 C15.046875 16.921875 15.046875 16.921875 11.25 16.78125 C9.98671875 16.74515625 8.7234375 16.7090625 7.421875 16.671875 C5.97554687 16.60226563 5.97554687 16.60226563 4.5 16.53125 C4.33025162 17.12219955 4.16050323 17.71314911 3.98561096 18.32200623 C2.05401239 24.91660793 -0.17182146 31.36544077 -2.53515625 37.81640625 C-2.92570694 38.88933426 -3.31625763 39.96226227 -3.71864319 41.06770325 C-4.99710184 44.57742354 -6.27970662 48.08561195 -7.5625 51.59375 C-8.46420818 54.06585297 -9.36573549 56.53802191 -10.26708984 59.01025391 C-18.59447454 81.8415192 -26.97685223 104.65263711 -35.36987305 127.45983887 C-38.0994424 134.87814677 -40.82719623 142.29712164 -43.55371094 149.71655273 C-45.08116618 153.87299497 -46.61062878 158.02869011 -48.14160156 162.18383789 C-51.52491984 171.37388946 -54.88427406 180.57044094 -58.15625 189.80078125 C-58.71158394 191.35943464 -59.26707959 192.91803042 -59.82275391 194.4765625 C-60.82714689 197.29397586 -61.81711192 200.11585473 -62.79833984 202.94140625 C-63.23355957 204.1634375 -63.6687793 205.38546875 -64.1171875 206.64453125 C-64.48440918 207.69423096 -64.85163086 208.74393066 -65.22998047 209.82543945 C-66.60573697 212.75652545 -68.02396077 214.4639894 -70.5 216.53125 C-72.75390625 217.02734375 -72.75390625 217.02734375 -75.0625 216.96875 C-75.82691406 216.96746094 -76.59132813 216.96617187 -77.37890625 216.96484375 C-80.1242505 216.40364078 -80.93046579 215.86408352 -82.5 213.53125 C-84.85889253 206.42568802 -81.71849799 200.37598593 -79.1875 193.65625 C-78.69334702 192.30959341 -78.20064186 190.96240483 -77.70922852 189.61474609 C-76.60480873 186.59525452 -75.49035459 183.57970134 -74.36914062 180.56640625 C-72.35702463 175.15546736 -70.37324274 169.73430333 -68.390625 164.3125 C-64.95544469 154.92615308 -61.50572584 145.54522795 -58.04983521 136.16648865 C-54.25189135 125.85943071 -50.46052264 115.54996541 -46.67233276 105.23931885 C-45.93314428 103.2275115 -45.19382568 101.21575196 -44.45437622 99.20404053 C-40.09754862 87.35073932 -35.75286943 75.49309859 -31.42578125 63.62890625 C-31.00242996 62.46852341 -30.57907867 61.30814056 -30.14289856 60.1125946 C-28.10766717 54.53371611 -26.07397292 48.95428695 -24.04321289 43.3737793 C-22.22910729 38.39232311 -20.40310762 33.4153654 -18.56921387 28.44116211 C-17.84309457 26.46499681 -17.12131872 24.48723124 -16.40344238 22.50805664 C-15.34436726 19.59001571 -14.27136832 16.67743959 -13.1953125 13.765625 C-12.88141571 12.89077454 -12.56751892 12.01592407 -12.24411011 11.11456299 C-9.75757507 4.45622906 -7.7959742 0.03667461 0 0 Z " fill="#000000" transform="translate(457.5,127.46875)"/>
<path d="M0 0 C7.14288418 5.20254213 13.37486543 11.4859917 16.67578125 19.73828125 C18.13587944 22.93378235 18.85107922 24.14656685 22.046875 25.69921875 C24.11777714 26.31653225 26.19929457 26.89914453 28.2890625 27.44921875 C37.1387318 30.20440845 44.33691659 37.00348079 48.86328125 44.94921875 C52.07215206 51.16640594 53.58497703 55.88992458 53.73828125 62.92578125 C53.79435547 64.611875 53.79435547 64.611875 53.8515625 66.33203125 C53.42578125 69.42578125 53.42578125 69.42578125 51.65625 71.80078125 C49.30250882 73.51559094 48.290424 73.97054129 45.42578125 73.92578125 C44.43578125 73.94125 44.43578125 73.94125 43.42578125 73.95703125 C40.45911555 73.16901067 39.30007121 71.83217895 37.42578125 69.42578125 C36.51953125 66.40234375 36.51953125 66.40234375 35.92578125 63.05078125 C34.8672794 57.84014509 33.6754588 54.57192157 30.42578125 50.42578125 C30.42578125 49.76578125 30.42578125 49.10578125 30.42578125 48.42578125 C29.88953125 48.15765625 29.35328125 47.88953125 28.80078125 47.61328125 C26.42578125 46.42578125 26.42578125 46.42578125 23.92578125 44.92578125 C19.71341633 43.120482 15.76489676 42.65033984 11.23046875 42.1484375 C7.80475683 41.265768 6.57804291 40.20738728 4.42578125 37.42578125 C3.37109375 34.91015625 3.37109375 34.91015625 2.55078125 32.17578125 C-0.90023723 22.2076471 -6.16230854 17.1074371 -15.57421875 12.42578125 C-23.08747334 9.92136305 -33.108578 10.16637506 -40.26171875 13.61328125 C-44.79302088 16.30018402 -48.09156423 19.64659582 -51.44921875 23.67578125 C-54.45851689 26.15402677 -56.7170908 26.35811234 -60.57421875 26.42578125 C-63.52177607 25.08015726 -65.11699147 24.34023581 -66.57421875 21.42578125 C-67.12617132 17.42412509 -67.44942194 14.87164984 -65.328125 11.3671875 C-49.14926758 -7.80083527 -21.80363735 -13.33363559 0 0 Z " fill="#000000" transform="translate(274.57421875,326.57421875)"/>
<path d="M0 0 C0.83144531 0.42796875 1.66289062 0.8559375 2.51953125 1.296875 C8.58759601 4.22195042 14.65094839 5.03693786 21.28198242 5.75732422 C25.00583125 6.21457892 27.28323384 6.52359521 30.3671875 8.76171875 C31.92748806 11.06264197 32.37498723 12.1726922 32.33203125 14.921875 C32.34234375 15.581875 32.35265625 16.241875 32.36328125 16.921875 C31.55509929 19.96444239 30.37826147 21.07888932 27.83203125 22.921875 C25.04039789 23.33187731 22.73888753 23.4932126 19.95703125 23.421875 C19.20542725 23.40979004 18.45382324 23.39770508 17.67944336 23.38525391 C6.50017551 22.99573238 -4.2388586 19.84009051 -13.16796875 12.921875 C-15.50965639 9.40934354 -15.66420552 8.05718144 -15.16796875 3.921875 C-11.12014676 -2.35922808 -6.74263806 -3.35309568 0 0 Z " fill="#000000" transform="translate(480.16796875,457.078125)"/>
<path d="M0 0 C2.9375 1.5 2.9375 1.5 5 4 C5.84577114 9.32835821 5.84577114 9.32835821 5 12 C-0.45436555 18.62457488 -7.98067354 20.37816875 -16.24511719 21.23193359 C-18.54159125 21.38584105 -20.82376849 21.46505023 -23.125 21.5 C-23.84719727 21.51844971 -24.56939453 21.53689941 -25.31347656 21.5559082 C-28.71361045 21.51539221 -30.68012429 21.23152909 -33.4609375 19.21875 C-35.08363644 16.87942767 -35.54387283 15.80786141 -35.5 13 C-35.51546875 12.01 -35.51546875 12.01 -35.53125 11 C-34.71022033 7.90906476 -33.60342713 6.88400681 -31 5 C-27.89228447 4.13687034 -24.76103533 3.75329531 -21.5625 3.375 C-14.32244598 2.44862599 -7.18151201 -0.76944772 0 0 Z " fill="#000000" transform="translate(35,411)"/>
</svg>
