<?xml version="1.0" encoding="UTF-8"?>
<svg version="1.1" xmlns="http://www.w3.org/2000/svg" width="512" height="512">
<path d="M0 0 C3.9716522 3.68104351 5.46493086 6.54599265 5.75485229 11.98078918 C5.67898512 16.78440097 4.69804712 21.26910498 3.60986328 25.93237305 C3.40159409 26.85612228 3.19332489 27.77987152 2.97874451 28.73161316 C2.28818401 31.78521325 1.58549852 34.83588822 0.8828125 37.88671875 C0.39032204 40.05416939 -0.10137146 42.22180126 -0.59231567 44.38960266 C-1.89286674 50.12302091 -3.20352734 55.85408042 -4.51654053 61.58465576 C-6.06668842 68.3578309 -7.60576197 75.13352821 -9.14557266 81.90905952 C-10.41210758 87.48095552 -11.68155991 93.0521475 -12.95794678 98.62179565 C-15.45970298 109.55463847 -17.90972075 120.49496253 -20.25097656 131.46337891 C-20.69994955 133.54927487 -21.14917329 135.63511688 -21.59866333 137.72090149 C-22.43568308 141.60528485 -23.25303211 145.49308951 -24.05929565 149.38395691 C-24.43471529 151.13090167 -24.81090192 152.87768183 -25.18798828 154.62426758 C-25.34239002 155.39788698 -25.49679176 156.17150639 -25.65587234 156.9685688 C-27.18094633 163.87944925 -30.28775406 169.4877869 -35.4375 174.375 C-34.963125 175.055625 -34.48875 175.73625 -34 176.4375 C-32.2149364 179.79341956 -31.80596914 182.61661481 -31.4375 186.375 C-30.64085937 186.34019531 -29.84421875 186.30539063 -29.0234375 186.26953125 C-27.43402344 186.22892578 -27.43402344 186.22892578 -25.8125 186.1875 C-24.76835937 186.15269531 -23.72421875 186.11789063 -22.6484375 186.08203125 C-16.21024777 186.66945732 -11.94645712 190.36045772 -7.25 194.5 C-6.10093593 195.49296975 -4.95118598 196.48514629 -3.80078125 197.4765625 C-3.23311035 197.96801758 -2.66543945 198.45947266 -2.08056641 198.96582031 C0.26600491 200.97836261 2.66170802 202.92765189 5.0625 204.875 C9.6670358 208.62287798 14.20269191 212.44483444 18.7265625 216.2890625 C22.1430954 219.18744823 25.58754838 222.046551 29.0625 224.875 C33.6670358 228.62287798 38.20269191 232.44483444 42.7265625 236.2890625 C46.1430954 239.18744823 49.58754838 242.046551 53.0625 244.875 C57.6670358 248.62287798 62.20269191 252.44483444 66.7265625 256.2890625 C70.1430954 259.18744823 73.58754838 262.046551 77.0625 264.875 C83.3015808 269.95734611 89.44011528 275.15319832 95.5625 280.375 C96.38621094 281.07238281 97.20992188 281.76976562 98.05859375 282.48828125 C98.76113281 283.09027344 99.46367187 283.69226563 100.1875 284.3125 C100.77789062 284.81652344 101.36828125 285.32054687 101.9765625 285.83984375 C105.99414629 289.7287857 107.37671173 292.7084577 107.5625 298.375 C106.71778265 303.23007447 105.51835827 306.48582952 101.875 309.875 C96.3553901 312.37444599 92.53372048 312.85972635 86.75 311.4375 C82.28542553 309.51177446 78.56762265 306.63296134 74.703125 303.71875 C71.2978064 301.17746746 67.82248601 298.76811208 64.3125 296.375 C57.68729938 291.84247439 51.08776406 287.27426884 44.5 282.6875 C43.53022217 282.01243408 42.56044434 281.33736816 41.5612793 280.6418457 C37.55510851 277.85261463 33.54954377 275.06251383 29.54394531 272.27246094 C15.57645657 262.54015695 15.57645657 262.54015695 1.5625 252.875 C-5.05653372 248.33389312 -11.65678237 243.76600603 -18.25 239.1875 C-19.19294922 238.53394531 -20.13589844 237.88039062 -21.10742188 237.20703125 C-39.14354346 224.66895654 -39.14354346 224.66895654 -41.4375 222.375 C-40.74749909 248.52240462 -39.16814197 274.62884671 -37.71102786 300.7419095 C-37.34705224 307.27795722 -36.98665608 313.81420222 -36.62599182 320.35043335 C-36.02156395 331.29881621 -35.41549532 342.24710712 -34.80786133 353.1953125 C-34.76954884 353.88563105 -34.73123635 354.57594961 -34.69176287 355.28718691 C-34.38048231 360.89559475 -34.06910217 366.50399706 -33.75771713 372.1123991 C-33.48402106 377.04205257 -33.21036446 381.97170822 -32.93676758 386.90136719 C-32.89819936 387.59627485 -32.85963114 388.29118251 -32.81989419 389.00714798 C-32.17606229 400.60868229 -31.53441428 412.21033637 -30.89425808 423.81207407 C-30.46602526 431.57020963 -30.03514078 439.3281919 -29.6021899 447.08606553 C-29.33387944 451.90361434 -29.067846 456.72128694 -28.80242538 461.53899574 C-28.67922881 463.76665231 -28.55508918 465.99425695 -28.4299221 468.22180367 C-28.25883519 471.26887906 -28.09116456 474.31612465 -27.92430115 477.36343384 C-27.87440094 478.23736082 -27.82450073 479.1112878 -27.7730884 480.01169741 C-27.46066659 485.80451017 -27.38341499 491.57424602 -27.4375 497.375 C-26.47239502 497.3584436 -26.47239502 497.3584436 -25.48779297 497.34155273 C-22.88775436 497.2995987 -20.28775436 497.27507132 -17.6875 497.25 C-16.76710938 497.23324219 -15.84671875 497.21648437 -14.8984375 497.19921875 C-14.00898438 497.19277344 -13.11953125 497.18632812 -12.203125 497.1796875 C-11.38618164 497.16921387 -10.56923828 497.15874023 -9.72753906 497.14794922 C-7.17927581 497.40060219 -5.59630181 498.01365265 -3.4375 499.375 C-2.03814987 502.17370027 -2.18484595 504.27998792 -2.4375 507.375 C-3.99754293 509.47625078 -4.88990229 510.27402952 -7.48493958 510.75252342 C-8.27470688 510.7536545 -9.06447418 510.75478558 -9.87817383 510.75595093 C-11.24094955 510.76864014 -11.24094955 510.76864014 -12.6312561 510.78158569 C-13.6256369 510.775513 -14.6200177 510.76944031 -15.64453125 510.76318359 C-16.69353607 510.76844055 -17.74254089 510.77369751 -18.82333374 510.77911377 C-22.29903957 510.79234313 -25.77428932 510.78356504 -29.25 510.7734375 C-31.65991301 510.77545738 -34.06982542 510.7783681 -36.47973633 510.78213501 C-41.53375053 510.78656236 -46.58760581 510.78011395 -51.64160156 510.76611328 C-58.12859241 510.74902137 -64.61521093 510.75886033 -71.10218811 510.77683067 C-76.07949645 510.78765731 -81.05671613 510.78422728 -86.0340271 510.7764473 C-88.42630049 510.7744422 -90.81858187 510.77691536 -93.21084595 510.78388596 C-96.55093798 510.79148184 -99.89042214 510.77992182 -103.23046875 510.76318359 C-104.22484955 510.76925629 -105.21923035 510.77532898 -106.2437439 510.78158569 C-107.15226105 510.77312622 -108.0607782 510.76466675 -108.99682617 510.75595093 C-109.78659348 510.75481985 -110.57636078 510.75368877 -111.39006042 510.75252342 C-113.99694079 510.2718458 -114.87590165 509.49278919 -116.4375 507.375 C-116.875 503.875 -116.875 503.875 -116.4375 500.375 C-114.33845749 498.29477361 -112.99434863 497.45462319 -110.05566406 497.03442383 C-109.19682617 497.05013428 -108.33798828 497.06584473 -107.453125 497.08203125 C-106.51855469 497.09169922 -105.58398438 497.10136719 -104.62109375 497.11132812 C-103.65300781 497.13646484 -102.68492187 497.16160156 -101.6875 497.1875 C-100.70394531 497.20103516 -99.72039062 497.21457031 -98.70703125 497.22851562 C-96.28326741 497.26381316 -93.86075993 497.31570962 -91.4375 497.375 C-91.4441066 496.71364737 -91.45071321 496.05229473 -91.45752001 495.37090111 C-91.4957816 488.53746955 -91.26423395 481.75685618 -90.86804199 474.93603516 C-90.80678871 473.8384447 -90.74553542 472.74085424 -90.68242598 471.61000347 C-90.47805551 467.96118549 -90.26930219 464.31263203 -90.06054688 460.6640625 C-89.91249806 458.03681376 -89.76469546 455.40955225 -89.61720276 452.78227234 C-89.29998173 447.1401855 -88.98053451 441.49822833 -88.65956116 435.85635376 C-88.19532993 427.69605942 -87.73469701 419.53556499 -87.27495211 411.37501681 C-86.52858361 398.12829609 -85.77958923 384.88172525 -85.02880859 371.63525391 C-84.30025567 358.78081891 -83.57252558 345.92633791 -82.84619141 333.07177734 C-82.80138647 332.27883569 -82.75658154 331.48589404 -82.71041888 330.66892385 C-82.22148147 322.01542145 -81.73280457 313.36190436 -81.24436188 304.70837402 C-81.18001632 303.56841417 -81.18001632 303.56841417 -81.11437085 302.40542483 C-80.85719451 297.84919405 -80.85719451 297.84919405 -80.60004789 293.2929616 C-80.09806974 284.39837615 -79.59528697 275.50383701 -79.09106839 266.60937828 C-78.73796382 260.38037919 -78.38561145 254.15133779 -78.03352165 247.92228127 C-77.88869213 245.36277403 -77.74356707 242.8032835 -77.59813118 240.24381065 C-77.40031155 236.76194829 -77.20350933 233.28002986 -77.00695801 229.7980957 C-76.94859378 228.77545435 -76.89022956 227.752813 -76.83009672 226.69918251 C-76.77784579 225.76992643 -76.72559485 224.84067036 -76.67176056 223.883255 C-76.62619412 223.07927434 -76.58062768 222.27529367 -76.53368044 221.44694996 C-76.45527037 219.75781495 -76.4375 218.06595394 -76.4375 216.375 C-76.94539062 216.85710937 -77.45328125 217.33921875 -77.9765625 217.8359375 C-78.66492188 218.46757812 -79.35328125 219.09921875 -80.0625 219.75 C-80.73539063 220.37648437 -81.40828125 221.00296875 -82.1015625 221.6484375 C-86.36754337 224.80155379 -91.24907579 225.63391192 -96.41772461 226.37478638 C-97.59213608 226.54581879 -98.76654755 226.7168512 -99.97654724 226.89306641 C-101.25143509 227.07289063 -102.52632294 227.25271484 -103.83984375 227.43798828 C-105.20722362 227.63487271 -106.57453665 227.83222186 -107.94178772 228.02999878 C-111.64603712 228.56421873 -115.35127934 229.09121629 -119.05682373 229.61636972 C-122.16028327 230.05674202 -125.26327805 230.50034343 -128.36629295 230.94383609 C-135.69770866 231.99148297 -143.02998489 233.03294834 -150.36279297 234.07080078 C-157.89730903 235.13733209 -165.43014701 236.21516789 -172.96226215 237.29851353 C-179.45072541 238.23127906 -185.94024839 239.15640502 -192.43063641 240.07568157 C-196.29709271 240.62341976 -200.16308315 241.17402212 -204.02804565 241.73221207 C-207.67121318 242.25807121 -211.315628 242.77428057 -214.96114922 243.28355789 C-216.91309783 243.55855759 -218.86370138 243.84305422 -220.81422424 244.12799072 C-241.53267929 246.99078788 -241.53267929 246.99078788 -249.0625 243.875 C-252.69199701 240.05447683 -255.17916359 236.42853631 -255.6328125 231.06640625 C-255.31319618 225.49192161 -253.68401955 222.16976215 -249.4375 218.375 C-243.03386298 215.62438327 -236.45073181 214.03873514 -229.67919922 212.45166016 C-228.52343384 212.17639999 -227.36766846 211.90113983 -226.17687988 211.61753845 C-223.02396684 210.86774139 -219.87000611 210.12256593 -216.71549368 209.37953234 C-213.38572837 208.59409654 -210.0573452 207.80284492 -206.72879028 207.01229858 C-201.12615501 205.6824985 -195.52263031 204.35650593 -189.91845703 203.03320312 C-182.09289695 201.18535882 -174.26902384 199.33045235 -166.44545722 197.47418904 C-160.95531051 196.17185256 -155.46475647 194.87123451 -149.97412729 193.57093382 C-148.02038181 193.1082396 -146.06666159 192.64543871 -144.11294174 192.18263626 C-136.98211803 190.49449959 -129.84948576 188.81440074 -122.71431732 187.14472198 C-119.48093928 186.38520386 -116.25000475 185.61586387 -113.019104 184.84588623 C-111.04295173 184.38167333 -109.06670004 183.91788341 -107.09033203 183.45458984 C-105.76863667 183.13554404 -105.76863667 183.13554404 -104.4202404 182.81005287 C-97.28682128 181.15515007 -91.41346199 180.65267337 -84.4375 183.375 C-84.01791016 182.52228516 -84.01791016 182.52228516 -83.58984375 181.65234375 C-79.8542752 174.45747056 -75.17446931 168.95613913 -68.4375 164.375 C-68.7675 163.385 -69.0975 162.395 -69.4375 161.375 C-70.46487197 151.72658903 -68.0288209 143.43764254 -64.96875 134.4296875 C-64.49494273 132.99132965 -64.02277499 131.55243084 -63.55212402 130.11303711 C-62.55174665 127.06453809 -61.54068019 124.01989764 -60.52050781 120.97796631 C-58.92099571 116.20852919 -57.34512835 111.43149808 -55.7734375 106.65283203 C-54.1846596 101.8256999 -52.59449063 96.99905772 -50.99560547 92.17526245 C-46.37451688 78.23202882 -41.8841891 64.24988969 -37.4375 50.25 C-35.40030683 43.84215168 -33.35695346 37.43641918 -31.29345703 31.0369873 C-30.70011822 29.19173068 -30.110181 27.34537814 -29.52294922 25.49816895 C-28.60767473 22.62338805 -27.68011332 19.75282189 -26.75 16.8828125 C-26.33983643 15.58185135 -26.33983643 15.58185135 -25.92138672 14.25460815 C-23.98187071 8.32890332 -22.04974384 3.24088846 -16.8125 -0.5 C-10.8946962 -2.47260127 -5.68755099 -2.68866047 0 0 Z M-9.4375 11.375 C-12.08356817 17.2370196 -14.11979037 23.21829148 -16.10546875 29.33203125 C-16.45741302 30.40742157 -16.8093573 31.48281189 -17.17196655 32.59078979 C-18.32637403 36.12192782 -19.47585619 39.65464582 -20.625 43.1875 C-21.43015207 45.65538911 -22.23541063 48.12324347 -23.04077148 50.59106445 C-30.05691034 72.11417676 -36.96654724 93.67117781 -43.83825684 115.24079895 C-45.67488417 121.00068995 -47.52781294 126.75497143 -49.3984375 132.50390625 C-49.83000363 133.83308696 -50.26156319 135.1622698 -50.69311523 136.49145508 C-51.44689659 138.80885395 -52.20388668 141.12521328 -52.96508789 143.44018555 C-56.21123109 151.80762146 -56.21123109 151.80762146 -55.125 160.1875 C-53.62171412 162.46415626 -53.62171412 162.46415626 -51.4375 163.375 C-46.53323177 163.91050299 -46.53323177 163.91050299 -42.32823181 161.73678589 C-40.07021516 158.91621037 -39.41913568 156.78307498 -38.56079102 153.27392578 C-38.40121446 152.63242144 -38.2416379 151.99091709 -38.07722569 151.32997322 C-37.51083421 149.01593657 -36.97216155 146.6965718 -36.4375 144.375 C-36.22504009 143.46065941 -36.01258018 142.54631882 -35.7936821 141.60427094 C-33.97470481 133.74306808 -32.21838576 125.86819322 -30.46484375 117.9921875 C-29.89510107 115.44395799 -29.32507339 112.89579219 -28.754776 110.34768677 C-27.41380165 104.35412171 -26.07585088 98.35988625 -24.73910195 92.36537755 C-22.78258214 83.59225001 -20.82128036 74.82019134 -18.86019993 66.04808235 C-17.45195858 59.74868901 -16.04438786 53.44914795 -14.63890076 47.1491394 C-14.37910431 45.9853476 -14.11930786 44.82155579 -13.85163879 43.62249756 C-13.37282751 41.47753051 -12.89435335 39.33248815 -12.4163208 37.18734741 C-12.19920944 36.2151123 -11.98209808 35.2428772 -11.75840759 34.24118042 C-11.54713163 33.29332546 -11.33585567 32.3454705 -11.11817741 31.36889267 C-10.62631826 29.20549855 -10.12012765 27.04534577 -9.60504341 24.88736343 C-9.32981283 23.73063 -9.05458225 22.57389656 -8.77101135 21.3821106 C-8.51661065 20.329209 -8.26220995 19.27630741 -8.00010014 18.19149971 C-7.3069121 15.19993837 -7.3069121 15.19993837 -7.4375 11.375 C-8.0975 11.375 -8.7575 11.375 -9.4375 11.375 Z M-69.375 184.125 C-70.71946139 188.23747014 -70.68297051 191.24617996 -69.4375 195.375 C-66.89472197 199.61296339 -64.15202942 201.86279245 -59.4375 203.375 C-55.42516341 203.27575493 -51.89101552 202.61547069 -48.78515625 199.96484375 C-46.05087633 196.73918599 -44.52771418 194.31322744 -44.125 190.125 C-44.49679283 185.66348602 -45.57617772 183.77765352 -48.4375 180.375 C-51.89865868 177.4907011 -54.92585145 176.8312162 -59.4453125 177.02734375 C-64.10412181 177.84035165 -66.73659777 180.38017103 -69.375 184.125 Z M-109.52880859 197.9519043 C-110.73147369 198.23794022 -111.93413879 198.52397614 -113.17324829 198.81867981 C-116.4613234 199.60329184 -119.74633196 200.39899428 -123.03048658 201.19975257 C-126.48766843 202.03983364 -129.94830945 202.86541667 -133.40859985 203.69258118 C-139.97439891 205.26439614 -146.53704246 206.8489923 -153.09862864 208.43829137 C-160.5009151 210.23061024 -167.90645577 212.00928512 -175.31238055 213.78650033 C-186.89445844 216.56596233 -198.47429279 219.35453085 -210.05224609 222.15112305 C-220.17235502 224.59504112 -230.29824084 227.01177047 -240.4375 229.375 C-240.4375 230.365 -240.4375 231.355 -240.4375 232.375 C-231.96890964 231.75604006 -223.58679134 230.80304687 -215.17675781 229.64086914 C-213.91013809 229.46837143 -212.64351837 229.29587372 -211.33851624 229.1181488 C-207.90243422 228.65000787 -204.46691044 228.17788936 -201.03151417 227.70474553 C-198.15134651 227.30843052 -195.27091376 226.91406097 -192.39048362 226.51965898 C-185.59406851 225.58900917 -178.79811281 224.65505787 -172.00244141 223.71899414 C-165.0115773 222.75610234 -158.0199643 221.79879601 -151.02796102 220.8442145 C-145.00002532 220.02105314 -138.97256878 219.19444715 -132.94548106 218.36509985 C-129.35632549 217.87125323 -125.76700771 217.37867736 -122.17722321 216.88942146 C-118.17766942 216.34413508 -114.17913995 215.79166033 -110.18066406 215.23852539 C-109.00333206 215.07897369 -107.82600006 214.919422 -106.61299133 214.7550354 C-96.4012087 213.8449232 -96.4012087 213.8449232 -87.4375 209.6875 C-86.00106159 206.36573617 -85.99028989 203.9526809 -86.4375 200.375 C-88.44252996 197.32735446 -89.81561458 196.53872837 -93.33413696 195.61238098 C-98.88403968 194.94126998 -104.1767194 196.63168401 -109.52880859 197.9519043 Z M-31.4375 202.375 C-33.837045 205.97431749 -34.25230111 207.13803423 -33.4375 211.375 C-28.33577703 216.99296366 -21.64752991 221.13515007 -15.375 225.3125 C-13.41339134 226.63442127 -11.45247561 227.95737126 -9.4921875 229.28125 C-8.49026367 229.95671875 -7.48833984 230.6321875 -6.45605469 231.328125 C-1.60868579 234.61511472 3.19659296 237.96172625 8 241.3125 C9.41949951 242.3017749 9.41949951 242.3017749 10.86767578 243.31103516 C12.79223268 244.65264987 14.7165484 245.99461062 16.640625 247.33691406 C21.59152813 250.79030137 26.5454353 254.23936865 31.5 257.6875 C32.46454102 258.35885986 33.42908203 259.03021973 34.42285156 259.72192383 C40.47671194 263.93269463 46.5459276 268.12010939 52.62963867 272.28759766 C57.16847539 275.40224516 61.68011802 278.55431899 66.18505859 281.71777344 C70.30572943 284.61089636 74.43219346 287.49565258 78.5625 290.375 C79.22459473 290.83696777 79.88668945 291.29893555 80.56884766 291.77490234 C82.24851132 292.94154758 83.93638395 294.09635058 85.625 295.25 C86.52347656 295.86617188 87.42195313 296.48234375 88.34765625 297.1171875 C90.57276705 298.62191248 90.57276705 298.62191248 93.5625 298.375 C91.97899186 294.01776518 88.58310993 291.55208451 85.125 288.6875 C84.1805603 287.89194702 84.1805603 287.89194702 83.21704102 287.08032227 C78.62475788 283.22308356 73.98514668 279.42325498 69.328125 275.64453125 C66.26882264 273.13400205 63.25937068 270.56987558 60.25 268 C55.81404018 264.21702611 51.2965881 260.56953658 46.6875 257 C41.00412022 252.59480687 35.57017312 247.95585649 30.16845703 243.21142578 C26.065801 239.62677651 21.87455999 236.20394925 17.5625 232.875 C12.58266392 229.03052158 7.78925171 225.02653854 3.0625 220.875 C-3.89698416 214.76489813 -11.08785248 209.00744015 -18.4375 203.375 C-19.18773437 202.7975 -19.93796875 202.22 -20.7109375 201.625 C-24.99818574 198.52110987 -27.2727786 199.30625792 -31.4375 202.375 Z M-63.4375 220.375 C-65.35035248 254.79656016 -67.26146283 289.21821656 -69.17023405 323.64000327 C-69.39554057 327.70303673 -69.62086153 331.7660694 -69.84619141 335.82910156 C-69.89105063 336.6379843 -69.93590985 337.44686704 -69.98212844 338.28026138 C-70.70868901 351.38067523 -71.43641924 364.48102386 -72.16458112 377.58134879 C-72.9116155 391.02167735 -73.65739434 404.46207516 -74.40200567 417.90253818 C-74.86157607 426.19720725 -75.3221278 434.49182064 -75.78393161 442.78636567 C-76.10043599 448.47284963 -76.4157217 454.15940033 -76.73004687 459.84600516 C-76.91147916 463.12772793 -77.09363133 466.40940796 -77.27686882 469.6910305 C-77.47545363 473.24902602 -77.6720053 476.8071282 -77.86804199 480.36526489 C-77.95558833 481.9207198 -77.95558833 481.9207198 -78.04490328 483.50759804 C-78.09715421 484.46354453 -78.14940515 485.41949103 -78.20323944 486.40440559 C-78.24880588 487.22536095 -78.29437232 488.0463163 -78.34131956 488.89214909 C-78.45078046 491.71782846 -78.4375 494.54720128 -78.4375 497.375 C-65.8975 497.375 -53.3575 497.375 -40.4375 497.375 C-43.35349102 442.62713685 -46.42859477 387.88908658 -49.56826794 333.15362394 C-50.07096335 324.38688019 -50.57135324 315.62000584 -51.07129449 306.85310465 C-51.561778 298.25355887 -52.05368655 289.65409539 -52.54673034 281.05469602 C-52.83760594 275.98111694 -53.12795454 270.90750922 -53.41687584 265.83381844 C-53.68532348 261.12063414 -53.95555668 256.40755552 -54.22714996 251.69455147 C-54.32574193 249.97854734 -54.42371472 248.2625075 -54.520998 246.54642868 C-55.01673895 237.80815693 -55.55146364 229.08448222 -56.4375 220.375 C-58.7475 220.375 -61.0575 220.375 -63.4375 220.375 Z " fill="#000000" transform="translate(315.4375,1.625)"/>
<path d="M0 0 C1.28519531 -0.02578125 2.57039062 -0.0515625 3.89453125 -0.078125 C7.1875 0.25 7.1875 0.25 9.109375 1.546875 C10.95563286 4.46342727 10.6039712 6.91823042 10.1875 10.25 C7.34806105 13.01656015 5.0307253 13.68380129 1.14453125 14.05859375 C0.16178223 14.16333008 -0.8209668 14.26806641 -1.83349609 14.37597656 C-2.87844238 14.4787793 -3.92338867 14.58158203 -5 14.6875 C-39.75232835 18.62329335 -69.31758566 32.16435228 -94.8125 56.25 C-95.57175781 56.95640625 -96.33101562 57.6628125 -97.11328125 58.390625 C-118.87150132 79.2845289 -131.5110474 107.39544697 -136.91796875 136.62109375 C-139.06423916 148.05278266 -139.06423916 148.05278266 -141.0625 151.25 C-143.83835981 152.83620561 -145.68536475 152.76055269 -148.8125 152.25 C-151.06640625 150.33984375 -151.06640625 150.33984375 -152.8125 147.25 C-152.97221216 143.85486589 -152.40729045 140.64873102 -151.8125 137.3125 C-151.58300659 135.9035144 -151.58300659 135.9035144 -151.34887695 134.46606445 C-150.05233584 126.85955953 -148.30599013 119.5614202 -145.8125 112.25 C-145.60254395 111.62851074 -145.39258789 111.00702148 -145.17626953 110.36669922 C-130.81662206 68.41400368 -100.93604623 34.92980725 -61.24023438 15.18798828 C-42.29357181 6.1306248 -21.07356145 0.25621351 0 0 Z " fill="#000000" transform="translate(249.8125,31.75)"/>
<path d="M0 0 C1.04502686 -0.0093457 2.09005371 -0.01869141 3.16674805 -0.02832031 C4.1494165 -0.02413086 5.13208496 -0.01994141 6.14453125 -0.015625 C7.02085205 -0.01336914 7.89717285 -0.01111328 8.80004883 -0.00878906 C11.38424138 0.27132589 12.99984512 0.86227425 15.1875 2.25 C16.58685013 5.04870027 16.44015405 7.15498792 16.1875 10.25 C14.64243534 12.28667615 13.46603844 13.11073078 11.1875 14.25 C9.10416909 14.27107416 7.02026942 14.24025738 4.9375 14.1875 C-43.11002561 13.68922936 -85.82742104 31.69130555 -120.8125 64.25 C-121.52921875 64.90097656 -122.2459375 65.55195312 -122.984375 66.22265625 C-130.04047834 72.90535267 -135.66933991 80.69587766 -141.42138672 88.49169922 C-145.10232479 93.14422922 -145.10232479 93.14422922 -148.75 93.6875 C-151.8125 93.25 -151.8125 93.25 -154.25 91.6875 C-155.8125 89.25 -155.8125 89.25 -155.69140625 85.9921875 C-154.70813172 81.80562307 -152.99918149 79.17450175 -150.3125 75.9375 C-149.86616211 75.3791748 -149.41982422 74.82084961 -148.95996094 74.24560547 C-145.40529999 69.84561349 -141.66705416 65.61443787 -137.83203125 61.45703125 C-136.07345093 59.53517848 -134.40430225 57.57352511 -132.75 55.5625 C-129.44073271 51.69870684 -125.72354259 48.49180611 -121.8125 45.25 C-121.0687915 44.61384766 -121.0687915 44.61384766 -120.31005859 43.96484375 C-94.45395551 21.88374709 -63.27656158 7.8799485 -29.8125 2.25 C-28.77826904 2.07428467 -28.77826904 2.07428467 -27.72314453 1.89501953 C-18.50265704 0.40369819 -9.33304222 0.05852748 0 0 Z " fill="#000000" transform="translate(247.8125,-0.25)"/>
<path d="M0 0 C22.1341807 26.84716215 28.48034933 73.08091436 25.65625 106.5234375 C25.21916337 111.03222894 24.6287507 115.5145007 24 120 C23.76023437 121.85238281 23.76023437 121.85238281 23.515625 123.7421875 C20.73855615 141.49291139 14.58916559 170.88604215 0 183 C-3 183.5625 -3 183.5625 -6 183 C-8.4375 180.875 -8.4375 180.875 -10 178 C-9.70501386 172.46900993 -7.2677897 168.14938584 -4.8125 163.3125 C13.59170378 125.58296844 16.13833115 80.81850484 3 41 C-0.19499217 31.93155862 -3.67666701 23.02285795 -8.5 14.6875 C-10.94633104 10.45295415 -11.80926808 7.85560847 -11 3 C-7.93050992 -1.60423513 -5.05953921 -1.53985976 0 0 Z " fill="#000000" transform="translate(426,87)"/>
<path d="M0 0 C0.680625 -0.0103125 1.36125 -0.020625 2.0625 -0.03125 C4 0.5 4 0.5 5.6484375 2.03515625 C7.47489794 5.36607109 8.04429007 8.7309021 8.625 12.4375 C8.81219604 13.57094849 8.81219604 13.57094849 9.00317383 14.72729492 C10.0489999 21.29858031 10.72433399 27.8495574 11 34.5 C11.04125 35.41265625 11.0825 36.3253125 11.125 37.265625 C11.55946044 56.70772981 8.04770095 75.51883801 1.5 93.75 C1.21552002 94.54865479 0.93104004 95.34730957 0.63793945 96.17016602 C-1.00011723 100.53536067 -2.65294708 104.1330636 -6 107.5 C-9.2088071 108.02388687 -11.0300175 108.04965675 -13.875 106.4375 C-15.62818147 103.41813191 -15.21608509 100.95387625 -15 97.5 C-14.1668409 94.79501012 -13.28377146 92.24717441 -12.25 89.625 C-10.00139049 83.61051857 -8.13059876 77.63350604 -6.6875 71.375 C-6.52862305 70.68937988 -6.36974609 70.00375977 -6.20605469 69.29736328 C-4.15794916 60.11239772 -3.76832564 51.24723748 -3.75 41.875 C-3.74666656 41.19102142 -3.74333313 40.50704285 -3.73989868 39.80233765 C-3.71044017 29.96707373 -4.27868887 20.42010088 -6.19628906 10.74560547 C-7.2608673 5.06274049 -7.2608673 5.06274049 -5.83203125 1.98046875 C-3.7005249 0.25799347 -2.71618567 -0.04115433 0 0 Z " fill="#000000" transform="translate(407,144.5)"/>
<path d="M0 0 C2.49502751 1.3515954 4.47497959 2.60327173 6.6875 4.3125 C7.29053955 4.76181885 7.8935791 5.2111377 8.51489258 5.67407227 C14.72217972 10.38554904 20.4006641 15.59137717 26 21 C26.92554688 21.86238281 27.85109375 22.72476563 28.8046875 23.61328125 C40.75792657 35.04166138 49.33899901 48.4346906 57 63 C57.58007812 64.06605469 58.16015625 65.13210937 58.7578125 66.23046875 C60.40535539 69.90376406 60.03421433 72.1586325 59 76 C55.50434664 78.33043558 54.1134271 78.58763244 50 78 C46.30826273 74.12854327 44.12620496 69.60274525 41.75 64.875 C36.40589553 54.54725355 30.00288843 45.81245914 22.078125 37.2890625 C20 35 20 35 18.04296875 32.4765625 C11.74376761 24.84043722 2.84458177 19.38082833 -5.34765625 13.9453125 C-8 12 -8 12 -10 9 C-10.3125 5.4375 -10.3125 5.4375 -10 2 C-6.22888243 -0.51407838 -4.47618007 -0.47339705 0 0 Z " fill="#000000" transform="translate(344,52)"/>
<path d="M0 0 C1.875 1 1.875 1 3 3 C3.41367886 9.15180498 2.3948253 13.6524834 0.25 19.375 C-2.95984541 28.44935046 -5.16248443 37.5609974 -7 47 C-7.20367187 48.03253906 -7.40734375 49.06507813 -7.6171875 50.12890625 C-8.43986223 54.67893033 -9.03451829 59.21323871 -9.45703125 63.81640625 C-9.53743652 64.67049072 -9.6178418 65.5245752 -9.70068359 66.40454102 C-9.85566766 68.10313447 -9.99841237 69.80290013 -10.12744141 71.50366211 C-10.81466912 79.17612511 -10.81466912 79.17612511 -14 82 C-19.92193045 82.74024131 -19.92193045 82.74024131 -22.6953125 80.8359375 C-28.11010355 73.21632135 -22.93414172 54.57095761 -21.50927734 45.86230469 C-18.84541183 30.8905121 -15.45527455 14.39188207 -8 1 C-5.20129973 -0.39935013 -3.09501208 -0.25265405 0 0 Z " fill="#000000" transform="translate(85,110)"/>
<path d="M0 0 C2.4375 1.625 2.4375 1.625 4 4 C4.08214531 7.86082968 3.47451322 9.48124514 0.86328125 12.3359375 C-13.14124647 25.36607107 -28.81707542 35.94986416 -46.09863281 44.08276367 C-47.44292655 44.73126285 -48.77470006 45.40602293 -50.09667969 46.09887695 C-51.13743652 46.64354614 -51.13743652 46.64354614 -52.19921875 47.19921875 C-52.82272217 47.53268311 -53.44622559 47.86614746 -54.08862305 48.2097168 C-57.5420367 49.63757476 -60.30995609 49.44535013 -64 49 C-66.5099972 45.23500419 -66.61476744 43.45706394 -66 39 C-61.2842717 34.24574451 -55.75405941 31.75769903 -49.75 28.9375 C-36.12720537 22.33151137 -23.58225824 14.31854853 -11.9453125 4.62109375 C-5.44680851 -0.79432624 -5.44680851 -0.79432624 0 0 Z " fill="#000000" transform="translate(382,317)"/>
<path d="M0 0 C2.79233277 1.1500923 5.30816964 2.66708674 7.875 4.25 C8.61532471 4.69746582 9.35564941 5.14493164 10.1184082 5.60595703 C25.8271932 15.28906625 42.61439094 27.30889154 54 42 C54.556875 42.66773438 55.11375 43.33546875 55.6875 44.0234375 C57 46 57 46 56.8125 49.125 C56 52 56 52 54 54 C50.71245175 55.1871702 49.34841777 55.14412462 46.08203125 53.79296875 C42.93031253 51.95945938 41.22694357 50.30377185 38.9375 47.5 C28.24063044 35.21906823 14.2016816 24.74651489 0.0625 16.7109375 C-0.84338867 16.19116333 -0.84338867 16.19116333 -1.76757812 15.66088867 C-3.38343021 14.75299658 -5.01923673 13.88087555 -6.65625 13.01171875 C-9 11 -9 11 -9.94140625 7.421875 C-10 4 -10 4 -8.4375 1.5625 C-5.24929949 -0.48121828 -3.76561668 -0.40959339 0 0 Z " fill="#000000" transform="translate(353,18)"/>
<path d="M0 0 C0.66 0.33 1.32 0.66 2 1 C2.97423273 4.2974031 3.34933652 6.21431273 1.93359375 9.3984375 C-0.49578602 12.66705756 -3.3681759 14.7060664 -6.75 16.875 C-7.34554688 17.29007812 -7.94109375 17.70515625 -8.5546875 18.1328125 C-11.99962658 20.36978593 -13.58310624 21.01276205 -17.828125 20.8828125 C-21 20 -21 20 -23 18 C-23.6875 14.8125 -23.6875 14.8125 -23 11 C-20.33349845 8.1649611 -17.2423085 6.12792253 -14 4 C-12.92685547 3.21496094 -12.92685547 3.21496094 -11.83203125 2.4140625 C-7.61071148 -0.54167784 -5.17292836 -1.72430945 0 0 Z " fill="#000000" transform="translate(354,299)"/>
</svg>
